{"glyphs":{"0":{"ha":1013,"x_min":106,"x_max":907,"o":"m 510 -14 q 291 49 382 -14 q 153 225 200 113 q 106 486 106 338 q 153 747 106 635 q 291 923 200 860 q 510 986 382 986 q 725 923 636 986 q 860 747 814 860 q 907 486 907 635 q 860 225 907 338 q 725 49 814 113 q 510 -14 636 -14 m 510 122 q 695 217 629 122 q 761 486 761 313 q 695 755 761 660 q 510 850 629 850 q 319 755 388 850 q 250 486 250 660 q 319 217 250 313 q 510 122 388 122 z "},"1":{"ha":821,"x_min":163,"x_max":692,"o":"m 374 68 l 374 857 l 428 839 l 210 721 l 163 847 l 417 986 l 525 986 l 525 68 l 374 68 m 189 0 l 189 144 l 692 144 l 692 0 l 189 0 z "},"2":{"ha":938,"x_min":117,"x_max":832,"o":"m 175 0 l 129 114 l 447 424 q 516 493 481 457 q 581 566 551 529 q 629 638 611 603 q 647 707 647 674 q 628 783 647 751 q 572 831 610 814 q 482 847 535 847 q 388 826 435 847 q 299 765 340 806 q 228 664 258 725 l 117 739 q 207 869 151 814 q 337 956 263 925 q 500 986 411 986 q 660 952 592 986 q 765 859 728 918 q 801 722 801 800 q 788 638 801 679 q 749 557 774 597 q 690 478 724 517 q 619 399 657 439 q 542 321 582 360 l 308 92 l 285 144 l 832 144 l 832 0 l 175 0 z "},"3":{"ha":918,"x_min":82,"x_max":818,"o":"m 442 -14 q 233 40 319 -14 q 82 192 147 94 l 199 276 q 265 199 229 235 q 346 140 301 163 q 446 118 390 118 q 553 138 501 118 q 640 200 606 158 q 674 304 674 242 q 646 397 674 361 q 574 451 618 433 q 479 468 529 468 q 428 465 453 468 q 379 454 403 461 q 331 439 356 447 l 283 538 l 622 876 l 628 833 l 136 833 l 136 972 l 771 972 l 799 893 l 442 533 l 407 592 q 454 601 422 597 q 513 606 486 606 q 630 583 575 606 q 727 522 685 561 q 794 430 769 483 q 818 315 818 376 q 767 144 818 218 q 632 28 717 69 q 442 -14 547 -14 z "},"4":{"ha":983,"x_min":72,"x_max":911,"o":"m 567 0 l 567 851 l 633 847 l 207 351 l 204 401 l 911 401 l 911 264 l 136 264 l 72 389 l 581 972 l 711 972 l 711 0 l 567 0 z "},"5":{"ha":938,"x_min":110,"x_max":824,"o":"m 443 -10 q 255 34 342 -10 q 110 150 168 78 l 190 257 q 318 160 256 192 q 443 128 381 128 q 563 152 510 128 q 647 221 617 176 q 678 325 678 265 q 647 421 678 378 q 567 490 617 464 q 454 515 517 515 q 372 508 410 515 q 300 487 335 500 q 229 457 265 474 l 150 560 l 207 972 l 763 972 l 763 833 l 301 833 l 325 860 l 279 551 l 250 592 q 303 619 265 606 q 389 641 342 632 q 481 650 436 650 q 653 610 576 650 q 777 498 731 569 q 824 331 824 426 q 773 158 824 235 q 636 35 722 81 q 443 -10 550 -10 z "},"6":{"ha":957,"x_min":110,"x_max":850,"o":"m 479 0 q 334 25 401 0 q 217 96 267 50 q 138 204 167 142 q 110 343 110 267 q 124 447 110 394 q 166 556 139 500 q 230 669 193 613 q 311 785 267 726 l 468 989 l 632 989 l 638 975 l 429 718 q 343 594 383 657 q 276 471 303 531 q 238 361 249 411 l 174 481 q 237 560 201 524 q 316 622 272 596 q 411 664 360 649 q 521 679 463 679 q 685 637 611 679 q 805 522 760 594 q 850 361 850 450 q 803 179 850 261 q 674 49 757 97 q 479 0 590 0 m 479 139 q 593 164 542 139 q 675 235 644 189 q 706 343 706 281 q 676 437 706 392 q 597 511 647 482 q 482 540 546 540 q 362 513 413 540 q 283 441 311 486 q 254 344 254 396 q 282 242 254 289 q 360 167 310 196 q 479 139 410 139 z "},"7":{"ha":874,"x_min":107,"x_max":782,"o":"m 233 0 l 636 878 l 653 833 l 107 833 l 107 972 l 763 972 l 782 876 l 394 0 l 233 0 z "},"8":{"ha":986,"x_min":126,"x_max":861,"o":"m 493 -4 q 305 35 388 -4 q 174 142 222 75 q 126 288 126 208 q 140 374 126 336 q 181 442 154 413 q 241 494 207 471 q 314 535 275 517 l 306 490 q 249 523 275 503 q 202 570 222 543 q 171 631 182 597 q 160 703 160 664 q 204 838 160 778 q 324 935 249 899 q 493 972 400 972 q 661 935 586 972 q 780 838 736 899 q 824 703 824 778 q 812 628 824 663 q 780 568 800 594 q 733 522 760 542 q 679 490 707 503 l 675 529 q 751 488 717 513 q 810 431 785 463 q 848 364 835 400 q 861 288 861 328 q 813 140 861 207 q 681 35 764 74 q 493 -4 599 -4 m 493 135 q 606 155 556 135 q 685 210 656 175 q 714 289 714 244 q 685 369 714 335 q 605 423 656 403 q 493 443 554 443 q 381 423 431 443 q 301 369 331 403 q 271 289 271 335 q 300 211 271 246 q 379 156 329 176 q 493 135 429 135 m 493 571 q 586 588 544 571 q 652 636 628 606 q 676 707 676 667 q 653 772 676 743 q 588 817 629 800 q 493 833 546 833 q 397 817 439 833 q 331 772 354 800 q 307 707 307 743 q 331 636 307 667 q 398 588 356 606 q 493 571 440 571 z "},"9":{"ha":940,"x_min":104,"x_max":833,"o":"m 388 0 l 382 14 l 724 628 l 721 521 q 656 447 690 481 q 585 388 622 413 q 505 351 547 364 q 415 338 463 338 q 258 380 329 338 q 146 492 188 422 q 104 642 104 561 q 153 820 104 742 q 287 944 203 899 q 474 989 371 989 q 613 964 547 989 q 727 894 678 939 q 805 791 776 850 q 833 664 833 732 q 821 578 833 624 q 786 479 808 532 q 734 367 764 426 q 668 242 704 308 l 538 0 l 388 0 m 458 478 q 576 503 525 478 q 653 569 626 528 q 681 658 681 610 q 653 753 681 710 q 577 823 626 797 q 461 849 528 849 q 357 826 404 849 q 281 760 310 803 q 253 660 253 718 q 279 572 253 614 q 352 504 306 531 q 458 478 399 478 z "},"A":{"ha":1200,"x_min":88,"x_max":1113,"o":"m 88 0 l 518 972 l 683 972 l 1113 0 l 950 0 l 669 633 q 648 682 660 651 q 623 747 636 713 q 598 813 610 781 q 578 869 586 846 l 617 871 q 594 810 606 842 q 569 745 582 778 q 544 683 557 713 q 521 628 532 653 l 243 0 l 88 0 m 276 233 l 333 378 l 851 378 l 893 233 l 276 233 z "},"Á":{"ha":1200,"x_min":88,"x_max":1113,"o":"m 88 0 l 518 972 l 683 972 l 1113 0 l 950 0 l 669 633 q 648 682 660 651 q 623 747 636 713 q 598 813 610 781 q 578 869 586 846 l 617 871 q 594 810 606 842 q 569 745 582 778 q 544 683 557 713 q 521 628 532 653 l 243 0 l 88 0 m 276 233 l 333 378 l 851 378 l 893 233 l 276 233 m 497 1049 l 458 1121 l 713 1278 l 778 1153 l 497 1049 z "},"Ă":{"ha":1200,"x_min":88,"x_max":1113,"o":"m 88 0 l 518 972 l 683 972 l 1113 0 l 950 0 l 669 633 q 648 682 660 651 q 623 747 636 713 q 598 813 610 781 q 578 869 586 846 l 617 871 q 594 810 606 842 q 569 745 582 778 q 544 683 557 713 q 521 628 532 653 l 243 0 l 88 0 m 276 233 l 333 378 l 851 378 l 893 233 l 276 233 m 600 1043 q 497 1069 543 1043 q 419 1137 450 1094 q 375 1229 388 1179 l 478 1246 q 525 1183 493 1211 q 600 1156 557 1156 q 675 1183 643 1156 q 722 1246 707 1211 l 825 1229 q 782 1137 814 1179 q 704 1069 750 1094 q 600 1043 658 1043 z "},"Ắ":{"ha":1200,"x_min":88,"x_max":1113,"o":"m 88 0 l 518 972 l 683 972 l 1113 0 l 950 0 l 669 633 q 648 682 660 651 q 623 747 636 713 q 598 813 610 781 q 578 869 586 846 l 617 871 q 594 810 606 842 q 569 745 582 778 q 544 683 557 713 q 521 628 532 653 l 243 0 l 88 0 m 276 233 l 333 378 l 851 378 l 893 233 l 276 233 m 600 1043 q 453 1093 514 1043 q 375 1229 393 1143 l 472 1246 q 524 1173 492 1196 q 600 1150 557 1150 q 676 1173 643 1150 q 728 1246 708 1196 l 825 1229 q 747 1093 807 1143 q 600 1043 686 1043 m 608 1229 l 542 1282 l 657 1485 l 776 1397 l 608 1229 z "},"Ặ":{"ha":1200,"x_min":88,"x_max":1113,"o":"m 88 0 l 518 972 l 683 972 l 1113 0 l 950 0 l 669 633 q 648 682 660 651 q 623 747 636 713 q 598 813 610 781 q 578 869 586 846 l 617 871 q 594 810 606 842 q 569 745 582 778 q 544 683 557 713 q 521 628 532 653 l 243 0 l 88 0 m 276 233 l 333 378 l 851 378 l 893 233 l 276 233 m 600 -286 q 528 -262 553 -286 q 504 -196 504 -237 q 528 -132 504 -158 q 600 -106 553 -106 q 672 -130 647 -106 q 696 -196 696 -154 q 672 -260 696 -233 q 600 -286 647 -286 m 600 1043 q 497 1069 543 1043 q 419 1137 450 1094 q 375 1229 388 1179 l 478 1246 q 525 1183 493 1211 q 600 1156 557 1156 q 675 1183 643 1156 q 722 1246 707 1211 l 825 1229 q 782 1137 814 1179 q 704 1069 750 1094 q 600 1043 658 1043 z "},"Ằ":{"ha":1200,"x_min":88,"x_max":1113,"o":"m 88 0 l 518 972 l 683 972 l 1113 0 l 950 0 l 669 633 q 648 682 660 651 q 623 747 636 713 q 598 813 610 781 q 578 869 586 846 l 617 871 q 594 810 606 842 q 569 745 582 778 q 544 683 557 713 q 521 628 532 653 l 243 0 l 88 0 m 276 233 l 333 378 l 851 378 l 893 233 l 276 233 m 600 1043 q 453 1093 514 1043 q 375 1229 393 1143 l 472 1246 q 524 1173 493 1196 q 600 1150 556 1150 q 676 1173 643 1150 q 728 1246 708 1196 l 825 1229 q 747 1093 807 1143 q 600 1043 686 1043 m 599 1229 l 431 1397 l 550 1485 l 665 1282 l 599 1229 z "},"Ẳ":{"ha":1200,"x_min":88,"x_max":1113,"o":"m 88 0 l 518 972 l 683 972 l 1113 0 l 950 0 l 669 633 q 648 682 660 651 q 623 747 636 713 q 598 813 610 781 q 578 869 586 846 l 617 871 q 594 810 606 842 q 569 745 582 778 q 544 683 557 713 q 521 628 532 653 l 243 0 l 88 0 m 276 233 l 333 378 l 851 378 l 893 233 l 276 233 m 600 1043 q 453 1093 514 1043 q 375 1229 393 1143 l 472 1246 q 524 1173 492 1196 q 600 1150 557 1150 q 676 1173 643 1150 q 728 1246 708 1196 l 825 1229 q 747 1093 807 1143 q 600 1043 686 1043 m 572 1229 q 558 1253 564 1240 q 551 1278 551 1265 q 558 1303 551 1290 q 589 1332 564 1315 q 620 1354 610 1346 q 631 1368 631 1363 q 619 1386 631 1381 q 589 1392 607 1392 q 540 1385 567 1392 q 490 1367 514 1378 l 468 1454 q 531 1479 497 1471 q 592 1488 564 1488 q 702 1456 665 1488 q 739 1381 739 1425 q 722 1334 739 1351 q 688 1306 704 1317 q 650 1281 661 1290 q 639 1263 639 1271 q 640 1255 639 1258 q 643 1247 642 1251 l 572 1229 z "},"Ẵ":{"ha":1200,"x_min":88,"x_max":1113,"o":"m 88 0 l 518 972 l 683 972 l 1113 0 l 950 0 l 669 633 q 648 682 660 651 q 623 747 636 713 q 598 813 610 781 q 578 869 586 846 l 617 871 q 594 810 606 842 q 569 745 582 778 q 544 683 557 713 q 521 628 532 653 l 243 0 l 88 0 m 276 233 l 333 378 l 851 378 l 893 233 l 276 233 m 600 1043 q 453 1089 514 1043 q 375 1215 393 1135 l 472 1232 q 524 1169 492 1189 q 600 1150 557 1150 q 676 1169 643 1150 q 728 1232 708 1189 l 825 1215 q 747 1089 807 1135 q 600 1043 686 1043 m 708 1301 q 647 1311 675 1301 q 594 1331 618 1321 q 553 1349 569 1342 q 522 1356 536 1356 q 490 1342 504 1356 q 471 1304 476 1328 l 376 1318 q 418 1417 379 1375 q 513 1460 457 1460 q 566 1450 542 1460 q 615 1429 590 1440 q 652 1413 633 1421 q 685 1406 671 1406 q 715 1419 704 1406 q 731 1458 725 1432 l 825 1444 q 810 1373 824 1406 q 771 1321 796 1340 q 708 1301 746 1301 z "},"Ǎ":{"ha":1200,"x_min":88,"x_max":1113,"o":"m 88 0 l 518 972 l 683 972 l 1113 0 l 950 0 l 669 633 q 648 682 660 651 q 623 747 636 713 q 598 813 610 781 q 578 869 586 846 l 617 871 q 594 810 606 842 q 569 745 582 778 q 544 683 557 713 q 521 628 532 653 l 243 0 l 88 0 m 276 233 l 333 378 l 851 378 l 893 233 l 276 233 m 540 1051 l 374 1194 l 426 1240 l 621 1153 l 579 1153 l 774 1240 l 826 1194 l 660 1051 l 540 1051 z "},"Â":{"ha":1200,"x_min":88,"x_max":1113,"o":"m 88 0 l 518 972 l 683 972 l 1113 0 l 950 0 l 669 633 q 648 682 660 651 q 623 747 636 713 q 598 813 610 781 q 578 869 586 846 l 617 871 q 594 810 606 842 q 569 745 582 778 q 544 683 557 713 q 521 628 532 653 l 243 0 l 88 0 m 276 233 l 333 378 l 851 378 l 893 233 l 276 233 m 428 1049 l 376 1097 l 549 1238 l 650 1238 l 822 1097 l 771 1049 l 579 1139 l 619 1139 l 428 1049 z "},"Ấ":{"ha":1200,"x_min":88,"x_max":1113,"o":"m 88 0 l 518 972 l 683 972 l 1113 0 l 950 0 l 669 633 q 648 682 660 651 q 623 747 636 713 q 598 813 610 781 q 578 869 586 846 l 617 871 q 594 810 606 842 q 569 745 582 778 q 544 683 557 713 q 521 628 532 653 l 243 0 l 88 0 m 276 233 l 333 378 l 851 378 l 893 233 l 276 233 m 428 1049 l 382 1099 l 549 1235 l 650 1235 l 817 1099 l 771 1049 l 579 1136 l 619 1136 l 428 1049 m 825 1200 l 753 1250 l 867 1453 l 988 1367 l 825 1200 z "},"Ậ":{"ha":1200,"x_min":88,"x_max":1113,"o":"m 88 0 l 518 972 l 683 972 l 1113 0 l 950 0 l 669 633 q 648 682 660 651 q 623 747 636 713 q 598 813 610 781 q 578 869 586 846 l 617 871 q 594 810 606 842 q 569 745 582 778 q 544 683 557 713 q 521 628 532 653 l 243 0 l 88 0 m 276 233 l 333 378 l 851 378 l 893 233 l 276 233 m 600 -286 q 528 -262 553 -286 q 504 -196 504 -237 q 528 -132 504 -158 q 600 -106 553 -106 q 672 -130 647 -106 q 696 -196 696 -154 q 672 -260 696 -233 q 600 -286 647 -286 m 428 1049 l 376 1097 l 549 1238 l 650 1238 l 822 1097 l 771 1049 l 579 1139 l 619 1139 l 428 1049 z "},"Ầ":{"ha":1200,"x_min":88,"x_max":1113,"o":"m 88 0 l 518 972 l 683 972 l 1113 0 l 950 0 l 669 633 q 648 682 660 651 q 623 747 636 713 q 598 813 610 781 q 578 869 586 846 l 617 871 q 594 810 606 842 q 569 745 582 778 q 544 683 557 713 q 521 628 532 653 l 243 0 l 88 0 m 276 233 l 333 378 l 851 378 l 893 233 l 276 233 m 428 1049 l 382 1099 l 549 1235 l 650 1235 l 817 1099 l 771 1049 l 579 1136 l 619 1136 l 428 1049 m 829 1201 l 661 1369 l 781 1457 l 896 1254 l 829 1201 z "},"Ẩ":{"ha":1200,"x_min":88,"x_max":1113,"o":"m 88 0 l 518 972 l 683 972 l 1113 0 l 950 0 l 669 633 q 648 682 660 651 q 623 747 636 713 q 598 813 610 781 q 578 869 586 846 l 617 871 q 594 810 606 842 q 569 745 582 778 q 544 683 557 713 q 521 628 532 653 l 243 0 l 88 0 m 276 233 l 333 378 l 851 378 l 893 233 l 276 233 m 428 1049 l 382 1099 l 549 1235 l 650 1235 l 817 1099 l 771 1049 l 579 1136 l 619 1136 l 428 1049 m 786 1199 q 772 1222 778 1210 q 765 1247 765 1235 q 772 1272 765 1260 q 803 1301 778 1285 q 834 1324 824 1315 q 844 1338 844 1332 q 833 1356 844 1350 q 803 1361 821 1361 q 754 1354 781 1361 q 704 1336 728 1347 l 682 1424 q 744 1449 711 1440 q 806 1457 778 1457 q 916 1426 879 1457 q 953 1350 953 1394 q 935 1303 953 1321 q 901 1275 918 1286 q 864 1250 875 1260 q 853 1232 853 1240 q 854 1224 853 1228 q 857 1217 856 1221 l 786 1199 z "},"Ẫ":{"ha":1200,"x_min":88,"x_max":1113,"o":"m 88 0 l 518 972 l 683 972 l 1113 0 l 950 0 l 669 633 q 648 682 660 651 q 623 747 636 713 q 598 813 610 781 q 578 869 586 846 l 617 871 q 594 810 606 842 q 569 745 582 778 q 544 683 557 713 q 521 628 532 653 l 243 0 l 88 0 m 276 233 l 333 378 l 851 378 l 893 233 l 276 233 m 428 1049 l 382 1099 l 549 1235 l 650 1235 l 817 1099 l 771 1049 l 579 1136 l 619 1136 l 428 1049 m 707 1301 q 645 1311 674 1301 q 593 1331 617 1321 q 551 1349 568 1342 q 521 1356 535 1356 q 489 1342 503 1356 q 469 1304 475 1328 l 375 1318 q 417 1417 378 1375 q 511 1460 456 1460 q 565 1450 540 1460 q 614 1429 589 1440 q 651 1413 632 1421 q 683 1406 669 1406 q 713 1419 703 1406 q 729 1458 724 1432 l 824 1444 q 808 1373 822 1406 q 769 1321 794 1340 q 707 1301 744 1301 z "},"Ȁ":{"ha":1200,"x_min":88,"x_max":1113,"o":"m 88 0 l 518 972 l 683 972 l 1113 0 l 950 0 l 669 633 q 648 682 660 651 q 623 747 636 713 q 598 813 610 781 q 578 869 586 846 l 617 871 q 594 810 606 842 q 569 745 582 778 q 544 683 557 713 q 521 628 532 653 l 243 0 l 88 0 m 276 233 l 333 378 l 851 378 l 893 233 l 276 233 m 743 1042 l 514 1193 l 614 1299 l 796 1108 l 743 1042 m 467 1042 l 238 1193 l 338 1299 l 519 1108 l 467 1042 z "},"Ä":{"ha":1200,"x_min":88,"x_max":1113,"o":"m 88 0 l 518 972 l 683 972 l 1113 0 l 950 0 l 669 633 q 648 682 660 651 q 623 747 636 713 q 598 813 610 781 q 578 869 586 846 l 617 871 q 594 810 606 842 q 569 745 582 778 q 544 683 557 713 q 521 628 532 653 l 243 0 l 88 0 m 276 233 l 333 378 l 851 378 l 893 233 l 276 233 m 743 1054 q 671 1079 694 1054 q 647 1144 647 1104 q 671 1207 647 1179 q 743 1235 694 1235 q 815 1210 792 1235 q 839 1144 839 1185 q 815 1082 839 1110 q 743 1054 792 1054 m 457 1054 q 385 1079 408 1054 q 361 1144 361 1104 q 385 1207 361 1179 q 457 1235 408 1235 q 529 1210 506 1235 q 553 1144 553 1185 q 529 1082 553 1110 q 457 1054 506 1054 z "},"Ạ":{"ha":1200,"x_min":88,"x_max":1113,"o":"m 88 0 l 518 972 l 683 972 l 1113 0 l 950 0 l 669 633 q 648 682 660 651 q 623 747 636 713 q 598 813 610 781 q 578 869 586 846 l 617 871 q 594 810 606 842 q 569 745 582 778 q 544 683 557 713 q 521 628 532 653 l 243 0 l 88 0 m 276 233 l 333 378 l 851 378 l 893 233 l 276 233 m 600 -286 q 528 -262 553 -286 q 504 -196 504 -237 q 528 -132 504 -158 q 600 -106 553 -106 q 672 -130 647 -106 q 696 -196 696 -154 q 672 -260 696 -233 q 600 -286 647 -286 z "},"À":{"ha":1200,"x_min":88,"x_max":1113,"o":"m 88 0 l 518 972 l 683 972 l 1113 0 l 950 0 l 669 633 q 648 682 660 651 q 623 747 636 713 q 598 813 610 781 q 578 869 586 846 l 617 871 q 594 810 606 842 q 569 745 582 778 q 544 683 557 713 q 521 628 532 653 l 243 0 l 88 0 m 276 233 l 333 378 l 851 378 l 893 233 l 276 233 m 713 1049 l 432 1153 l 500 1278 l 754 1121 l 713 1049 z "},"Ả":{"ha":1200,"x_min":88,"x_max":1113,"o":"m 88 0 l 518 972 l 683 972 l 1113 0 l 950 0 l 669 633 q 648 682 660 651 q 623 747 636 713 q 598 813 610 781 q 578 869 586 846 l 617 871 q 594 810 606 842 q 569 745 582 778 q 544 683 557 713 q 521 628 532 653 l 243 0 l 88 0 m 276 233 l 333 378 l 851 378 l 893 233 l 276 233 m 568 1053 q 553 1080 558 1067 q 547 1106 547 1093 q 555 1133 547 1118 q 585 1164 563 1149 q 617 1188 608 1179 q 626 1206 626 1196 q 615 1224 626 1218 q 585 1229 603 1229 q 536 1222 563 1229 q 486 1204 510 1215 l 464 1292 q 526 1317 493 1308 q 588 1325 560 1325 q 698 1294 661 1325 q 735 1218 735 1263 q 719 1163 735 1183 q 683 1133 703 1143 q 647 1112 658 1121 q 635 1089 635 1103 q 636 1079 635 1083 q 639 1071 638 1075 l 568 1053 z "},"Ȃ":{"ha":1200,"x_min":88,"x_max":1113,"o":"m 88 0 l 518 972 l 683 972 l 1113 0 l 950 0 l 669 633 q 648 682 660 651 q 623 747 636 713 q 598 813 610 781 q 578 869 586 846 l 617 871 q 594 810 606 842 q 569 745 582 778 q 544 683 557 713 q 521 628 532 653 l 243 0 l 88 0 m 276 233 l 333 378 l 851 378 l 893 233 l 276 233 m 478 1043 l 375 1060 q 419 1152 388 1110 q 497 1220 450 1194 q 600 1246 543 1246 q 704 1220 658 1246 q 782 1152 750 1194 q 825 1060 814 1110 l 722 1043 q 675 1106 707 1078 q 600 1133 643 1133 q 525 1106 557 1133 q 478 1043 493 1078 z "},"Ā":{"ha":1200,"x_min":88,"x_max":1113,"o":"m 88 0 l 518 972 l 683 972 l 1113 0 l 950 0 l 669 633 q 648 682 660 651 q 623 747 636 713 q 598 813 610 781 q 578 869 586 846 l 617 871 q 594 810 606 842 q 569 745 582 778 q 544 683 557 713 q 521 628 532 653 l 243 0 l 88 0 m 276 233 l 333 378 l 851 378 l 893 233 l 276 233 m 369 1093 l 369 1197 l 829 1197 l 829 1093 l 369 1093 z "},"Ą":{"ha":1200,"x_min":88,"x_max":1147,"o":"m 88 0 l 518 972 l 683 972 l 1113 0 l 950 0 l 669 633 q 648 682 660 651 q 623 747 636 713 q 598 813 610 781 q 578 869 586 846 l 617 871 q 594 810 606 842 q 569 745 582 778 q 544 683 557 713 q 521 628 532 653 l 243 0 l 88 0 m 276 233 l 333 378 l 851 378 l 893 233 l 276 233 m 996 -278 q 919 -259 954 -278 q 865 -208 885 -240 q 844 -136 844 -175 q 861 -65 844 -97 q 908 -8 878 -33 q 977 37 939 18 q 1058 67 1015 56 l 1113 0 q 1038 -30 1071 -11 q 988 -71 1006 -49 q 971 -121 971 -93 q 983 -157 971 -143 q 1018 -171 996 -171 q 1047 -160 1035 -171 q 1069 -136 1060 -150 l 1147 -192 q 1092 -250 1135 -222 q 996 -278 1050 -278 z "},"Å":{"ha":1200,"x_min":88,"x_max":1113,"o":"m 88 0 l 518 972 l 683 972 l 1113 0 l 950 0 l 669 633 q 648 682 660 651 q 623 747 636 713 q 598 813 610 781 q 578 869 586 846 l 617 871 q 594 810 606 842 q 569 745 582 778 q 544 683 557 713 q 521 628 532 653 l 243 0 l 88 0 m 276 233 l 333 378 l 851 378 l 893 233 l 276 233 m 599 1006 q 525 1026 560 1006 q 469 1079 490 1046 q 447 1151 447 1113 q 469 1226 447 1193 q 525 1279 490 1260 q 599 1299 560 1299 q 674 1279 639 1299 q 730 1226 708 1260 q 751 1151 751 1193 q 730 1079 751 1113 q 674 1026 708 1046 q 599 1006 639 1006 m 599 1088 q 648 1106 628 1088 q 668 1151 668 1125 q 647 1200 668 1183 q 599 1217 626 1217 q 551 1199 571 1217 q 531 1151 531 1181 q 551 1106 531 1125 q 599 1088 571 1088 z "},"Ǻ":{"ha":1200,"x_min":88,"x_max":1113,"o":"m 88 0 l 518 972 l 683 972 l 1113 0 l 950 0 l 669 633 q 648 682 660 651 q 623 747 636 713 q 598 813 610 781 q 578 869 586 846 l 617 871 q 594 810 606 842 q 569 745 582 778 q 544 683 557 713 q 521 628 532 653 l 243 0 l 88 0 m 276 233 l 333 378 l 851 378 l 893 233 l 276 233 m 599 1006 q 525 1026 560 1006 q 469 1079 490 1046 q 447 1151 447 1113 q 469 1226 447 1193 q 525 1279 490 1260 q 599 1299 560 1299 q 674 1279 639 1299 q 730 1226 708 1260 q 751 1151 751 1193 q 730 1079 751 1113 q 674 1026 708 1046 q 599 1006 639 1006 m 599 1088 q 648 1106 628 1088 q 668 1151 668 1125 q 647 1200 668 1183 q 599 1217 626 1217 q 551 1199 571 1217 q 531 1151 531 1181 q 551 1106 531 1125 q 599 1088 571 1088 m 497 1333 l 458 1406 l 713 1563 l 778 1438 l 497 1333 z "},"Ã":{"ha":1200,"x_min":88,"x_max":1113,"o":"m 88 0 l 518 972 l 683 972 l 1113 0 l 950 0 l 669 633 q 648 682 660 651 q 623 747 636 713 q 598 813 610 781 q 578 869 586 846 l 617 871 q 594 810 606 842 q 569 745 582 778 q 544 683 557 713 q 521 628 532 653 l 243 0 l 88 0 m 276 233 l 333 378 l 851 378 l 893 233 l 276 233 m 703 1067 q 638 1077 671 1067 q 576 1099 606 1088 q 536 1114 553 1108 q 506 1119 519 1119 q 476 1106 488 1119 q 464 1067 464 1092 l 357 1067 q 406 1183 357 1142 q 515 1224 454 1224 q 572 1214 544 1224 q 626 1193 600 1204 q 665 1179 646 1185 q 696 1174 683 1174 q 726 1188 715 1174 q 736 1224 738 1201 l 842 1224 q 825 1147 842 1183 q 777 1089 808 1111 q 703 1067 746 1067 z "},"Æ":{"ha":1697,"x_min":75,"x_max":1528,"o":"m 75 0 l 861 972 l 1528 972 l 1528 835 l 968 835 l 968 554 l 1465 554 l 1465 417 l 968 417 l 968 138 l 1528 138 l 1528 0 l 822 0 l 822 213 l 389 213 l 500 350 l 822 350 l 822 789 l 861 774 l 242 0 l 75 0 z "},"Ǽ":{"ha":1697,"x_min":75,"x_max":1528,"o":"m 75 0 l 861 972 l 1528 972 l 1528 835 l 968 835 l 968 554 l 1465 554 l 1465 417 l 968 417 l 968 138 l 1528 138 l 1528 0 l 822 0 l 822 213 l 389 213 l 500 350 l 822 350 l 822 789 l 861 774 l 242 0 l 75 0 m 1026 1049 l 988 1121 l 1242 1278 l 1307 1153 l 1026 1049 z "},"B":{"ha":1190,"x_min":201,"x_max":1061,"o":"m 201 0 l 201 972 l 676 972 q 860 944 786 972 q 972 861 935 915 q 1010 728 1010 807 q 962 594 1010 650 q 824 515 914 539 l 829 543 q 946 497 893 529 q 1030 411 999 464 q 1061 286 1061 358 q 1033 153 1061 208 q 954 65 1004 99 q 840 16 904 32 q 703 0 775 0 l 201 0 m 351 144 l 703 144 q 811 160 765 144 q 883 209 857 176 q 908 289 908 242 q 878 369 908 339 q 799 415 847 400 q 696 429 750 429 l 351 429 l 351 144 m 351 574 l 689 574 q 774 590 735 574 q 835 635 813 606 q 857 703 857 664 q 806 797 857 767 q 672 828 754 828 l 351 828 l 351 574 z "},"C":{"ha":1178,"x_min":129,"x_max":1058,"o":"m 647 -14 q 443 22 538 -14 q 278 124 349 57 q 168 283 207 190 q 129 486 129 375 q 171 682 129 592 q 285 840 213 772 q 451 944 357 907 q 653 981 546 981 q 815 958 736 981 q 956 897 893 935 q 1058 815 1019 860 l 964 699 q 868 770 918 740 q 763 816 818 800 q 644 832 707 832 q 508 807 574 832 q 392 737 443 782 q 312 628 342 692 q 282 486 282 564 q 312 338 282 403 q 395 227 342 272 q 517 158 449 182 q 664 135 586 135 q 788 152 732 135 q 889 198 843 169 q 972 257 935 226 l 1046 133 q 948 65 1010 99 q 809 8 886 31 q 647 -14 732 -14 z "},"Ć":{"ha":1178,"x_min":129,"x_max":1058,"o":"m 647 -14 q 443 22 538 -14 q 278 124 349 57 q 168 283 207 190 q 129 486 129 375 q 171 682 129 592 q 285 840 213 772 q 451 944 357 907 q 653 981 546 981 q 815 958 736 981 q 956 897 893 935 q 1058 815 1019 860 l 964 699 q 868 770 918 740 q 763 816 818 800 q 644 832 707 832 q 508 807 574 832 q 392 737 443 782 q 312 628 342 692 q 282 486 282 564 q 312 338 282 403 q 395 227 342 272 q 517 158 449 182 q 664 135 586 135 q 788 152 732 135 q 889 198 843 169 q 972 257 935 226 l 1046 133 q 948 65 1010 99 q 809 8 886 31 q 647 -14 732 -14 m 550 1049 l 511 1121 l 765 1278 l 831 1153 l 550 1049 z "},"Č":{"ha":1178,"x_min":129,"x_max":1058,"o":"m 647 -14 q 443 22 538 -14 q 278 124 349 57 q 168 283 207 190 q 129 486 129 375 q 171 682 129 592 q 285 840 213 772 q 451 944 357 907 q 653 981 546 981 q 815 958 736 981 q 956 897 893 935 q 1058 815 1019 860 l 964 699 q 868 770 918 740 q 763 816 818 800 q 644 832 707 832 q 508 807 574 832 q 392 737 443 782 q 312 628 342 692 q 282 486 282 564 q 312 338 282 403 q 395 227 342 272 q 517 158 449 182 q 664 135 586 135 q 788 152 732 135 q 889 198 843 169 q 972 257 935 226 l 1046 133 q 948 65 1010 99 q 809 8 886 31 q 647 -14 732 -14 m 593 1051 l 426 1194 l 479 1240 l 674 1153 l 632 1153 l 826 1240 l 879 1194 l 713 1051 l 593 1051 z "},"Ç":{"ha":1178,"x_min":129,"x_max":1058,"o":"m 647 -14 q 443 22 538 -14 q 278 124 349 57 q 168 283 207 190 q 129 486 129 375 q 171 682 129 592 q 285 840 213 772 q 451 944 357 907 q 653 981 546 981 q 815 958 736 981 q 956 897 893 935 q 1058 815 1019 860 l 964 699 q 868 770 918 740 q 763 816 818 800 q 644 832 707 832 q 508 807 574 832 q 392 737 443 782 q 312 628 342 692 q 282 486 282 564 q 312 338 282 403 q 395 227 342 272 q 517 158 449 182 q 664 135 586 135 q 788 152 732 135 q 889 198 843 169 q 972 257 935 226 l 1046 133 q 948 65 1010 99 q 809 8 886 31 q 647 -14 732 -14 m 511 -339 l 501 -269 q 576 -260 539 -268 q 639 -235 614 -251 q 664 -197 664 -218 q 640 -164 664 -176 q 584 -145 615 -151 q 532 -139 553 -139 l 515 -117 l 614 33 l 696 33 l 636 -64 q 735 -108 696 -76 q 775 -193 775 -139 q 751 -258 775 -231 q 687 -305 726 -286 q 601 -332 647 -324 q 511 -339 554 -340 z "},"Ḉ":{"ha":1178,"x_min":129,"x_max":1058,"o":"m 647 -14 q 443 22 538 -14 q 278 124 349 57 q 168 283 207 190 q 129 486 129 375 q 171 682 129 592 q 285 840 213 772 q 451 944 357 907 q 653 981 546 981 q 815 958 736 981 q 956 897 893 935 q 1058 815 1019 860 l 964 699 q 868 770 918 740 q 763 816 818 800 q 644 832 707 832 q 508 807 574 832 q 392 737 443 782 q 312 628 342 692 q 282 486 282 564 q 312 338 282 403 q 395 227 342 272 q 517 158 449 182 q 664 135 586 135 q 788 152 732 135 q 889 198 843 169 q 972 257 935 226 l 1046 133 q 948 65 1010 99 q 809 8 886 31 q 647 -14 732 -14 m 511 -339 l 501 -269 q 576 -260 539 -268 q 639 -235 614 -251 q 664 -197 664 -218 q 640 -164 664 -176 q 584 -145 615 -151 q 532 -139 553 -139 l 515 -117 l 614 33 l 696 33 l 636 -64 q 735 -108 696 -76 q 775 -193 775 -139 q 751 -258 775 -231 q 687 -305 726 -286 q 601 -332 647 -324 q 511 -339 554 -340 m 550 1049 l 511 1121 l 765 1278 l 831 1153 l 550 1049 z "},"Ĉ":{"ha":1178,"x_min":129,"x_max":1058,"o":"m 647 -14 q 443 22 538 -14 q 278 124 349 57 q 168 283 207 190 q 129 486 129 375 q 171 682 129 592 q 285 840 213 772 q 451 944 357 907 q 653 981 546 981 q 815 958 736 981 q 956 897 893 935 q 1058 815 1019 860 l 964 699 q 868 770 918 740 q 763 816 818 800 q 644 832 707 832 q 508 807 574 832 q 392 737 443 782 q 312 628 342 692 q 282 486 282 564 q 312 338 282 403 q 395 227 342 272 q 517 158 449 182 q 664 135 586 135 q 788 152 732 135 q 889 198 843 169 q 972 257 935 226 l 1046 133 q 948 65 1010 99 q 809 8 886 31 q 647 -14 732 -14 m 481 1049 l 429 1097 l 601 1238 l 703 1238 l 875 1097 l 824 1049 l 632 1139 l 672 1139 l 481 1049 z "},"Ċ":{"ha":1178,"x_min":129,"x_max":1058,"o":"m 647 -14 q 443 22 538 -14 q 278 124 349 57 q 168 283 207 190 q 129 486 129 375 q 171 682 129 592 q 285 840 213 772 q 451 944 357 907 q 653 981 546 981 q 815 958 736 981 q 956 897 893 935 q 1058 815 1019 860 l 964 699 q 868 770 918 740 q 763 816 818 800 q 644 832 707 832 q 508 807 574 832 q 392 737 443 782 q 312 628 342 692 q 282 486 282 564 q 312 338 282 403 q 395 227 342 272 q 517 158 449 182 q 664 135 586 135 q 788 152 732 135 q 889 198 843 169 q 972 257 935 226 l 1046 133 q 948 65 1010 99 q 809 8 886 31 q 647 -14 732 -14 m 653 1054 q 581 1079 604 1054 q 557 1144 557 1104 q 581 1207 557 1179 q 653 1235 604 1235 q 725 1210 701 1235 q 749 1144 749 1185 q 725 1082 749 1110 q 653 1054 701 1054 z "},"D":{"ha":1279,"x_min":201,"x_max":1150,"o":"m 201 0 l 201 972 l 644 972 q 859 935 765 972 q 1018 832 953 899 q 1117 677 1083 765 q 1150 486 1150 589 q 1117 293 1150 382 q 1019 139 1083 204 q 860 37 954 74 q 644 0 765 0 l 201 0 m 351 129 l 347 144 l 638 144 q 795 169 728 144 q 906 240 863 194 q 972 349 950 286 q 993 486 993 411 q 972 622 993 560 q 906 730 950 683 q 794 802 861 776 q 638 828 728 828 l 343 828 l 351 840 l 351 129 z "},"Ǳ":{"ha":2307,"x_min":201,"x_max":2196,"o":"m 201 0 l 201 972 l 644 972 q 859 935 765 972 q 1018 832 953 899 q 1117 677 1083 765 q 1150 486 1150 589 q 1117 293 1150 382 q 1019 139 1083 204 q 860 37 954 74 q 644 0 765 0 l 201 0 m 351 129 l 347 144 l 638 144 q 795 169 728 144 q 906 240 863 194 q 972 349 950 286 q 993 486 993 411 q 972 622 993 560 q 906 730 950 683 q 794 802 861 776 q 638 828 728 828 l 343 828 l 351 840 l 351 129 m 1331 0 l 1331 110 l 1975 851 l 2015 826 l 1367 826 l 1367 972 l 2181 972 l 2181 864 l 1538 121 l 1497 146 l 2196 146 l 2196 0 l 1331 0 z "},"Ǆ":{"ha":2307,"x_min":201,"x_max":2196,"o":"m 201 0 l 201 972 l 644 972 q 859 935 765 972 q 1018 832 953 899 q 1117 677 1083 765 q 1150 486 1150 589 q 1117 293 1150 382 q 1019 139 1083 204 q 860 37 954 74 q 644 0 765 0 l 201 0 m 351 129 l 347 144 l 638 144 q 795 169 728 144 q 906 240 863 194 q 972 349 950 286 q 993 486 993 411 q 972 622 993 560 q 906 730 950 683 q 794 802 861 776 q 638 828 728 828 l 343 828 l 351 840 l 351 129 m 1331 0 l 1331 110 l 1975 851 l 2015 826 l 1367 826 l 1367 972 l 2181 972 l 2181 864 l 1538 121 l 1497 146 l 2196 146 l 2196 0 l 1331 0 m 1701 1051 l 1535 1194 l 1588 1240 l 1782 1153 l 1740 1153 l 1935 1240 l 1988 1194 l 1821 1051 l 1701 1051 z "},"Ð":{"ha":1279,"x_min":107,"x_max":1150,"o":"m 107 425 l 107 547 l 588 547 l 588 425 l 107 425 m 201 0 l 201 972 l 644 972 q 859 935 765 972 q 1018 832 953 899 q 1117 677 1083 765 q 1150 486 1150 589 q 1117 293 1150 382 q 1019 139 1083 204 q 860 37 954 74 q 644 0 765 0 l 201 0 m 351 129 l 347 144 l 638 144 q 795 169 728 144 q 906 240 863 194 q 972 349 950 286 q 993 486 993 411 q 972 622 993 560 q 906 730 950 683 q 794 802 861 776 q 638 828 728 828 l 343 828 l 351 840 l 351 129 z "},"Ď":{"ha":1279,"x_min":201,"x_max":1150,"o":"m 201 0 l 201 972 l 644 972 q 859 935 765 972 q 1018 832 953 899 q 1117 677 1083 765 q 1150 486 1150 589 q 1117 293 1150 382 q 1019 139 1083 204 q 860 37 954 74 q 644 0 765 0 l 201 0 m 351 129 l 347 144 l 638 144 q 795 169 728 144 q 906 240 863 194 q 972 349 950 286 q 993 486 993 411 q 972 622 993 560 q 906 730 950 683 q 794 802 861 776 q 638 828 728 828 l 343 828 l 351 840 l 351 129 m 582 1051 l 415 1194 l 468 1240 l 663 1153 l 621 1153 l 815 1240 l 868 1194 l 701 1051 l 582 1051 z "},"Đ":{"ha":1279,"x_min":107,"x_max":1150,"o":"m 107 425 l 107 547 l 588 547 l 588 425 l 107 425 m 201 0 l 201 972 l 644 972 q 859 935 765 972 q 1018 832 953 899 q 1117 677 1083 765 q 1150 486 1150 589 q 1117 293 1150 382 q 1019 139 1083 204 q 860 37 954 74 q 644 0 765 0 l 201 0 m 351 129 l 347 144 l 638 144 q 795 169 728 144 q 906 240 863 194 q 972 349 950 286 q 993 486 993 411 q 972 622 993 560 q 906 730 950 683 q 794 802 861 776 q 638 828 728 828 l 343 828 l 351 840 l 351 129 z "},"Ḍ":{"ha":1279,"x_min":201,"x_max":1150,"o":"m 201 0 l 201 972 l 644 972 q 859 935 765 972 q 1018 832 953 899 q 1117 677 1083 765 q 1150 486 1150 589 q 1117 293 1150 382 q 1019 139 1083 204 q 860 37 954 74 q 644 0 765 0 l 201 0 m 351 129 l 347 144 l 638 144 q 795 169 728 144 q 906 240 863 194 q 972 349 950 286 q 993 486 993 411 q 972 622 993 560 q 906 730 950 683 q 794 802 861 776 q 638 828 728 828 l 343 828 l 351 840 l 351 129 m 642 -286 q 570 -262 594 -286 q 546 -196 546 -237 q 570 -132 546 -158 q 642 -106 594 -106 q 713 -130 689 -106 q 738 -196 738 -154 q 713 -260 738 -233 q 642 -286 689 -286 z "},"Ḏ":{"ha":1279,"x_min":201,"x_max":1150,"o":"m 201 0 l 201 972 l 644 972 q 859 935 765 972 q 1018 832 953 899 q 1117 677 1083 765 q 1150 486 1150 589 q 1117 293 1150 382 q 1019 139 1083 204 q 860 37 954 74 q 644 0 765 0 l 201 0 m 351 129 l 347 144 l 638 144 q 795 169 728 144 q 906 240 863 194 q 972 349 950 286 q 993 486 993 411 q 972 622 993 560 q 906 730 950 683 q 794 802 861 776 q 638 828 728 828 l 343 828 l 351 840 l 351 129 m 446 -247 l 446 -144 l 836 -144 l 836 -247 l 446 -247 z "},"ǲ":{"ha":2140,"x_min":201,"x_max":2035,"o":"m 201 0 l 201 972 l 644 972 q 859 935 765 972 q 1018 832 953 899 q 1117 677 1083 765 q 1150 486 1150 589 q 1117 293 1150 382 q 1019 139 1083 204 q 860 37 954 74 q 644 0 765 0 l 201 0 m 351 129 l 347 144 l 638 144 q 795 169 728 144 q 906 240 863 194 q 972 349 950 286 q 993 486 993 411 q 972 622 993 560 q 906 730 950 683 q 794 802 861 776 q 638 828 728 828 l 343 828 l 351 840 l 351 129 m 1386 0 l 1386 119 l 1865 622 l 1879 608 l 1386 608 l 1386 729 l 2026 729 l 2026 613 l 1551 117 l 1533 121 l 2035 121 l 2035 0 l 1386 0 z "},"ǅ":{"ha":2140,"x_min":201,"x_max":2035,"o":"m 201 0 l 201 972 l 644 972 q 859 935 765 972 q 1018 832 953 899 q 1117 677 1083 765 q 1150 486 1150 589 q 1117 293 1150 382 q 1019 139 1083 204 q 860 37 954 74 q 644 0 765 0 l 201 0 m 351 129 l 347 144 l 638 144 q 795 169 728 144 q 906 240 863 194 q 972 349 950 286 q 993 486 993 411 q 972 622 993 560 q 906 730 950 683 q 794 802 861 776 q 638 828 728 828 l 343 828 l 351 840 l 351 129 m 1386 0 l 1386 119 l 1865 622 l 1879 608 l 1386 608 l 1386 729 l 2026 729 l 2026 613 l 1551 117 l 1533 121 l 2035 121 l 2035 0 l 1386 0 m 1647 843 l 1501 1000 l 1554 1046 l 1728 944 l 1686 944 l 1860 1046 l 1913 1000 l 1767 843 l 1647 843 z "},"E":{"ha":1093,"x_min":201,"x_max":922,"o":"m 201 0 l 201 972 l 922 972 l 922 828 l 351 828 l 351 144 l 922 144 l 922 0 l 201 0 m 278 426 l 278 571 l 846 571 l 846 426 l 278 426 z "},"É":{"ha":1093,"x_min":201,"x_max":922,"o":"m 201 0 l 201 972 l 922 972 l 922 828 l 351 828 l 351 144 l 922 144 l 922 0 l 201 0 m 278 426 l 278 571 l 846 571 l 846 426 l 278 426 m 472 1049 l 433 1121 l 688 1278 l 753 1153 l 472 1049 z "},"Ĕ":{"ha":1093,"x_min":201,"x_max":922,"o":"m 201 0 l 201 972 l 922 972 l 922 828 l 351 828 l 351 144 l 922 144 l 922 0 l 201 0 m 278 426 l 278 571 l 846 571 l 846 426 l 278 426 m 574 1043 q 470 1069 517 1043 q 392 1137 424 1094 q 349 1229 361 1179 l 451 1246 q 499 1183 467 1211 q 574 1156 531 1156 q 649 1183 617 1156 q 696 1246 681 1211 l 799 1229 q 756 1137 788 1179 q 678 1069 724 1094 q 574 1043 632 1043 z "},"Ě":{"ha":1093,"x_min":201,"x_max":922,"o":"m 201 0 l 201 972 l 922 972 l 922 828 l 351 828 l 351 144 l 922 144 l 922 0 l 201 0 m 278 426 l 278 571 l 846 571 l 846 426 l 278 426 m 514 1051 l 347 1194 l 400 1240 l 594 1153 l 553 1153 l 747 1240 l 800 1194 l 633 1051 l 514 1051 z "},"Ḝ":{"ha":1093,"x_min":201,"x_max":922,"o":"m 201 0 l 201 972 l 922 972 l 922 828 l 351 828 l 351 144 l 922 144 l 922 0 l 201 0 m 278 426 l 278 571 l 846 571 l 846 426 l 278 426 m 419 -339 l 410 -269 q 485 -260 447 -268 q 547 -235 522 -251 q 572 -197 572 -218 q 548 -164 572 -176 q 492 -145 524 -151 q 440 -139 461 -139 l 424 -117 l 522 33 l 604 33 l 544 -64 q 644 -108 604 -76 q 683 -193 683 -139 q 659 -258 683 -231 q 595 -305 635 -286 q 509 -332 556 -324 q 419 -339 463 -340 m 574 1043 q 470 1069 517 1043 q 392 1137 424 1094 q 349 1229 361 1179 l 451 1246 q 499 1183 467 1211 q 574 1156 531 1156 q 649 1183 617 1156 q 696 1246 681 1211 l 799 1229 q 756 1137 788 1179 q 678 1069 724 1094 q 574 1043 632 1043 z "},"Ê":{"ha":1093,"x_min":201,"x_max":922,"o":"m 201 0 l 201 972 l 922 972 l 922 828 l 351 828 l 351 144 l 922 144 l 922 0 l 201 0 m 278 426 l 278 571 l 846 571 l 846 426 l 278 426 m 401 1049 l 350 1097 l 522 1238 l 624 1238 l 796 1097 l 744 1049 l 553 1139 l 593 1139 l 401 1049 z "},"Ế":{"ha":1093,"x_min":201,"x_max":961,"o":"m 201 0 l 201 972 l 922 972 l 922 828 l 351 828 l 351 144 l 922 144 l 922 0 l 201 0 m 278 426 l 278 571 l 846 571 l 846 426 l 278 426 m 401 1049 l 356 1099 l 522 1235 l 624 1235 l 790 1099 l 744 1049 l 553 1136 l 593 1136 l 401 1049 m 799 1200 l 726 1250 l 840 1453 l 961 1367 l 799 1200 z "},"Ệ":{"ha":1093,"x_min":201,"x_max":922,"o":"m 201 0 l 201 972 l 922 972 l 922 828 l 351 828 l 351 144 l 922 144 l 922 0 l 201 0 m 278 426 l 278 571 l 846 571 l 846 426 l 278 426 m 546 -286 q 474 -262 499 -286 q 450 -196 450 -237 q 474 -132 450 -158 q 546 -106 499 -106 q 617 -130 593 -106 q 642 -196 642 -154 q 617 -260 642 -233 q 546 -286 593 -286 m 401 1049 l 350 1097 l 522 1238 l 624 1238 l 796 1097 l 744 1049 l 553 1139 l 593 1139 l 401 1049 z "},"Ề":{"ha":1093,"x_min":201,"x_max":922,"o":"m 201 0 l 201 972 l 922 972 l 922 828 l 351 828 l 351 144 l 922 144 l 922 0 l 201 0 m 278 426 l 278 571 l 846 571 l 846 426 l 278 426 m 401 1049 l 356 1099 l 522 1235 l 624 1235 l 790 1099 l 744 1049 l 553 1136 l 593 1136 l 401 1049 m 803 1201 l 635 1369 l 754 1457 l 869 1254 l 803 1201 z "},"Ể":{"ha":1093,"x_min":201,"x_max":926,"o":"m 201 0 l 201 972 l 922 972 l 922 828 l 351 828 l 351 144 l 922 144 l 922 0 l 201 0 m 278 426 l 278 571 l 846 571 l 846 426 l 278 426 m 401 1049 l 356 1099 l 522 1235 l 624 1235 l 790 1099 l 744 1049 l 553 1136 l 593 1136 l 401 1049 m 760 1199 q 745 1222 751 1210 q 739 1247 739 1235 q 745 1272 739 1260 q 776 1301 751 1285 q 808 1324 797 1315 q 818 1338 818 1332 q 806 1356 818 1350 q 776 1361 794 1361 q 728 1354 754 1361 q 678 1336 701 1347 l 656 1424 q 718 1449 685 1440 q 779 1457 751 1457 q 890 1426 853 1457 q 926 1350 926 1394 q 909 1303 926 1321 q 875 1275 892 1286 q 838 1250 849 1260 q 826 1232 826 1240 q 828 1224 826 1228 q 831 1217 829 1221 l 760 1199 z "},"Ễ":{"ha":1093,"x_min":201,"x_max":922,"o":"m 201 0 l 201 972 l 922 972 l 922 828 l 351 828 l 351 144 l 922 144 l 922 0 l 201 0 m 278 426 l 278 571 l 846 571 l 846 426 l 278 426 m 401 1049 l 356 1099 l 522 1235 l 624 1235 l 790 1099 l 744 1049 l 553 1136 l 593 1136 l 401 1049 m 681 1301 q 619 1311 647 1301 q 567 1331 590 1321 q 525 1349 542 1342 q 494 1356 508 1356 q 463 1342 476 1356 q 443 1304 449 1328 l 349 1318 q 390 1417 351 1375 q 485 1460 429 1460 q 538 1450 514 1460 q 588 1429 563 1440 q 624 1413 606 1421 q 657 1406 643 1406 q 687 1419 676 1406 q 703 1458 697 1432 l 797 1444 q 782 1373 796 1406 q 743 1321 768 1340 q 681 1301 718 1301 z "},"Ȅ":{"ha":1093,"x_min":201,"x_max":922,"o":"m 201 0 l 201 972 l 922 972 l 922 828 l 351 828 l 351 144 l 922 144 l 922 0 l 201 0 m 278 426 l 278 571 l 846 571 l 846 426 l 278 426 m 718 1042 l 489 1193 l 589 1299 l 771 1108 l 718 1042 m 442 1042 l 213 1193 l 313 1299 l 494 1108 l 442 1042 z "},"Ë":{"ha":1093,"x_min":201,"x_max":922,"o":"m 201 0 l 201 972 l 922 972 l 922 828 l 351 828 l 351 144 l 922 144 l 922 0 l 201 0 m 278 426 l 278 571 l 846 571 l 846 426 l 278 426 m 717 1054 q 644 1079 668 1054 q 621 1144 621 1104 q 644 1207 621 1179 q 717 1235 668 1235 q 789 1210 765 1235 q 813 1144 813 1185 q 789 1082 813 1110 q 717 1054 765 1054 m 431 1054 q 358 1079 382 1054 q 335 1144 335 1104 q 358 1207 335 1179 q 431 1235 382 1235 q 503 1210 479 1235 q 526 1144 526 1185 q 503 1082 526 1110 q 431 1054 479 1054 z "},"Ė":{"ha":1093,"x_min":201,"x_max":922,"o":"m 201 0 l 201 972 l 922 972 l 922 828 l 351 828 l 351 144 l 922 144 l 922 0 l 201 0 m 278 426 l 278 571 l 846 571 l 846 426 l 278 426 m 574 1054 q 501 1079 525 1054 q 478 1144 478 1104 q 501 1207 478 1179 q 574 1235 525 1235 q 646 1210 622 1235 q 669 1144 669 1185 q 646 1082 669 1110 q 574 1054 622 1054 z "},"Ẹ":{"ha":1093,"x_min":201,"x_max":922,"o":"m 201 0 l 201 972 l 922 972 l 922 828 l 351 828 l 351 144 l 922 144 l 922 0 l 201 0 m 278 426 l 278 571 l 846 571 l 846 426 l 278 426 m 546 -286 q 474 -262 499 -286 q 450 -196 450 -237 q 474 -132 450 -158 q 546 -106 499 -106 q 617 -130 593 -106 q 642 -196 642 -154 q 617 -260 642 -233 q 546 -286 593 -286 z "},"È":{"ha":1093,"x_min":201,"x_max":922,"o":"m 201 0 l 201 972 l 922 972 l 922 828 l 351 828 l 351 144 l 922 144 l 922 0 l 201 0 m 278 426 l 278 571 l 846 571 l 846 426 l 278 426 m 688 1049 l 407 1153 l 475 1278 l 729 1121 l 688 1049 z "},"Ẻ":{"ha":1093,"x_min":201,"x_max":922,"o":"m 201 0 l 201 972 l 922 972 l 922 828 l 351 828 l 351 144 l 922 144 l 922 0 l 201 0 m 278 426 l 278 571 l 846 571 l 846 426 l 278 426 m 542 1053 q 526 1080 532 1067 q 521 1106 521 1093 q 528 1133 521 1118 q 558 1164 536 1149 q 591 1188 582 1179 q 600 1206 600 1196 q 588 1224 600 1218 q 558 1229 576 1229 q 510 1222 536 1229 q 460 1204 483 1215 l 438 1292 q 500 1317 467 1308 q 561 1325 533 1325 q 672 1294 635 1325 q 708 1218 708 1263 q 692 1163 708 1183 q 657 1133 676 1143 q 620 1112 632 1121 q 608 1089 608 1103 q 610 1079 608 1083 q 613 1071 611 1075 l 542 1053 z "},"Ȇ":{"ha":1093,"x_min":201,"x_max":922,"o":"m 201 0 l 201 972 l 922 972 l 922 828 l 351 828 l 351 144 l 922 144 l 922 0 l 201 0 m 278 426 l 278 571 l 846 571 l 846 426 l 278 426 m 451 1043 l 349 1060 q 392 1152 361 1110 q 470 1220 424 1194 q 574 1246 517 1246 q 678 1220 632 1246 q 756 1152 724 1194 q 799 1060 788 1110 l 696 1043 q 649 1106 681 1078 q 574 1133 617 1133 q 499 1106 531 1133 q 451 1043 467 1078 z "},"Ē":{"ha":1093,"x_min":201,"x_max":922,"o":"m 201 0 l 201 972 l 922 972 l 922 828 l 351 828 l 351 144 l 922 144 l 922 0 l 201 0 m 278 426 l 278 571 l 846 571 l 846 426 l 278 426 m 343 1093 l 343 1197 l 803 1197 l 803 1093 l 343 1093 z "},"Ḗ":{"ha":1093,"x_min":201,"x_max":922,"o":"m 201 0 l 201 972 l 922 972 l 922 828 l 351 828 l 351 144 l 922 144 l 922 0 l 201 0 m 278 426 l 278 571 l 846 571 l 846 426 l 278 426 m 343 1093 l 343 1197 l 803 1197 l 803 1093 l 343 1093 m 472 1257 l 433 1329 l 688 1486 l 753 1361 l 472 1257 z "},"Ḕ":{"ha":1093,"x_min":201,"x_max":922,"o":"m 201 0 l 201 972 l 922 972 l 922 828 l 351 828 l 351 144 l 922 144 l 922 0 l 201 0 m 278 426 l 278 571 l 846 571 l 846 426 l 278 426 m 343 1093 l 343 1197 l 803 1197 l 803 1093 l 343 1093 m 688 1257 l 407 1361 l 475 1486 l 729 1329 l 688 1257 z "},"Ę":{"ha":1093,"x_min":201,"x_max":922,"o":"m 201 0 l 201 972 l 922 972 l 922 828 l 351 828 l 351 144 l 922 144 l 922 0 l 201 0 m 278 426 l 278 571 l 846 571 l 846 426 l 278 426 m 757 -278 q 681 -259 715 -278 q 626 -208 646 -240 q 606 -136 606 -175 q 622 -65 606 -97 q 669 -8 639 -33 q 738 37 700 18 q 819 67 776 56 l 874 0 q 799 -30 832 -11 q 749 -71 767 -49 q 732 -121 732 -93 q 744 -157 732 -143 q 779 -171 757 -171 q 808 -160 796 -171 q 831 -136 821 -150 l 908 -192 q 853 -250 896 -222 q 757 -278 811 -278 z "},"Ẽ":{"ha":1093,"x_min":201,"x_max":922,"o":"m 201 0 l 201 972 l 922 972 l 922 828 l 351 828 l 351 144 l 922 144 l 922 0 l 201 0 m 278 426 l 278 571 l 846 571 l 846 426 l 278 426 m 676 1067 q 612 1077 644 1067 q 550 1099 579 1088 q 510 1114 526 1108 q 479 1119 493 1119 q 449 1106 461 1119 q 438 1067 438 1092 l 331 1067 q 379 1183 331 1142 q 489 1224 428 1224 q 546 1214 518 1224 q 600 1193 574 1204 q 638 1179 619 1185 q 669 1174 657 1174 q 700 1188 689 1174 q 710 1224 711 1201 l 815 1224 q 799 1147 815 1183 q 751 1089 782 1111 q 676 1067 719 1067 z "},"F":{"ha":1065,"x_min":201,"x_max":925,"o":"m 201 0 l 201 972 l 351 972 l 351 0 l 201 0 m 258 406 l 258 550 l 863 550 l 863 406 l 258 406 m 269 828 l 269 972 l 925 972 l 925 828 l 269 828 z "},"G":{"ha":1310,"x_min":129,"x_max":1190,"o":"m 674 -14 q 465 21 564 -14 q 290 120 365 56 q 172 278 215 185 q 129 486 129 371 q 172 681 129 590 q 290 838 214 771 q 468 943 367 906 q 686 981 569 981 q 859 958 778 981 q 1003 899 940 936 q 1104 815 1067 861 l 1007 710 q 910 776 961 749 q 802 819 858 804 q 686 835 746 835 q 528 808 601 835 q 401 735 456 782 q 316 624 346 688 q 286 486 286 561 q 318 337 286 403 q 406 225 350 271 q 533 156 461 179 q 683 132 604 132 q 817 148 754 132 q 928 194 881 164 q 1001 263 975 224 q 1026 347 1028 301 l 1025 369 l 1047 344 l 683 344 l 683 490 l 1183 490 q 1188 459 1186 472 q 1190 436 1189 446 q 1190 418 1190 426 q 1152 235 1190 315 q 1044 99 1114 154 q 881 15 975 44 q 674 -14 788 -14 z "},"Ğ":{"ha":1310,"x_min":129,"x_max":1190,"o":"m 674 -14 q 465 21 564 -14 q 290 120 365 56 q 172 278 215 185 q 129 486 129 371 q 172 681 129 590 q 290 838 214 771 q 468 943 367 906 q 686 981 569 981 q 859 958 778 981 q 1003 899 940 936 q 1104 815 1067 861 l 1007 710 q 910 776 961 749 q 802 819 858 804 q 686 835 746 835 q 528 808 601 835 q 401 735 456 782 q 316 624 346 688 q 286 486 286 561 q 318 337 286 403 q 406 225 350 271 q 533 156 461 179 q 683 132 604 132 q 817 148 754 132 q 928 194 881 164 q 1001 263 975 224 q 1026 347 1028 301 l 1025 369 l 1047 344 l 683 344 l 683 490 l 1183 490 q 1188 459 1186 472 q 1190 436 1189 446 q 1190 418 1190 426 q 1152 235 1190 315 q 1044 99 1114 154 q 881 15 975 44 q 674 -14 788 -14 m 681 1043 q 577 1069 624 1043 q 499 1137 531 1094 q 456 1229 468 1179 l 558 1246 q 606 1183 574 1211 q 681 1156 638 1156 q 756 1183 724 1156 q 803 1246 788 1211 l 906 1229 q 863 1137 894 1179 q 785 1069 831 1094 q 681 1043 739 1043 z "},"Ǧ":{"ha":1310,"x_min":129,"x_max":1190,"o":"m 674 -14 q 465 21 564 -14 q 290 120 365 56 q 172 278 215 185 q 129 486 129 371 q 172 681 129 590 q 290 838 214 771 q 468 943 367 906 q 686 981 569 981 q 859 958 778 981 q 1003 899 940 936 q 1104 815 1067 861 l 1007 710 q 910 776 961 749 q 802 819 858 804 q 686 835 746 835 q 528 808 601 835 q 401 735 456 782 q 316 624 346 688 q 286 486 286 561 q 318 337 286 403 q 406 225 350 271 q 533 156 461 179 q 683 132 604 132 q 817 148 754 132 q 928 194 881 164 q 1001 263 975 224 q 1026 347 1028 301 l 1025 369 l 1047 344 l 683 344 l 683 490 l 1183 490 q 1188 459 1186 472 q 1190 436 1189 446 q 1190 418 1190 426 q 1152 235 1190 315 q 1044 99 1114 154 q 881 15 975 44 q 674 -14 788 -14 m 621 1051 l 454 1194 l 507 1240 l 701 1153 l 660 1153 l 854 1240 l 907 1194 l 740 1051 l 621 1051 z "},"Ĝ":{"ha":1310,"x_min":129,"x_max":1190,"o":"m 674 -14 q 465 21 564 -14 q 290 120 365 56 q 172 278 215 185 q 129 486 129 371 q 172 681 129 590 q 290 838 214 771 q 468 943 367 906 q 686 981 569 981 q 859 958 778 981 q 1003 899 940 936 q 1104 815 1067 861 l 1007 710 q 910 776 961 749 q 802 819 858 804 q 686 835 746 835 q 528 808 601 835 q 401 735 456 782 q 316 624 346 688 q 286 486 286 561 q 318 337 286 403 q 406 225 350 271 q 533 156 461 179 q 683 132 604 132 q 817 148 754 132 q 928 194 881 164 q 1001 263 975 224 q 1026 347 1028 301 l 1025 369 l 1047 344 l 683 344 l 683 490 l 1183 490 q 1188 459 1186 472 q 1190 436 1189 446 q 1190 418 1190 426 q 1152 235 1190 315 q 1044 99 1114 154 q 881 15 975 44 q 674 -14 788 -14 m 508 1049 l 457 1097 l 629 1238 l 731 1238 l 903 1097 l 851 1049 l 660 1139 l 700 1139 l 508 1049 z "},"Ģ":{"ha":1310,"x_min":129,"x_max":1190,"o":"m 674 -14 q 465 21 564 -14 q 290 120 365 56 q 172 278 215 185 q 129 486 129 371 q 172 681 129 590 q 290 838 214 771 q 468 943 367 906 q 686 981 569 981 q 859 958 778 981 q 1003 899 940 936 q 1104 815 1067 861 l 1007 710 q 910 776 961 749 q 802 819 858 804 q 686 835 746 835 q 528 808 601 835 q 401 735 456 782 q 316 624 346 688 q 286 486 286 561 q 318 337 286 403 q 406 225 350 271 q 533 156 461 179 q 683 132 604 132 q 817 148 754 132 q 928 194 881 164 q 1001 263 975 224 q 1026 347 1028 301 l 1025 369 l 1047 344 l 683 344 l 683 490 l 1183 490 q 1188 459 1186 472 q 1190 436 1189 446 q 1190 418 1190 426 q 1152 235 1190 315 q 1044 99 1114 154 q 881 15 975 44 q 674 -14 788 -14 m 588 -337 l 554 -279 q 590 -263 574 -275 q 618 -236 607 -251 q 629 -207 629 -221 q 622 -191 629 -196 q 601 -182 615 -186 q 572 -167 583 -178 q 561 -131 561 -156 q 587 -81 561 -99 q 651 -62 613 -62 q 726 -90 693 -62 q 760 -169 760 -117 q 743 -228 760 -201 q 701 -276 726 -256 q 645 -312 675 -297 q 588 -337 615 -328 z "},"Ġ":{"ha":1310,"x_min":129,"x_max":1190,"o":"m 674 -14 q 465 21 564 -14 q 290 120 365 56 q 172 278 215 185 q 129 486 129 371 q 172 681 129 590 q 290 838 214 771 q 468 943 367 906 q 686 981 569 981 q 859 958 778 981 q 1003 899 940 936 q 1104 815 1067 861 l 1007 710 q 910 776 961 749 q 802 819 858 804 q 686 835 746 835 q 528 808 601 835 q 401 735 456 782 q 316 624 346 688 q 286 486 286 561 q 318 337 286 403 q 406 225 350 271 q 533 156 461 179 q 683 132 604 132 q 817 148 754 132 q 928 194 881 164 q 1001 263 975 224 q 1026 347 1028 301 l 1025 369 l 1047 344 l 683 344 l 683 490 l 1183 490 q 1188 459 1186 472 q 1190 436 1189 446 q 1190 418 1190 426 q 1152 235 1190 315 q 1044 99 1114 154 q 881 15 975 44 q 674 -14 788 -14 m 681 1054 q 608 1079 632 1054 q 585 1144 585 1104 q 608 1207 585 1179 q 681 1235 632 1235 q 753 1210 729 1235 q 776 1144 776 1185 q 753 1082 776 1110 q 681 1054 729 1054 z "},"Ḡ":{"ha":1310,"x_min":129,"x_max":1190,"o":"m 674 -14 q 465 21 564 -14 q 290 120 365 56 q 172 278 215 185 q 129 486 129 371 q 172 681 129 590 q 290 838 214 771 q 468 943 367 906 q 686 981 569 981 q 859 958 778 981 q 1003 899 940 936 q 1104 815 1067 861 l 1007 710 q 910 776 961 749 q 802 819 858 804 q 686 835 746 835 q 528 808 601 835 q 401 735 456 782 q 316 624 346 688 q 286 486 286 561 q 318 337 286 403 q 406 225 350 271 q 533 156 461 179 q 683 132 604 132 q 817 148 754 132 q 928 194 881 164 q 1001 263 975 224 q 1026 347 1028 301 l 1025 369 l 1047 344 l 683 344 l 683 490 l 1183 490 q 1188 459 1186 472 q 1190 436 1189 446 q 1190 418 1190 426 q 1152 235 1190 315 q 1044 99 1114 154 q 881 15 975 44 q 674 -14 788 -14 m 450 1093 l 450 1197 l 910 1197 l 910 1093 l 450 1093 z "},"H":{"ha":1296,"x_min":201,"x_max":1094,"o":"m 944 0 l 944 972 l 1094 972 l 1094 0 l 944 0 m 201 0 l 201 972 l 351 972 l 351 0 l 201 0 m 267 410 l 268 554 l 1011 554 l 1011 410 l 267 410 z "},"Ħ":{"ha":1526,"x_min":147,"x_max":1379,"o":"m 147 650 l 147 794 l 340 794 l 404 781 l 1115 781 l 1165 794 l 1379 794 l 1379 650 l 1167 650 l 1132 664 l 390 664 l 333 650 l 147 650 m 1060 0 l 1060 972 l 1210 972 l 1210 0 l 1060 0 m 317 0 l 317 972 l 467 972 l 467 0 l 317 0 m 382 410 l 382 554 l 1126 554 l 1126 410 l 382 410 z "},"Ḫ":{"ha":1296,"x_min":201,"x_max":1094,"o":"m 944 0 l 944 972 l 1094 972 l 1094 0 l 944 0 m 201 0 l 201 972 l 351 972 l 351 0 l 201 0 m 267 410 l 268 554 l 1011 554 l 1011 410 l 267 410 m 649 -325 q 502 -267 563 -325 q 424 -111 442 -208 l 526 -94 q 576 -178 543 -143 q 649 -212 608 -212 q 722 -178 689 -212 q 771 -94 754 -143 l 874 -111 q 795 -267 856 -208 q 649 -325 735 -325 z "},"Ĥ":{"ha":1296,"x_min":201,"x_max":1094,"o":"m 944 0 l 944 972 l 1094 972 l 1094 0 l 944 0 m 201 0 l 201 972 l 351 972 l 351 0 l 201 0 m 267 410 l 268 554 l 1011 554 l 1011 410 l 267 410 m 476 1049 l 425 1097 l 597 1238 l 699 1238 l 871 1097 l 819 1049 l 628 1139 l 668 1139 l 476 1049 z "},"Ḥ":{"ha":1296,"x_min":201,"x_max":1094,"o":"m 944 0 l 944 972 l 1094 972 l 1094 0 l 944 0 m 201 0 l 201 972 l 351 972 l 351 0 l 201 0 m 267 410 l 268 554 l 1011 554 l 1011 410 l 267 410 m 649 -286 q 577 -262 601 -286 q 553 -196 553 -237 q 577 -132 553 -158 q 649 -106 601 -106 q 720 -130 696 -106 q 744 -196 744 -154 q 720 -260 744 -233 q 649 -286 696 -286 z "},"I":{"ha":957,"x_min":192,"x_max":764,"o":"m 192 0 l 192 144 l 403 144 l 403 828 l 192 828 l 192 972 l 764 972 l 764 828 l 553 828 l 553 144 l 764 144 l 764 0 l 192 0 z "},"Ĳ":{"ha":2033,"x_min":192,"x_max":1964,"o":"m 192 0 l 192 144 l 403 144 l 403 828 l 192 828 l 192 972 l 764 972 l 764 828 l 553 828 l 553 144 l 764 144 l 764 0 l 192 0 m 1425 -14 q 1298 6 1354 -14 q 1199 58 1242 26 q 1128 124 1157 89 q 1085 186 1100 158 l 1182 289 q 1235 221 1210 250 q 1290 171 1261 192 q 1351 139 1318 150 q 1425 128 1383 128 q 1542 158 1493 128 q 1619 241 1592 189 q 1646 357 1646 293 l 1646 828 l 1433 828 l 1433 972 l 1965 972 l 1965 828 l 1796 828 l 1796 343 q 1771 207 1796 271 q 1698 93 1746 143 q 1581 15 1650 43 q 1425 -14 1513 -14 z "},"Í":{"ha":957,"x_min":192,"x_max":764,"o":"m 192 0 l 192 144 l 403 144 l 403 828 l 192 828 l 192 972 l 764 972 l 764 828 l 553 828 l 553 144 l 764 144 l 764 0 l 192 0 m 376 1049 l 338 1121 l 592 1278 l 657 1153 l 376 1049 z "},"Ĭ":{"ha":957,"x_min":192,"x_max":764,"o":"m 192 0 l 192 144 l 403 144 l 403 828 l 192 828 l 192 972 l 764 972 l 764 828 l 553 828 l 553 144 l 764 144 l 764 0 l 192 0 m 478 1043 q 374 1069 421 1043 q 297 1137 328 1094 q 253 1229 265 1179 l 356 1246 q 403 1183 371 1211 q 478 1156 435 1156 q 553 1183 521 1156 q 600 1246 585 1211 l 703 1229 q 660 1137 692 1179 q 582 1069 628 1094 q 478 1043 536 1043 z "},"Ǐ":{"ha":957,"x_min":192,"x_max":764,"o":"m 192 0 l 192 144 l 403 144 l 403 828 l 192 828 l 192 972 l 764 972 l 764 828 l 553 828 l 553 144 l 764 144 l 764 0 l 192 0 m 418 1051 l 251 1194 l 304 1240 l 499 1153 l 457 1153 l 651 1240 l 704 1194 l 538 1051 l 418 1051 z "},"Î":{"ha":957,"x_min":192,"x_max":764,"o":"m 192 0 l 192 144 l 403 144 l 403 828 l 192 828 l 192 972 l 764 972 l 764 828 l 553 828 l 553 144 l 764 144 l 764 0 l 192 0 m 306 1049 l 254 1097 l 426 1238 l 528 1238 l 700 1097 l 649 1049 l 457 1139 l 497 1139 l 306 1049 z "},"Ȉ":{"ha":957,"x_min":117,"x_max":764,"o":"m 192 0 l 192 144 l 403 144 l 403 828 l 192 828 l 192 972 l 764 972 l 764 828 l 553 828 l 553 144 l 764 144 l 764 0 l 192 0 m 622 1042 l 393 1193 l 493 1299 l 675 1108 l 622 1042 m 346 1042 l 117 1193 l 217 1299 l 399 1108 l 346 1042 z "},"Ï":{"ha":957,"x_min":192,"x_max":764,"o":"m 192 0 l 192 144 l 403 144 l 403 828 l 192 828 l 192 972 l 764 972 l 764 828 l 553 828 l 553 144 l 764 144 l 764 0 l 192 0 m 621 1054 q 549 1079 572 1054 q 525 1144 525 1104 q 549 1207 525 1179 q 621 1235 572 1235 q 693 1210 669 1235 q 717 1144 717 1185 q 693 1082 717 1110 q 621 1054 669 1054 m 335 1054 q 263 1079 286 1054 q 239 1144 239 1104 q 263 1207 239 1179 q 335 1235 286 1235 q 407 1210 383 1235 q 431 1144 431 1185 q 407 1082 431 1110 q 335 1054 383 1054 z "},"Ḯ":{"ha":957,"x_min":192,"x_max":764,"o":"m 192 0 l 192 144 l 403 144 l 403 828 l 192 828 l 192 972 l 764 972 l 764 828 l 553 828 l 553 144 l 764 144 l 764 0 l 192 0 m 383 1271 l 344 1343 l 599 1500 l 664 1375 l 383 1271 m 335 1054 q 263 1079 286 1054 q 239 1144 239 1104 q 263 1207 239 1179 q 335 1235 286 1235 q 407 1210 383 1235 q 431 1144 431 1185 q 407 1082 431 1110 q 335 1054 383 1054 m 621 1054 q 549 1079 572 1054 q 525 1144 525 1104 q 549 1207 525 1179 q 621 1235 572 1235 q 693 1210 669 1235 q 717 1144 717 1185 q 693 1082 717 1110 q 621 1054 669 1054 z "},"İ":{"ha":957,"x_min":192,"x_max":764,"o":"m 192 0 l 192 144 l 403 144 l 403 828 l 192 828 l 192 972 l 764 972 l 764 828 l 553 828 l 553 144 l 764 144 l 764 0 l 192 0 m 478 1054 q 406 1079 429 1054 q 382 1144 382 1104 q 406 1207 382 1179 q 478 1235 429 1235 q 550 1210 526 1235 q 574 1144 574 1185 q 550 1082 574 1110 q 478 1054 526 1054 z "},"Ị":{"ha":957,"x_min":192,"x_max":764,"o":"m 192 0 l 192 144 l 403 144 l 403 828 l 192 828 l 192 972 l 764 972 l 764 828 l 553 828 l 553 144 l 764 144 l 764 0 l 192 0 m 478 -286 q 406 -262 431 -286 q 382 -196 382 -237 q 406 -132 382 -158 q 478 -106 431 -106 q 549 -130 525 -106 q 574 -196 574 -154 q 549 -260 574 -233 q 478 -286 525 -286 z "},"Ì":{"ha":957,"x_min":192,"x_max":764,"o":"m 192 0 l 192 144 l 403 144 l 403 828 l 192 828 l 192 972 l 764 972 l 764 828 l 553 828 l 553 144 l 764 144 l 764 0 l 192 0 m 592 1049 l 311 1153 l 379 1278 l 633 1121 l 592 1049 z "},"Ỉ":{"ha":957,"x_min":192,"x_max":764,"o":"m 192 0 l 192 144 l 403 144 l 403 828 l 192 828 l 192 972 l 764 972 l 764 828 l 553 828 l 553 144 l 764 144 l 764 0 l 192 0 m 446 1053 q 431 1080 436 1067 q 425 1106 425 1093 q 433 1133 425 1118 q 463 1164 440 1149 q 495 1188 486 1179 q 504 1206 504 1196 q 492 1224 504 1218 q 463 1229 481 1229 q 414 1222 440 1229 q 364 1204 388 1215 l 342 1292 q 404 1317 371 1308 q 465 1325 438 1325 q 576 1294 539 1325 q 613 1218 613 1263 q 597 1163 613 1183 q 561 1133 581 1143 q 524 1112 536 1121 q 513 1089 513 1103 q 514 1079 513 1083 q 517 1071 515 1075 l 446 1053 z "},"Ȋ":{"ha":957,"x_min":192,"x_max":764,"o":"m 192 0 l 192 144 l 403 144 l 403 828 l 192 828 l 192 972 l 764 972 l 764 828 l 553 828 l 553 144 l 764 144 l 764 0 l 192 0 m 356 1043 l 253 1060 q 297 1152 265 1110 q 374 1220 328 1194 q 478 1246 421 1246 q 582 1220 536 1246 q 660 1152 628 1194 q 703 1060 692 1110 l 600 1043 q 553 1106 585 1078 q 478 1133 521 1133 q 403 1106 435 1133 q 356 1043 371 1078 z "},"Ī":{"ha":957,"x_min":192,"x_max":764,"o":"m 192 0 l 192 144 l 403 144 l 403 828 l 192 828 l 192 972 l 764 972 l 764 828 l 553 828 l 553 144 l 764 144 l 764 0 l 192 0 m 247 1093 l 247 1197 l 707 1197 l 707 1093 l 247 1093 z "},"Į":{"ha":957,"x_min":192,"x_max":764,"o":"m 192 0 l 192 144 l 403 144 l 403 828 l 192 828 l 192 972 l 764 972 l 764 828 l 553 828 l 553 144 l 764 144 l 764 0 l 192 0 m 497 -278 q 421 -259 456 -278 q 366 -208 386 -240 q 346 -136 346 -175 q 363 -65 346 -97 q 410 -8 379 -33 q 478 37 440 18 q 560 67 517 56 l 614 0 q 540 -30 572 -11 q 490 -71 507 -49 q 472 -121 472 -93 q 485 -157 472 -143 q 519 -171 497 -171 q 549 -160 536 -171 q 571 -136 561 -150 l 649 -192 q 594 -250 636 -222 q 497 -278 551 -278 z "},"Ĩ":{"ha":957,"x_min":192,"x_max":764,"o":"m 192 0 l 192 144 l 403 144 l 403 828 l 192 828 l 192 972 l 764 972 l 764 828 l 553 828 l 553 144 l 764 144 l 764 0 l 192 0 m 581 1067 q 516 1077 549 1067 q 454 1099 483 1088 q 414 1114 431 1108 q 383 1119 397 1119 q 353 1106 365 1119 q 342 1067 342 1092 l 235 1067 q 283 1183 235 1142 q 393 1224 332 1224 q 450 1214 422 1224 q 504 1193 478 1204 q 542 1179 524 1185 q 574 1174 561 1174 q 604 1188 593 1174 q 614 1224 615 1201 l 719 1224 q 703 1147 719 1183 q 655 1089 686 1111 q 581 1067 624 1067 z "},"J":{"ha":1078,"x_min":128,"x_max":1008,"o":"m 468 -14 q 341 6 397 -14 q 242 58 285 26 q 172 124 200 89 q 128 186 143 158 l 225 289 q 278 221 253 250 q 333 171 304 192 q 394 139 361 150 q 468 128 426 128 q 585 158 536 128 q 662 241 635 189 q 689 357 689 293 l 689 828 l 476 828 l 476 972 l 1008 972 l 1008 828 l 839 828 l 839 343 q 814 207 839 271 q 741 93 789 143 q 624 15 693 43 q 468 -14 556 -14 z "},"Ĵ":{"ha":1078,"x_min":128,"x_max":1008,"o":"m 468 -14 q 341 6 397 -14 q 242 58 285 26 q 172 124 200 89 q 128 186 143 158 l 225 289 q 278 221 253 250 q 333 171 304 192 q 394 139 361 150 q 468 128 426 128 q 585 158 536 128 q 662 241 635 189 q 689 357 689 293 l 689 828 l 476 828 l 476 972 l 1008 972 l 1008 828 l 839 828 l 839 343 q 814 207 839 271 q 741 93 789 143 q 624 15 693 43 q 468 -14 556 -14 m 582 1049 l 531 1097 l 703 1238 l 804 1238 l 976 1097 l 925 1049 l 733 1139 l 774 1139 l 582 1049 z "},"K":{"ha":1281,"x_min":201,"x_max":1150,"o":"m 317 265 l 313 435 l 939 972 l 1150 972 l 317 265 m 201 0 l 201 972 l 351 972 l 351 0 l 201 0 m 947 0 l 546 514 l 646 622 l 1142 0 l 947 0 z "},"Ķ":{"ha":1281,"x_min":201,"x_max":1150,"o":"m 317 265 l 313 435 l 939 972 l 1150 972 l 317 265 m 201 0 l 201 972 l 351 972 l 351 0 l 201 0 m 947 0 l 546 514 l 646 622 l 1142 0 l 947 0 m 564 -337 l 531 -279 q 567 -263 550 -275 q 594 -236 583 -251 q 606 -207 606 -221 q 599 -191 606 -196 q 578 -182 592 -186 q 549 -167 560 -178 q 538 -131 538 -156 q 563 -81 538 -99 q 628 -62 589 -62 q 703 -90 669 -62 q 736 -169 736 -117 q 719 -228 736 -201 q 677 -276 703 -256 q 622 -312 651 -297 q 564 -337 592 -328 z "},"L":{"ha":1064,"x_min":201,"x_max":915,"o":"m 201 0 l 201 972 l 351 972 l 351 144 l 915 144 l 915 0 l 201 0 z "},"Ǉ":{"ha":2142,"x_min":201,"x_max":2072,"o":"m 201 0 l 201 972 l 351 972 l 351 144 l 915 144 l 915 0 l 201 0 m 1532 -14 q 1405 6 1461 -14 q 1306 58 1349 26 q 1235 124 1264 89 q 1192 186 1207 158 l 1289 289 q 1342 221 1317 250 q 1397 171 1368 192 q 1458 139 1425 150 q 1532 128 1490 128 q 1649 158 1600 128 q 1726 241 1699 189 q 1753 357 1753 293 l 1753 828 l 1540 828 l 1540 972 l 2072 972 l 2072 828 l 1903 828 l 1903 343 q 1878 207 1903 271 q 1805 93 1853 143 q 1688 15 1757 43 q 1532 -14 1619 -14 z "},"Ĺ":{"ha":1064,"x_min":136,"x_max":915,"o":"m 201 0 l 201 972 l 351 972 l 351 144 l 915 144 l 915 0 l 201 0 m 175 1049 l 136 1121 l 390 1278 l 456 1153 l 175 1049 z "},"Ľ":{"ha":1064,"x_min":201,"x_max":915,"o":"m 201 0 l 201 972 l 351 972 l 351 144 l 915 144 l 915 0 l 201 0 m 593 697 l 560 756 q 596 772 579 761 q 624 799 613 783 q 635 828 635 814 q 628 844 635 839 q 607 853 621 849 q 578 869 589 858 q 567 904 567 879 q 592 955 567 938 q 657 972 618 972 q 732 945 699 972 q 765 865 765 918 q 749 808 765 835 q 706 759 732 781 q 651 722 681 738 q 593 697 621 707 z "},"Ļ":{"ha":1064,"x_min":201,"x_max":915,"o":"m 201 0 l 201 972 l 351 972 l 351 144 l 915 144 l 915 0 l 201 0 m 467 -337 l 433 -279 q 469 -263 453 -275 q 497 -236 486 -251 q 508 -207 508 -221 q 501 -191 508 -196 q 481 -182 494 -186 q 451 -167 463 -178 q 440 -131 440 -156 q 466 -81 440 -99 q 531 -62 492 -62 q 606 -90 572 -62 q 639 -169 639 -117 q 622 -228 639 -201 q 580 -276 606 -256 q 524 -312 554 -297 q 467 -337 494 -328 z "},"Ŀ":{"ha":1064,"x_min":201,"x_max":933,"o":"m 201 0 l 201 972 l 351 972 l 351 144 l 915 144 l 915 0 l 201 0 m 811 415 q 718 443 749 415 q 688 519 688 471 q 719 592 688 561 q 811 624 750 624 q 903 596 872 624 q 933 519 933 568 q 902 447 933 478 q 811 415 871 415 z "},"Ḷ":{"ha":1064,"x_min":201,"x_max":915,"o":"m 201 0 l 201 972 l 351 972 l 351 144 l 915 144 l 915 0 l 201 0 m 536 -286 q 465 -262 489 -286 q 440 -196 440 -237 q 465 -132 440 -158 q 536 -106 489 -106 q 608 -130 583 -106 q 632 -196 632 -154 q 608 -260 632 -233 q 536 -286 583 -286 z "},"ǈ":{"ha":1692,"x_min":201,"x_max":1510,"o":"m 201 0 l 201 972 l 351 972 l 351 144 l 915 144 l 915 0 l 201 0 m 1169 -274 l 1115 -154 q 1242 -124 1192 -154 q 1315 -35 1292 -93 q 1339 103 1339 22 l 1339 729 l 1482 729 l 1482 68 q 1442 -112 1482 -36 q 1331 -231 1401 -189 q 1169 -274 1260 -274 m 1414 899 q 1343 922 1368 899 q 1318 989 1318 946 q 1344 1054 1318 1029 q 1414 1079 1369 1079 q 1485 1056 1460 1079 q 1510 989 1510 1032 q 1484 924 1510 949 q 1414 899 1458 899 z "},"Ḻ":{"ha":1064,"x_min":201,"x_max":915,"o":"m 201 0 l 201 972 l 351 972 l 351 144 l 915 144 l 915 0 l 201 0 m 340 -247 l 340 -144 l 731 -144 l 731 -247 l 340 -247 z "},"Ł":{"ha":1111,"x_min":56,"x_max":963,"o":"m 96 332 l 56 447 l 669 697 l 714 575 l 96 332 m 249 0 l 249 972 l 399 972 l 399 144 l 963 144 l 963 0 l 249 0 z "},"M":{"ha":1443,"x_min":201,"x_max":1242,"o":"m 201 0 l 201 972 l 349 972 l 753 411 l 692 413 l 1097 972 l 1242 972 l 1242 0 l 1092 0 l 1092 407 q 1097 627 1092 526 q 1119 831 1103 728 l 1136 775 l 765 279 l 674 279 l 308 774 l 324 831 q 346 631 340 731 q 351 407 351 531 l 351 0 l 201 0 z "},"Ṃ":{"ha":1443,"x_min":201,"x_max":1242,"o":"m 201 0 l 201 972 l 349 972 l 753 411 l 692 413 l 1097 972 l 1242 972 l 1242 0 l 1092 0 l 1092 407 q 1097 627 1092 526 q 1119 831 1103 728 l 1136 775 l 765 279 l 674 279 l 308 774 l 324 831 q 346 631 340 731 q 351 407 351 531 l 351 0 l 201 0 m 721 -286 q 649 -262 674 -286 q 625 -196 625 -237 q 649 -132 625 -158 q 721 -106 674 -106 q 792 -130 768 -106 q 817 -196 817 -154 q 792 -260 817 -233 q 721 -286 768 -286 z "},"N":{"ha":1357,"x_min":201,"x_max":1156,"o":"m 201 0 l 201 972 l 344 972 l 1047 176 l 1033 164 q 1022 247 1026 203 q 1015 341 1018 292 q 1009 442 1011 390 q 1006 547 1007 494 q 1006 653 1006 600 l 1006 972 l 1156 972 l 1156 0 l 1010 0 l 317 767 l 324 786 q 332 690 328 735 q 340 603 336 644 q 346 528 343 563 q 350 462 349 493 q 351 404 351 431 l 351 0 l 201 0 z "},"Ǌ":{"ha":2435,"x_min":201,"x_max":2365,"o":"m 201 0 l 201 972 l 344 972 l 1047 176 l 1033 164 q 1022 247 1026 203 q 1015 341 1018 292 q 1009 442 1011 390 q 1006 547 1007 494 q 1006 653 1006 600 l 1006 972 l 1156 972 l 1156 0 l 1010 0 l 317 767 l 324 786 q 332 690 328 735 q 340 603 336 644 q 346 528 343 563 q 350 462 349 493 q 351 404 351 431 l 351 0 l 201 0 m 1825 -14 q 1698 6 1754 -14 q 1599 58 1642 26 q 1528 124 1557 89 q 1485 186 1500 158 l 1582 289 q 1635 221 1610 250 q 1690 171 1661 192 q 1751 139 1718 150 q 1825 128 1783 128 q 1942 158 1893 128 q 2019 241 1992 189 q 2046 357 2046 293 l 2046 828 l 1833 828 l 1833 972 l 2365 972 l 2365 828 l 2196 828 l 2196 343 q 2171 207 2196 271 q 2098 93 2146 143 q 1981 15 2050 43 q 1825 -14 1913 -14 z "},"Ń":{"ha":1357,"x_min":201,"x_max":1156,"o":"m 201 0 l 201 972 l 344 972 l 1047 176 l 1033 164 q 1022 247 1026 203 q 1015 341 1018 292 q 1009 442 1011 390 q 1006 547 1007 494 q 1006 653 1006 600 l 1006 972 l 1156 972 l 1156 0 l 1010 0 l 317 767 l 324 786 q 332 690 328 735 q 340 603 336 644 q 346 528 343 563 q 350 462 349 493 q 351 404 351 431 l 351 0 l 201 0 m 576 1049 l 538 1121 l 792 1278 l 857 1153 l 576 1049 z "},"Ň":{"ha":1357,"x_min":201,"x_max":1156,"o":"m 201 0 l 201 972 l 344 972 l 1047 176 l 1033 164 q 1022 247 1026 203 q 1015 341 1018 292 q 1009 442 1011 390 q 1006 547 1007 494 q 1006 653 1006 600 l 1006 972 l 1156 972 l 1156 0 l 1010 0 l 317 767 l 324 786 q 332 690 328 735 q 340 603 336 644 q 346 528 343 563 q 350 462 349 493 q 351 404 351 431 l 351 0 l 201 0 m 619 1051 l 453 1194 l 506 1240 l 700 1153 l 658 1153 l 853 1240 l 906 1194 l 739 1051 l 619 1051 z "},"Ņ":{"ha":1357,"x_min":201,"x_max":1156,"o":"m 201 0 l 201 972 l 344 972 l 1047 176 l 1033 164 q 1022 247 1026 203 q 1015 341 1018 292 q 1009 442 1011 390 q 1006 547 1007 494 q 1006 653 1006 600 l 1006 972 l 1156 972 l 1156 0 l 1010 0 l 317 767 l 324 786 q 332 690 328 735 q 340 603 336 644 q 346 528 343 563 q 350 462 349 493 q 351 404 351 431 l 351 0 l 201 0 m 610 -337 l 576 -279 q 613 -263 596 -275 q 640 -236 629 -251 q 651 -207 651 -221 q 644 -191 651 -196 q 624 -182 638 -186 q 594 -167 606 -178 q 583 -131 583 -156 q 609 -81 583 -99 q 674 -62 635 -62 q 749 -90 715 -62 q 782 -169 782 -117 q 765 -228 782 -201 q 723 -276 749 -256 q 667 -312 697 -297 q 610 -337 638 -328 z "},"Ṅ":{"ha":1357,"x_min":201,"x_max":1156,"o":"m 201 0 l 201 972 l 344 972 l 1047 176 l 1033 164 q 1022 247 1026 203 q 1015 341 1018 292 q 1009 442 1011 390 q 1006 547 1007 494 q 1006 653 1006 600 l 1006 972 l 1156 972 l 1156 0 l 1010 0 l 317 767 l 324 786 q 332 690 328 735 q 340 603 336 644 q 346 528 343 563 q 350 462 349 493 q 351 404 351 431 l 351 0 l 201 0 m 679 1054 q 607 1079 631 1054 q 583 1144 583 1104 q 607 1207 583 1179 q 679 1235 631 1235 q 751 1210 728 1235 q 775 1144 775 1185 q 751 1082 775 1110 q 679 1054 728 1054 z "},"Ṇ":{"ha":1357,"x_min":201,"x_max":1156,"o":"m 201 0 l 201 972 l 344 972 l 1047 176 l 1033 164 q 1022 247 1026 203 q 1015 341 1018 292 q 1009 442 1011 390 q 1006 547 1007 494 q 1006 653 1006 600 l 1006 972 l 1156 972 l 1156 0 l 1010 0 l 317 767 l 324 786 q 332 690 328 735 q 340 603 336 644 q 346 528 343 563 q 350 462 349 493 q 351 404 351 431 l 351 0 l 201 0 m 679 -286 q 608 -262 632 -286 q 583 -196 583 -237 q 608 -132 583 -158 q 679 -106 632 -106 q 751 -130 726 -106 q 775 -196 775 -154 q 751 -260 775 -233 q 679 -286 726 -286 z "},"Ɲ":{"ha":1347,"x_min":-19,"x_max":1146,"o":"m 35 -274 l -19 -146 q 141 -81 90 -146 q 192 103 192 -15 l 192 972 l 335 972 l 1038 192 l 1007 164 q 994 270 1000 213 q 986 391 989 328 q 981 521 983 454 q 979 653 979 588 l 979 972 l 1146 972 l 1146 0 l 1000 0 l 307 751 l 329 786 q 338 694 333 739 q 345 606 342 649 q 351 526 349 564 q 356 457 354 488 q 357 404 357 426 l 357 68 q 315 -113 357 -36 q 200 -232 274 -190 q 35 -274 126 -274 z "},"ǋ":{"ha":1985,"x_min":201,"x_max":1803,"o":"m 201 0 l 201 972 l 344 972 l 1047 176 l 1033 164 q 1022 247 1026 203 q 1015 341 1018 292 q 1009 442 1011 390 q 1006 547 1007 494 q 1006 653 1006 600 l 1006 972 l 1156 972 l 1156 0 l 1010 0 l 317 767 l 324 786 q 332 690 328 735 q 340 603 336 644 q 346 528 343 563 q 350 462 349 493 q 351 404 351 431 l 351 0 l 201 0 m 1463 -274 l 1408 -154 q 1535 -124 1485 -154 q 1608 -35 1585 -93 q 1632 103 1632 22 l 1632 729 l 1775 729 l 1775 68 q 1735 -112 1775 -36 q 1624 -231 1694 -189 q 1463 -274 1553 -274 m 1707 899 q 1636 922 1661 899 q 1611 989 1611 946 q 1637 1054 1611 1029 q 1707 1079 1663 1079 q 1778 1056 1753 1079 q 1803 989 1803 1032 q 1777 924 1803 949 q 1707 899 1751 899 z "},"Ṉ":{"ha":1357,"x_min":201,"x_max":1156,"o":"m 201 0 l 201 972 l 344 972 l 1047 176 l 1033 164 q 1022 247 1026 203 q 1015 341 1018 292 q 1009 442 1011 390 q 1006 547 1007 494 q 1006 653 1006 600 l 1006 972 l 1156 972 l 1156 0 l 1010 0 l 317 767 l 324 786 q 332 690 328 735 q 340 603 336 644 q 346 528 343 563 q 350 462 349 493 q 351 404 351 431 l 351 0 l 201 0 m 483 -247 l 483 -144 l 874 -144 l 874 -247 l 483 -247 z "},"Ñ":{"ha":1357,"x_min":201,"x_max":1156,"o":"m 201 0 l 201 972 l 344 972 l 1047 176 l 1033 164 q 1022 247 1026 203 q 1015 341 1018 292 q 1009 442 1011 390 q 1006 547 1007 494 q 1006 653 1006 600 l 1006 972 l 1156 972 l 1156 0 l 1010 0 l 317 767 l 324 786 q 332 690 328 735 q 340 603 336 644 q 346 528 343 563 q 350 462 349 493 q 351 404 351 431 l 351 0 l 201 0 m 782 1067 q 717 1077 750 1067 q 656 1099 685 1088 q 615 1114 632 1108 q 585 1119 599 1119 q 555 1106 567 1119 q 543 1067 543 1092 l 436 1067 q 485 1183 436 1142 q 594 1224 533 1224 q 651 1214 624 1224 q 706 1193 679 1204 q 744 1179 725 1185 q 775 1174 763 1174 q 806 1188 794 1174 q 815 1224 817 1201 l 921 1224 q 904 1147 921 1183 q 856 1089 888 1111 q 782 1067 825 1067 z "},"Ŋ":{"ha":1357,"x_min":201,"x_max":1156,"o":"m 832 -274 l 778 -146 q 871 -133 829 -146 q 942 -95 913 -119 q 986 -37 971 -71 q 1001 39 1001 -3 l 1001 101 l 1010 0 l 317 767 l 324 786 q 332 695 328 740 q 340 607 336 650 q 346 526 343 564 q 350 457 349 488 q 351 404 351 426 l 351 0 l 201 0 l 201 972 l 344 972 l 1047 176 l 1033 164 q 1020 270 1025 213 q 1012 391 1015 328 q 1007 521 1008 454 q 1006 653 1006 588 l 1006 972 l 1156 972 l 1156 68 q 1113 -113 1156 -36 q 998 -232 1071 -190 q 832 -274 925 -274 z "},"O":{"ha":1335,"x_min":129,"x_max":1206,"o":"m 667 -14 q 452 24 550 -14 q 281 131 354 63 q 169 290 208 199 q 129 486 129 381 q 169 683 129 592 q 281 842 208 774 q 452 948 354 910 q 667 986 550 986 q 883 949 785 986 q 1053 842 981 911 q 1166 683 1126 774 q 1206 486 1206 592 q 1166 290 1206 381 q 1053 130 1126 199 q 883 24 981 61 q 667 -14 785 -14 m 668 132 q 823 159 753 132 q 944 234 893 186 q 1024 347 996 282 q 1053 486 1053 411 q 1024 626 1053 561 q 944 738 996 690 q 822 813 893 786 q 668 840 751 840 q 513 813 583 840 q 390 739 442 786 q 310 627 338 692 q 282 486 282 563 q 310 346 282 411 q 390 233 338 281 q 513 159 442 186 q 668 132 583 132 z "},"Ó":{"ha":1335,"x_min":129,"x_max":1206,"o":"m 667 -14 q 452 24 550 -14 q 281 131 354 63 q 169 290 208 199 q 129 486 129 381 q 169 683 129 592 q 281 842 208 774 q 452 948 354 910 q 667 986 550 986 q 883 949 785 986 q 1053 842 981 911 q 1166 683 1126 774 q 1206 486 1206 592 q 1166 290 1206 381 q 1053 130 1126 199 q 883 24 981 61 q 667 -14 785 -14 m 668 132 q 823 159 753 132 q 944 234 893 186 q 1024 347 996 282 q 1053 486 1053 411 q 1024 626 1053 561 q 944 738 996 690 q 822 813 893 786 q 668 840 751 840 q 513 813 583 840 q 390 739 442 786 q 310 627 338 692 q 282 486 282 563 q 310 346 282 411 q 390 233 338 281 q 513 159 442 186 q 668 132 583 132 m 565 1049 l 526 1121 l 781 1278 l 846 1153 l 565 1049 z "},"Ŏ":{"ha":1335,"x_min":129,"x_max":1206,"o":"m 667 -14 q 452 24 550 -14 q 281 131 354 63 q 169 290 208 199 q 129 486 129 381 q 169 683 129 592 q 281 842 208 774 q 452 948 354 910 q 667 986 550 986 q 883 949 785 986 q 1053 842 981 911 q 1166 683 1126 774 q 1206 486 1206 592 q 1166 290 1206 381 q 1053 130 1126 199 q 883 24 981 61 q 667 -14 785 -14 m 668 132 q 823 159 753 132 q 944 234 893 186 q 1024 347 996 282 q 1053 486 1053 411 q 1024 626 1053 561 q 944 738 996 690 q 822 813 893 786 q 668 840 751 840 q 513 813 583 840 q 390 739 442 786 q 310 627 338 692 q 282 486 282 563 q 310 346 282 411 q 390 233 338 281 q 513 159 442 186 q 668 132 583 132 m 668 1043 q 565 1069 611 1043 q 487 1137 518 1094 q 443 1229 456 1179 l 546 1246 q 593 1183 561 1211 q 668 1156 625 1156 q 743 1183 711 1156 q 790 1246 775 1211 l 893 1229 q 850 1137 882 1179 q 772 1069 818 1094 q 668 1043 726 1043 z "},"Ǒ":{"ha":1335,"x_min":129,"x_max":1206,"o":"m 667 -14 q 452 24 550 -14 q 281 131 354 63 q 169 290 208 199 q 129 486 129 381 q 169 683 129 592 q 281 842 208 774 q 452 948 354 910 q 667 986 550 986 q 883 949 785 986 q 1053 842 981 911 q 1166 683 1126 774 q 1206 486 1206 592 q 1166 290 1206 381 q 1053 130 1126 199 q 883 24 981 61 q 667 -14 785 -14 m 668 132 q 823 159 753 132 q 944 234 893 186 q 1024 347 996 282 q 1053 486 1053 411 q 1024 626 1053 561 q 944 738 996 690 q 822 813 893 786 q 668 840 751 840 q 513 813 583 840 q 390 739 442 786 q 310 627 338 692 q 282 486 282 563 q 310 346 282 411 q 390 233 338 281 q 513 159 442 186 q 668 132 583 132 m 608 1051 l 442 1194 l 494 1240 l 689 1153 l 647 1153 l 842 1240 l 894 1194 l 728 1051 l 608 1051 z "},"Ô":{"ha":1335,"x_min":129,"x_max":1206,"o":"m 667 -14 q 452 24 550 -14 q 281 131 354 63 q 169 290 208 199 q 129 486 129 381 q 169 683 129 592 q 281 842 208 774 q 452 948 354 910 q 667 986 550 986 q 883 949 785 986 q 1053 842 981 911 q 1166 683 1126 774 q 1206 486 1206 592 q 1166 290 1206 381 q 1053 130 1126 199 q 883 24 981 61 q 667 -14 785 -14 m 668 132 q 823 159 753 132 q 944 234 893 186 q 1024 347 996 282 q 1053 486 1053 411 q 1024 626 1053 561 q 944 738 996 690 q 822 813 893 786 q 668 840 751 840 q 513 813 583 840 q 390 739 442 786 q 310 627 338 692 q 282 486 282 563 q 310 346 282 411 q 390 233 338 281 q 513 159 442 186 q 668 132 583 132 m 496 1049 l 444 1097 l 617 1238 l 718 1238 l 890 1097 l 839 1049 l 647 1139 l 688 1139 l 496 1049 z "},"Ố":{"ha":1335,"x_min":129,"x_max":1206,"o":"m 667 -14 q 452 24 550 -14 q 281 131 354 63 q 169 290 208 199 q 129 486 129 381 q 169 683 129 592 q 281 842 208 774 q 452 948 354 910 q 667 986 550 986 q 883 949 785 986 q 1053 842 981 911 q 1166 683 1126 774 q 1206 486 1206 592 q 1166 290 1206 381 q 1053 130 1126 199 q 883 24 981 61 q 667 -14 785 -14 m 668 132 q 823 159 753 132 q 944 234 893 186 q 1024 347 996 282 q 1053 486 1053 411 q 1024 626 1053 561 q 944 738 996 690 q 822 813 893 786 q 668 840 751 840 q 513 813 583 840 q 390 739 442 786 q 310 627 338 692 q 282 486 282 563 q 310 346 282 411 q 390 233 338 281 q 513 159 442 186 q 668 132 583 132 m 496 1049 l 450 1099 l 617 1235 l 718 1235 l 885 1099 l 839 1049 l 647 1136 l 688 1136 l 496 1049 m 893 1200 l 821 1250 l 935 1453 l 1056 1367 l 893 1200 z "},"Ộ":{"ha":1335,"x_min":129,"x_max":1206,"o":"m 667 -14 q 452 24 550 -14 q 281 131 354 63 q 169 290 208 199 q 129 486 129 381 q 169 683 129 592 q 281 842 208 774 q 452 948 354 910 q 667 986 550 986 q 883 949 785 986 q 1053 842 981 911 q 1166 683 1126 774 q 1206 486 1206 592 q 1166 290 1206 381 q 1053 130 1126 199 q 883 24 981 61 q 667 -14 785 -14 m 668 132 q 823 159 753 132 q 944 234 893 186 q 1024 347 996 282 q 1053 486 1053 411 q 1024 626 1053 561 q 944 738 996 690 q 822 813 893 786 q 668 840 751 840 q 513 813 583 840 q 390 739 442 786 q 310 627 338 692 q 282 486 282 563 q 310 346 282 411 q 390 233 338 281 q 513 159 442 186 q 668 132 583 132 m 668 -286 q 597 -262 621 -286 q 572 -196 572 -237 q 597 -132 572 -158 q 668 -106 621 -106 q 740 -130 715 -106 q 764 -196 764 -154 q 740 -260 764 -233 q 668 -286 715 -286 m 496 1049 l 444 1097 l 617 1238 l 718 1238 l 890 1097 l 839 1049 l 647 1139 l 688 1139 l 496 1049 z "},"Ồ":{"ha":1335,"x_min":129,"x_max":1206,"o":"m 667 -14 q 452 24 550 -14 q 281 131 354 63 q 169 290 208 199 q 129 486 129 381 q 169 683 129 592 q 281 842 208 774 q 452 948 354 910 q 667 986 550 986 q 883 949 785 986 q 1053 842 981 911 q 1166 683 1126 774 q 1206 486 1206 592 q 1166 290 1206 381 q 1053 130 1126 199 q 883 24 981 61 q 667 -14 785 -14 m 668 132 q 823 159 753 132 q 944 234 893 186 q 1024 347 996 282 q 1053 486 1053 411 q 1024 626 1053 561 q 944 738 996 690 q 822 813 893 786 q 668 840 751 840 q 513 813 583 840 q 390 739 442 786 q 310 627 338 692 q 282 486 282 563 q 310 346 282 411 q 390 233 338 281 q 513 159 442 186 q 668 132 583 132 m 496 1049 l 450 1099 l 617 1235 l 718 1235 l 885 1099 l 839 1049 l 647 1136 l 688 1136 l 496 1049 m 897 1201 l 729 1369 l 849 1457 l 964 1254 l 897 1201 z "},"Ổ":{"ha":1335,"x_min":129,"x_max":1206,"o":"m 667 -14 q 452 24 550 -14 q 281 131 354 63 q 169 290 208 199 q 129 486 129 381 q 169 683 129 592 q 281 842 208 774 q 452 948 354 910 q 667 986 550 986 q 883 949 785 986 q 1053 842 981 911 q 1166 683 1126 774 q 1206 486 1206 592 q 1166 290 1206 381 q 1053 130 1126 199 q 883 24 981 61 q 667 -14 785 -14 m 668 132 q 823 159 753 132 q 944 234 893 186 q 1024 347 996 282 q 1053 486 1053 411 q 1024 626 1053 561 q 944 738 996 690 q 822 813 893 786 q 668 840 751 840 q 513 813 583 840 q 390 739 442 786 q 310 627 338 692 q 282 486 282 563 q 310 346 282 411 q 390 233 338 281 q 513 159 442 186 q 668 132 583 132 m 496 1049 l 450 1099 l 617 1235 l 718 1235 l 885 1099 l 839 1049 l 647 1136 l 688 1136 l 496 1049 m 854 1199 q 840 1222 846 1210 q 833 1247 833 1235 q 840 1272 833 1260 q 871 1301 846 1285 q 902 1324 892 1315 q 913 1338 913 1332 q 901 1356 913 1350 q 871 1361 889 1361 q 822 1354 849 1361 q 772 1336 796 1347 l 750 1424 q 813 1449 779 1440 q 874 1457 846 1457 q 984 1426 947 1457 q 1021 1350 1021 1394 q 1003 1303 1021 1321 q 969 1275 986 1286 q 932 1250 943 1260 q 921 1232 921 1240 q 922 1224 921 1228 q 925 1217 924 1221 l 854 1199 z "},"Ỗ":{"ha":1335,"x_min":129,"x_max":1206,"o":"m 667 -14 q 452 24 550 -14 q 281 131 354 63 q 169 290 208 199 q 129 486 129 381 q 169 683 129 592 q 281 842 208 774 q 452 948 354 910 q 667 986 550 986 q 883 949 785 986 q 1053 842 981 911 q 1166 683 1126 774 q 1206 486 1206 592 q 1166 290 1206 381 q 1053 130 1126 199 q 883 24 981 61 q 667 -14 785 -14 m 668 132 q 823 159 753 132 q 944 234 893 186 q 1024 347 996 282 q 1053 486 1053 411 q 1024 626 1053 561 q 944 738 996 690 q 822 813 893 786 q 668 840 751 840 q 513 813 583 840 q 390 739 442 786 q 310 627 338 692 q 282 486 282 563 q 310 346 282 411 q 390 233 338 281 q 513 159 442 186 q 668 132 583 132 m 496 1049 l 450 1099 l 617 1235 l 718 1235 l 885 1099 l 839 1049 l 647 1136 l 688 1136 l 496 1049 m 775 1301 q 713 1311 742 1301 q 661 1331 685 1321 q 619 1349 636 1342 q 589 1356 603 1356 q 557 1342 571 1356 q 538 1304 543 1328 l 443 1318 q 485 1417 446 1375 q 579 1460 524 1460 q 633 1450 608 1460 q 682 1429 657 1440 q 719 1413 700 1421 q 751 1406 738 1406 q 781 1419 771 1406 q 797 1458 792 1432 l 892 1444 q 876 1373 890 1406 q 838 1321 863 1340 q 775 1301 813 1301 z "},"Ȍ":{"ha":1335,"x_min":129,"x_max":1206,"o":"m 667 -14 q 452 24 550 -14 q 281 131 354 63 q 169 290 208 199 q 129 486 129 381 q 169 683 129 592 q 281 842 208 774 q 452 948 354 910 q 667 986 550 986 q 883 949 785 986 q 1053 842 981 911 q 1166 683 1126 774 q 1206 486 1206 592 q 1166 290 1206 381 q 1053 130 1126 199 q 883 24 981 61 q 667 -14 785 -14 m 668 132 q 823 159 753 132 q 944 234 893 186 q 1024 347 996 282 q 1053 486 1053 411 q 1024 626 1053 561 q 944 738 996 690 q 822 813 893 786 q 668 840 751 840 q 513 813 583 840 q 390 739 442 786 q 310 627 338 692 q 282 486 282 563 q 310 346 282 411 q 390 233 338 281 q 513 159 442 186 q 668 132 583 132 m 811 1042 l 582 1193 l 682 1299 l 864 1108 l 811 1042 m 535 1042 l 306 1193 l 406 1299 l 588 1108 l 535 1042 z "},"Ö":{"ha":1335,"x_min":129,"x_max":1206,"o":"m 667 -14 q 452 24 550 -14 q 281 131 354 63 q 169 290 208 199 q 129 486 129 381 q 169 683 129 592 q 281 842 208 774 q 452 948 354 910 q 667 986 550 986 q 883 949 785 986 q 1053 842 981 911 q 1166 683 1126 774 q 1206 486 1206 592 q 1166 290 1206 381 q 1053 130 1126 199 q 883 24 981 61 q 667 -14 785 -14 m 668 132 q 823 159 753 132 q 944 234 893 186 q 1024 347 996 282 q 1053 486 1053 411 q 1024 626 1053 561 q 944 738 996 690 q 822 813 893 786 q 668 840 751 840 q 513 813 583 840 q 390 739 442 786 q 310 627 338 692 q 282 486 282 563 q 310 346 282 411 q 390 233 338 281 q 513 159 442 186 q 668 132 583 132 m 811 1054 q 739 1079 763 1054 q 715 1144 715 1104 q 739 1207 715 1179 q 811 1235 763 1235 q 883 1210 860 1235 q 907 1144 907 1185 q 883 1082 907 1110 q 811 1054 860 1054 m 525 1054 q 453 1079 476 1054 q 429 1144 429 1104 q 453 1207 429 1179 q 525 1235 476 1235 q 597 1210 574 1235 q 621 1144 621 1185 q 597 1082 621 1110 q 525 1054 574 1054 z "},"Ȫ":{"ha":1335,"x_min":129,"x_max":1206,"o":"m 667 -14 q 452 24 550 -14 q 281 131 354 63 q 169 290 208 199 q 129 486 129 381 q 169 683 129 592 q 281 842 208 774 q 452 948 354 910 q 667 986 550 986 q 883 949 785 986 q 1053 842 981 911 q 1166 683 1126 774 q 1206 486 1206 592 q 1166 290 1206 381 q 1053 130 1126 199 q 883 24 981 61 q 667 -14 785 -14 m 668 132 q 823 159 753 132 q 944 234 893 186 q 1024 347 996 282 q 1053 486 1053 411 q 1024 626 1053 561 q 944 738 996 690 q 822 813 893 786 q 668 840 751 840 q 513 813 583 840 q 390 739 442 786 q 310 627 338 692 q 282 486 282 563 q 310 346 282 411 q 390 233 338 281 q 513 159 442 186 q 668 132 583 132 m 811 1054 q 739 1079 763 1054 q 715 1144 715 1104 q 739 1207 715 1179 q 811 1235 763 1235 q 883 1210 860 1235 q 907 1144 907 1185 q 883 1082 907 1110 q 811 1054 860 1054 m 525 1054 q 453 1079 476 1054 q 429 1144 429 1104 q 453 1207 429 1179 q 525 1235 476 1235 q 597 1210 574 1235 q 621 1144 621 1185 q 597 1082 621 1110 q 525 1054 574 1054 m 438 1301 l 438 1406 l 897 1406 l 897 1301 l 438 1301 z "},"Ȱ":{"ha":1335,"x_min":129,"x_max":1206,"o":"m 667 -14 q 452 24 550 -14 q 281 131 354 63 q 169 290 208 199 q 129 486 129 381 q 169 683 129 592 q 281 842 208 774 q 452 948 354 910 q 667 986 550 986 q 883 949 785 986 q 1053 842 981 911 q 1166 683 1126 774 q 1206 486 1206 592 q 1166 290 1206 381 q 1053 130 1126 199 q 883 24 981 61 q 667 -14 785 -14 m 668 132 q 823 159 753 132 q 944 234 893 186 q 1024 347 996 282 q 1053 486 1053 411 q 1024 626 1053 561 q 944 738 996 690 q 822 813 893 786 q 668 840 751 840 q 513 813 583 840 q 390 739 442 786 q 310 627 338 692 q 282 486 282 563 q 310 346 282 411 q 390 233 338 281 q 513 159 442 186 q 668 132 583 132 m 668 1054 q 596 1079 619 1054 q 572 1144 572 1104 q 596 1207 572 1179 q 668 1235 619 1235 q 740 1210 717 1235 q 764 1144 764 1185 q 740 1082 764 1110 q 668 1054 717 1054 m 438 1301 l 438 1406 l 897 1406 l 897 1301 l 438 1301 z "},"Ọ":{"ha":1335,"x_min":129,"x_max":1206,"o":"m 667 -14 q 452 24 550 -14 q 281 131 354 63 q 169 290 208 199 q 129 486 129 381 q 169 683 129 592 q 281 842 208 774 q 452 948 354 910 q 667 986 550 986 q 883 949 785 986 q 1053 842 981 911 q 1166 683 1126 774 q 1206 486 1206 592 q 1166 290 1206 381 q 1053 130 1126 199 q 883 24 981 61 q 667 -14 785 -14 m 668 132 q 823 159 753 132 q 944 234 893 186 q 1024 347 996 282 q 1053 486 1053 411 q 1024 626 1053 561 q 944 738 996 690 q 822 813 893 786 q 668 840 751 840 q 513 813 583 840 q 390 739 442 786 q 310 627 338 692 q 282 486 282 563 q 310 346 282 411 q 390 233 338 281 q 513 159 442 186 q 668 132 583 132 m 668 -286 q 597 -262 621 -286 q 572 -196 572 -237 q 597 -132 572 -158 q 668 -106 621 -106 q 740 -130 715 -106 q 764 -196 764 -154 q 740 -260 764 -233 q 668 -286 715 -286 z "},"Ò":{"ha":1335,"x_min":129,"x_max":1206,"o":"m 667 -14 q 452 24 550 -14 q 281 131 354 63 q 169 290 208 199 q 129 486 129 381 q 169 683 129 592 q 281 842 208 774 q 452 948 354 910 q 667 986 550 986 q 883 949 785 986 q 1053 842 981 911 q 1166 683 1126 774 q 1206 486 1206 592 q 1166 290 1206 381 q 1053 130 1126 199 q 883 24 981 61 q 667 -14 785 -14 m 668 132 q 823 159 753 132 q 944 234 893 186 q 1024 347 996 282 q 1053 486 1053 411 q 1024 626 1053 561 q 944 738 996 690 q 822 813 893 786 q 668 840 751 840 q 513 813 583 840 q 390 739 442 786 q 310 627 338 692 q 282 486 282 563 q 310 346 282 411 q 390 233 338 281 q 513 159 442 186 q 668 132 583 132 m 781 1049 l 500 1153 l 568 1278 l 822 1121 l 781 1049 z "},"Ỏ":{"ha":1335,"x_min":129,"x_max":1206,"o":"m 667 -14 q 452 24 550 -14 q 281 131 354 63 q 169 290 208 199 q 129 486 129 381 q 169 683 129 592 q 281 842 208 774 q 452 948 354 910 q 667 986 550 986 q 883 949 785 986 q 1053 842 981 911 q 1166 683 1126 774 q 1206 486 1206 592 q 1166 290 1206 381 q 1053 130 1126 199 q 883 24 981 61 q 667 -14 785 -14 m 668 132 q 823 159 753 132 q 944 234 893 186 q 1024 347 996 282 q 1053 486 1053 411 q 1024 626 1053 561 q 944 738 996 690 q 822 813 893 786 q 668 840 751 840 q 513 813 583 840 q 390 739 442 786 q 310 627 338 692 q 282 486 282 563 q 310 346 282 411 q 390 233 338 281 q 513 159 442 186 q 668 132 583 132 m 636 1053 q 621 1080 626 1067 q 615 1106 615 1093 q 623 1133 615 1118 q 653 1164 631 1149 q 685 1188 676 1179 q 694 1206 694 1196 q 683 1224 694 1218 q 653 1229 671 1229 q 604 1222 631 1229 q 554 1204 578 1215 l 532 1292 q 594 1317 561 1308 q 656 1325 628 1325 q 766 1294 729 1325 q 803 1218 803 1263 q 787 1163 803 1183 q 751 1133 771 1143 q 715 1112 726 1121 q 703 1089 703 1103 q 704 1079 703 1083 q 707 1071 706 1075 l 636 1053 z "},"Ơ":{"ha":1335,"x_min":129,"x_max":1206,"o":"m 668 -14 q 452 24 550 -14 q 281 131 354 63 q 169 290 208 199 q 129 486 129 381 q 169 683 129 592 q 281 842 208 774 q 452 948 354 910 q 668 986 550 986 q 732 983 701 986 q 789 975 763 981 q 838 967 814 969 q 888 964 863 964 q 968 981 935 964 q 1018 1035 1001 999 q 1035 1131 1035 1072 l 1163 1131 q 1150 1031 1163 1076 q 1113 953 1138 986 q 1051 899 1089 919 q 958 876 1013 879 l 969 906 q 1096 798 1043 863 q 1177 655 1149 733 q 1206 486 1206 576 q 1166 290 1206 381 q 1053 131 1126 199 q 883 24 981 63 q 668 -14 785 -14 m 668 132 q 823 159 753 132 q 944 234 893 186 q 1024 347 996 282 q 1053 486 1053 411 q 1024 626 1053 561 q 944 738 996 690 q 823 813 893 786 q 668 840 753 840 q 513 813 583 840 q 390 739 442 786 q 310 627 338 692 q 282 486 282 563 q 310 346 282 411 q 390 233 338 281 q 513 159 442 186 q 668 132 583 132 z "},"Ớ":{"ha":1335,"x_min":129,"x_max":1206,"o":"m 668 -14 q 452 24 550 -14 q 281 131 354 63 q 169 290 208 199 q 129 486 129 381 q 169 683 129 592 q 281 842 208 774 q 452 948 354 910 q 668 986 550 986 q 732 983 701 986 q 789 975 763 981 q 838 967 814 969 q 888 964 863 964 q 968 981 935 964 q 1018 1035 1001 999 q 1035 1131 1035 1072 l 1163 1131 q 1150 1031 1163 1076 q 1113 953 1138 986 q 1051 899 1089 919 q 958 876 1013 879 l 969 906 q 1096 798 1043 863 q 1177 655 1149 733 q 1206 486 1206 576 q 1166 290 1206 381 q 1053 131 1126 199 q 883 24 981 63 q 668 -14 785 -14 m 668 132 q 823 159 753 132 q 944 234 893 186 q 1024 347 996 282 q 1053 486 1053 411 q 1024 626 1053 561 q 944 738 996 690 q 823 813 893 786 q 668 840 753 840 q 513 813 583 840 q 390 739 442 786 q 310 627 338 692 q 282 486 282 563 q 310 346 282 411 q 390 233 338 281 q 513 159 442 186 q 668 132 583 132 m 565 1049 l 526 1121 l 781 1278 l 846 1153 l 565 1049 z "},"Ợ":{"ha":1335,"x_min":129,"x_max":1206,"o":"m 668 -14 q 452 24 550 -14 q 281 131 354 63 q 169 290 208 199 q 129 486 129 381 q 169 683 129 592 q 281 842 208 774 q 452 948 354 910 q 668 986 550 986 q 732 983 701 986 q 789 975 763 981 q 838 967 814 969 q 888 964 863 964 q 968 981 935 964 q 1018 1035 1001 999 q 1035 1131 1035 1072 l 1163 1131 q 1150 1031 1163 1076 q 1113 953 1138 986 q 1051 899 1089 919 q 958 876 1013 879 l 969 906 q 1096 798 1043 863 q 1177 655 1149 733 q 1206 486 1206 576 q 1166 290 1206 381 q 1053 131 1126 199 q 883 24 981 63 q 668 -14 785 -14 m 668 132 q 823 159 753 132 q 944 234 893 186 q 1024 347 996 282 q 1053 486 1053 411 q 1024 626 1053 561 q 944 738 996 690 q 823 813 893 786 q 668 840 753 840 q 513 813 583 840 q 390 739 442 786 q 310 627 338 692 q 282 486 282 563 q 310 346 282 411 q 390 233 338 281 q 513 159 442 186 q 668 132 583 132 m 668 -286 q 597 -262 621 -286 q 572 -196 572 -237 q 597 -132 572 -158 q 668 -106 621 -106 q 740 -130 715 -106 q 764 -196 764 -154 q 740 -260 764 -233 q 668 -286 715 -286 z "},"Ờ":{"ha":1335,"x_min":129,"x_max":1206,"o":"m 668 -14 q 452 24 550 -14 q 281 131 354 63 q 169 290 208 199 q 129 486 129 381 q 169 683 129 592 q 281 842 208 774 q 452 948 354 910 q 668 986 550 986 q 732 983 701 986 q 789 975 763 981 q 838 967 814 969 q 888 964 863 964 q 968 981 935 964 q 1018 1035 1001 999 q 1035 1131 1035 1072 l 1163 1131 q 1150 1031 1163 1076 q 1113 953 1138 986 q 1051 899 1089 919 q 958 876 1013 879 l 969 906 q 1096 798 1043 863 q 1177 655 1149 733 q 1206 486 1206 576 q 1166 290 1206 381 q 1053 131 1126 199 q 883 24 981 63 q 668 -14 785 -14 m 668 132 q 823 159 753 132 q 944 234 893 186 q 1024 347 996 282 q 1053 486 1053 411 q 1024 626 1053 561 q 944 738 996 690 q 823 813 893 786 q 668 840 753 840 q 513 813 583 840 q 390 739 442 786 q 310 627 338 692 q 282 486 282 563 q 310 346 282 411 q 390 233 338 281 q 513 159 442 186 q 668 132 583 132 m 781 1049 l 500 1153 l 568 1278 l 822 1121 l 781 1049 z "},"Ở":{"ha":1335,"x_min":129,"x_max":1206,"o":"m 668 -14 q 452 24 550 -14 q 281 131 354 63 q 169 290 208 199 q 129 486 129 381 q 169 683 129 592 q 281 842 208 774 q 452 948 354 910 q 668 986 550 986 q 732 983 701 986 q 789 975 763 981 q 838 967 814 969 q 888 964 863 964 q 968 981 935 964 q 1018 1035 1001 999 q 1035 1131 1035 1072 l 1163 1131 q 1150 1031 1163 1076 q 1113 953 1138 986 q 1051 899 1089 919 q 958 876 1013 879 l 969 906 q 1096 798 1043 863 q 1177 655 1149 733 q 1206 486 1206 576 q 1166 290 1206 381 q 1053 131 1126 199 q 883 24 981 63 q 668 -14 785 -14 m 668 132 q 823 159 753 132 q 944 234 893 186 q 1024 347 996 282 q 1053 486 1053 411 q 1024 626 1053 561 q 944 738 996 690 q 823 813 893 786 q 668 840 753 840 q 513 813 583 840 q 390 739 442 786 q 310 627 338 692 q 282 486 282 563 q 310 346 282 411 q 390 233 338 281 q 513 159 442 186 q 668 132 583 132 m 636 1053 q 621 1080 626 1067 q 615 1106 615 1093 q 623 1133 615 1118 q 653 1164 631 1149 q 685 1188 676 1179 q 694 1206 694 1196 q 683 1224 694 1218 q 653 1229 671 1229 q 604 1222 631 1229 q 554 1204 578 1215 l 532 1292 q 594 1317 561 1308 q 656 1325 628 1325 q 766 1294 729 1325 q 803 1218 803 1263 q 787 1163 803 1183 q 751 1133 771 1143 q 715 1112 726 1121 q 703 1089 703 1103 q 704 1079 703 1083 q 707 1071 706 1075 l 636 1053 z "},"Ỡ":{"ha":1335,"x_min":129,"x_max":1206,"o":"m 668 -14 q 452 24 550 -14 q 281 131 354 63 q 169 290 208 199 q 129 486 129 381 q 169 683 129 592 q 281 842 208 774 q 452 948 354 910 q 668 986 550 986 q 732 983 701 986 q 789 975 763 981 q 838 967 814 969 q 888 964 863 964 q 968 981 935 964 q 1018 1035 1001 999 q 1035 1131 1035 1072 l 1163 1131 q 1150 1031 1163 1076 q 1113 953 1138 986 q 1051 899 1089 919 q 958 876 1013 879 l 969 906 q 1096 798 1043 863 q 1177 655 1149 733 q 1206 486 1206 576 q 1166 290 1206 381 q 1053 131 1126 199 q 883 24 981 63 q 668 -14 785 -14 m 668 132 q 823 159 753 132 q 944 234 893 186 q 1024 347 996 282 q 1053 486 1053 411 q 1024 626 1053 561 q 944 738 996 690 q 823 813 893 786 q 668 840 753 840 q 513 813 583 840 q 390 739 442 786 q 310 627 338 692 q 282 486 282 563 q 310 346 282 411 q 390 233 338 281 q 513 159 442 186 q 668 132 583 132 m 771 1067 q 706 1077 739 1067 q 644 1099 674 1088 q 604 1114 621 1108 q 574 1119 588 1119 q 544 1106 556 1119 q 532 1067 532 1092 l 425 1067 q 474 1183 425 1142 q 583 1224 522 1224 q 640 1214 613 1224 q 694 1193 668 1204 q 733 1179 714 1185 q 764 1174 751 1174 q 794 1188 783 1174 q 804 1224 806 1201 l 910 1224 q 893 1147 910 1183 q 845 1089 876 1111 q 771 1067 814 1067 z "},"Ő":{"ha":1335,"x_min":129,"x_max":1206,"o":"m 667 -14 q 452 24 550 -14 q 281 131 354 63 q 169 290 208 199 q 129 486 129 381 q 169 683 129 592 q 281 842 208 774 q 452 948 354 910 q 667 986 550 986 q 883 949 785 986 q 1053 842 981 911 q 1166 683 1126 774 q 1206 486 1206 592 q 1166 290 1206 381 q 1053 130 1126 199 q 883 24 981 61 q 667 -14 785 -14 m 668 132 q 823 159 753 132 q 944 234 893 186 q 1024 347 996 282 q 1053 486 1053 411 q 1024 626 1053 561 q 944 738 996 690 q 822 813 893 786 q 668 840 751 840 q 513 813 583 840 q 390 739 442 786 q 310 627 338 692 q 282 486 282 563 q 310 346 282 411 q 390 233 338 281 q 513 159 442 186 q 668 132 583 132 m 514 1042 l 461 1108 l 643 1299 l 743 1193 l 514 1042 m 790 1042 l 738 1108 l 919 1299 l 1019 1193 l 790 1042 z "},"Ȏ":{"ha":1335,"x_min":129,"x_max":1206,"o":"m 667 -14 q 452 24 550 -14 q 281 131 354 63 q 169 290 208 199 q 129 486 129 381 q 169 683 129 592 q 281 842 208 774 q 452 948 354 910 q 667 986 550 986 q 883 949 785 986 q 1053 842 981 911 q 1166 683 1126 774 q 1206 486 1206 592 q 1166 290 1206 381 q 1053 130 1126 199 q 883 24 981 61 q 667 -14 785 -14 m 668 132 q 823 159 753 132 q 944 234 893 186 q 1024 347 996 282 q 1053 486 1053 411 q 1024 626 1053 561 q 944 738 996 690 q 822 813 893 786 q 668 840 751 840 q 513 813 583 840 q 390 739 442 786 q 310 627 338 692 q 282 486 282 563 q 310 346 282 411 q 390 233 338 281 q 513 159 442 186 q 668 132 583 132 m 546 1043 l 443 1060 q 487 1152 456 1110 q 565 1220 518 1194 q 668 1246 611 1246 q 772 1220 726 1246 q 850 1152 818 1194 q 893 1060 882 1110 l 790 1043 q 743 1106 775 1078 q 668 1133 711 1133 q 593 1106 625 1133 q 546 1043 561 1078 z "},"Ō":{"ha":1335,"x_min":129,"x_max":1206,"o":"m 667 -14 q 452 24 550 -14 q 281 131 354 63 q 169 290 208 199 q 129 486 129 381 q 169 683 129 592 q 281 842 208 774 q 452 948 354 910 q 667 986 550 986 q 883 949 785 986 q 1053 842 981 911 q 1166 683 1126 774 q 1206 486 1206 592 q 1166 290 1206 381 q 1053 130 1126 199 q 883 24 981 61 q 667 -14 785 -14 m 668 132 q 823 159 753 132 q 944 234 893 186 q 1024 347 996 282 q 1053 486 1053 411 q 1024 626 1053 561 q 944 738 996 690 q 822 813 893 786 q 668 840 751 840 q 513 813 583 840 q 390 739 442 786 q 310 627 338 692 q 282 486 282 563 q 310 346 282 411 q 390 233 338 281 q 513 159 442 186 q 668 132 583 132 m 438 1093 l 438 1197 l 897 1197 l 897 1093 l 438 1093 z "},"Ṓ":{"ha":1335,"x_min":129,"x_max":1206,"o":"m 667 -14 q 452 24 550 -14 q 281 131 354 63 q 169 290 208 199 q 129 486 129 381 q 169 683 129 592 q 281 842 208 774 q 452 948 354 910 q 667 986 550 986 q 883 949 785 986 q 1053 842 981 911 q 1166 683 1126 774 q 1206 486 1206 592 q 1166 290 1206 381 q 1053 130 1126 199 q 883 24 981 61 q 667 -14 785 -14 m 668 132 q 823 159 753 132 q 944 234 893 186 q 1024 347 996 282 q 1053 486 1053 411 q 1024 626 1053 561 q 944 738 996 690 q 822 813 893 786 q 668 840 751 840 q 513 813 583 840 q 390 739 442 786 q 310 627 338 692 q 282 486 282 563 q 310 346 282 411 q 390 233 338 281 q 513 159 442 186 q 668 132 583 132 m 438 1093 l 438 1197 l 897 1197 l 897 1093 l 438 1093 m 565 1257 l 526 1329 l 781 1486 l 846 1361 l 565 1257 z "},"Ṑ":{"ha":1335,"x_min":129,"x_max":1206,"o":"m 667 -14 q 452 24 550 -14 q 281 131 354 63 q 169 290 208 199 q 129 486 129 381 q 169 683 129 592 q 281 842 208 774 q 452 948 354 910 q 667 986 550 986 q 883 949 785 986 q 1053 842 981 911 q 1166 683 1126 774 q 1206 486 1206 592 q 1166 290 1206 381 q 1053 130 1126 199 q 883 24 981 61 q 667 -14 785 -14 m 668 132 q 823 159 753 132 q 944 234 893 186 q 1024 347 996 282 q 1053 486 1053 411 q 1024 626 1053 561 q 944 738 996 690 q 822 813 893 786 q 668 840 751 840 q 513 813 583 840 q 390 739 442 786 q 310 627 338 692 q 282 486 282 563 q 310 346 282 411 q 390 233 338 281 q 513 159 442 186 q 668 132 583 132 m 438 1093 l 438 1197 l 897 1197 l 897 1093 l 438 1093 m 781 1257 l 500 1361 l 568 1486 l 822 1329 l 781 1257 z "},"Ǫ":{"ha":1335,"x_min":129,"x_max":1206,"o":"m 776 -278 q 669 -240 714 -278 q 625 -136 625 -201 q 651 -50 625 -89 q 720 21 678 -11 q 811 78 763 53 q 904 122 860 103 l 943 53 q 881 19 914 38 q 819 -21 849 0 q 770 -66 789 -42 q 751 -118 751 -90 q 764 -156 751 -142 q 799 -171 776 -171 q 828 -161 815 -171 q 850 -136 840 -151 l 928 -192 q 873 -251 915 -224 q 776 -278 831 -278 m 668 -14 q 452 24 550 -14 q 281 131 354 63 q 169 290 208 199 q 129 486 129 381 q 169 683 129 592 q 281 842 208 774 q 452 948 354 910 q 668 986 550 986 q 883 948 785 986 q 1053 842 981 910 q 1166 683 1126 774 q 1206 486 1206 592 q 1166 290 1206 381 q 1053 131 1126 199 q 883 24 981 63 q 668 -14 785 -14 m 668 132 q 823 159 753 132 q 944 234 893 186 q 1024 347 996 282 q 1053 486 1053 411 q 1024 626 1053 561 q 944 738 996 690 q 823 813 893 786 q 668 840 753 840 q 513 813 583 840 q 390 739 442 786 q 310 627 338 692 q 282 486 282 563 q 310 346 282 411 q 390 233 338 281 q 513 159 442 186 q 668 132 583 132 z "},"Ø":{"ha":1350,"x_min":136,"x_max":1218,"o":"m 221 -47 l 136 43 l 1125 1026 l 1218 944 l 221 -47 m 678 -14 q 462 24 560 -14 q 291 131 364 63 q 178 290 218 199 q 139 486 139 381 q 178 683 139 592 q 291 842 218 774 q 462 948 364 910 q 678 986 560 986 q 892 949 794 986 q 1063 842 990 911 q 1176 683 1136 774 q 1217 486 1217 592 q 1176 290 1217 381 q 1063 130 1136 199 q 892 24 990 61 q 678 -14 794 -14 m 678 132 q 833 159 763 132 q 955 234 903 186 q 1035 347 1007 282 q 1064 486 1064 411 q 1035 626 1064 561 q 955 738 1007 690 q 833 813 903 786 q 678 840 763 840 q 522 813 593 840 q 399 739 451 786 q 319 627 347 692 q 292 486 292 563 q 319 346 292 411 q 399 233 347 281 q 522 159 451 186 q 678 132 593 132 z "},"Ǿ":{"ha":1350,"x_min":136,"x_max":1218,"o":"m 221 -47 l 136 43 l 1125 1026 l 1218 944 l 221 -47 m 678 -14 q 462 24 560 -14 q 291 131 364 63 q 178 290 218 199 q 139 486 139 381 q 178 683 139 592 q 291 842 218 774 q 462 948 364 910 q 678 986 560 986 q 892 949 794 986 q 1063 842 990 911 q 1176 683 1136 774 q 1217 486 1217 592 q 1176 290 1217 381 q 1063 130 1136 199 q 892 24 990 61 q 678 -14 794 -14 m 678 132 q 833 159 763 132 q 955 234 903 186 q 1035 347 1007 282 q 1064 486 1064 411 q 1035 626 1064 561 q 955 738 1007 690 q 833 813 903 786 q 678 840 763 840 q 522 813 593 840 q 399 739 451 786 q 319 627 347 692 q 292 486 292 563 q 319 346 292 411 q 399 233 347 281 q 522 159 451 186 q 678 132 593 132 m 572 1049 l 533 1121 l 788 1278 l 853 1153 l 572 1049 z "},"Õ":{"ha":1335,"x_min":129,"x_max":1206,"o":"m 667 -14 q 452 24 550 -14 q 281 131 354 63 q 169 290 208 199 q 129 486 129 381 q 169 683 129 592 q 281 842 208 774 q 452 948 354 910 q 667 986 550 986 q 883 949 785 986 q 1053 842 981 911 q 1166 683 1126 774 q 1206 486 1206 592 q 1166 290 1206 381 q 1053 130 1126 199 q 883 24 981 61 q 667 -14 785 -14 m 668 132 q 823 159 753 132 q 944 234 893 186 q 1024 347 996 282 q 1053 486 1053 411 q 1024 626 1053 561 q 944 738 996 690 q 822 813 893 786 q 668 840 751 840 q 513 813 583 840 q 390 739 442 786 q 310 627 338 692 q 282 486 282 563 q 310 346 282 411 q 390 233 338 281 q 513 159 442 186 q 668 132 583 132 m 771 1067 q 706 1077 739 1067 q 644 1099 674 1088 q 604 1114 621 1108 q 574 1119 588 1119 q 544 1106 556 1119 q 532 1067 532 1092 l 425 1067 q 474 1183 425 1142 q 583 1224 522 1224 q 640 1214 613 1224 q 694 1193 668 1204 q 733 1179 714 1185 q 764 1174 751 1174 q 794 1188 783 1174 q 804 1224 806 1201 l 910 1224 q 893 1147 910 1183 q 845 1089 876 1111 q 771 1067 814 1067 z "},"Ṍ":{"ha":1335,"x_min":129,"x_max":1206,"o":"m 667 -14 q 452 24 550 -14 q 281 131 354 63 q 169 290 208 199 q 129 486 129 381 q 169 683 129 592 q 281 842 208 774 q 452 948 354 910 q 667 986 550 986 q 883 949 785 986 q 1053 842 981 911 q 1166 683 1126 774 q 1206 486 1206 592 q 1166 290 1206 381 q 1053 130 1126 199 q 883 24 981 61 q 667 -14 785 -14 m 668 132 q 823 159 753 132 q 944 234 893 186 q 1024 347 996 282 q 1053 486 1053 411 q 1024 626 1053 561 q 944 738 996 690 q 822 813 893 786 q 668 840 751 840 q 513 813 583 840 q 390 739 442 786 q 310 627 338 692 q 282 486 282 563 q 310 346 282 411 q 390 233 338 281 q 513 159 442 186 q 668 132 583 132 m 771 1067 q 706 1077 739 1067 q 644 1099 674 1088 q 604 1114 621 1108 q 574 1119 588 1119 q 544 1106 556 1119 q 532 1067 532 1092 l 425 1067 q 474 1183 425 1142 q 583 1224 522 1224 q 640 1214 613 1224 q 694 1193 668 1204 q 733 1179 714 1185 q 764 1174 751 1174 q 794 1188 783 1174 q 804 1224 806 1201 l 910 1224 q 893 1147 910 1183 q 845 1089 876 1111 q 771 1067 814 1067 m 565 1257 l 526 1329 l 781 1486 l 846 1361 l 565 1257 z "},"Ṏ":{"ha":1335,"x_min":129,"x_max":1206,"o":"m 667 -14 q 452 24 550 -14 q 281 131 354 63 q 169 290 208 199 q 129 486 129 381 q 169 683 129 592 q 281 842 208 774 q 452 948 354 910 q 667 986 550 986 q 883 949 785 986 q 1053 842 981 911 q 1166 683 1126 774 q 1206 486 1206 592 q 1166 290 1206 381 q 1053 130 1126 199 q 883 24 981 61 q 667 -14 785 -14 m 668 132 q 823 159 753 132 q 944 234 893 186 q 1024 347 996 282 q 1053 486 1053 411 q 1024 626 1053 561 q 944 738 996 690 q 822 813 893 786 q 668 840 751 840 q 513 813 583 840 q 390 739 442 786 q 310 627 338 692 q 282 486 282 563 q 310 346 282 411 q 390 233 338 281 q 513 159 442 186 q 668 132 583 132 m 771 1067 q 706 1077 739 1067 q 644 1099 674 1088 q 604 1114 621 1108 q 574 1119 588 1119 q 544 1106 556 1119 q 532 1067 532 1092 l 425 1067 q 474 1183 425 1142 q 583 1224 522 1224 q 640 1214 613 1224 q 694 1193 668 1204 q 733 1179 714 1185 q 764 1174 751 1174 q 794 1188 783 1174 q 804 1224 806 1201 l 910 1224 q 893 1147 910 1183 q 845 1089 876 1111 q 771 1067 814 1067 m 811 1263 q 739 1288 763 1263 q 715 1353 715 1313 q 739 1415 715 1388 q 811 1443 763 1443 q 883 1418 860 1443 q 907 1353 907 1393 q 883 1290 907 1318 q 811 1263 860 1263 m 525 1263 q 453 1288 476 1263 q 429 1353 429 1313 q 453 1415 429 1388 q 525 1443 476 1443 q 597 1418 574 1443 q 621 1353 621 1393 q 597 1290 621 1318 q 525 1263 574 1263 z "},"Ȭ":{"ha":1335,"x_min":129,"x_max":1206,"o":"m 667 -14 q 452 24 550 -14 q 281 131 354 63 q 169 290 208 199 q 129 486 129 381 q 169 683 129 592 q 281 842 208 774 q 452 948 354 910 q 667 986 550 986 q 883 949 785 986 q 1053 842 981 911 q 1166 683 1126 774 q 1206 486 1206 592 q 1166 290 1206 381 q 1053 130 1126 199 q 883 24 981 61 q 667 -14 785 -14 m 668 132 q 823 159 753 132 q 944 234 893 186 q 1024 347 996 282 q 1053 486 1053 411 q 1024 626 1053 561 q 944 738 996 690 q 822 813 893 786 q 668 840 751 840 q 513 813 583 840 q 390 739 442 786 q 310 627 338 692 q 282 486 282 563 q 310 346 282 411 q 390 233 338 281 q 513 159 442 186 q 668 132 583 132 m 771 1067 q 706 1077 739 1067 q 644 1099 674 1088 q 604 1114 621 1108 q 574 1119 588 1119 q 544 1106 556 1119 q 532 1067 532 1092 l 425 1067 q 474 1183 425 1142 q 583 1224 522 1224 q 640 1214 613 1224 q 694 1193 668 1204 q 733 1179 714 1185 q 764 1174 751 1174 q 794 1188 783 1174 q 804 1224 806 1201 l 910 1224 q 893 1147 910 1183 q 845 1089 876 1111 q 771 1067 814 1067 m 438 1301 l 438 1406 l 897 1406 l 897 1301 l 438 1301 z "},"Œ":{"ha":1772,"x_min":129,"x_max":1603,"o":"m 638 0 q 422 37 517 0 q 262 139 326 74 q 163 293 197 204 q 129 486 129 382 q 165 677 129 589 q 269 832 201 765 q 438 935 338 899 q 665 972 538 972 l 1603 972 l 1603 828 l 1031 828 l 1031 571 l 1526 571 l 1526 426 l 1031 426 l 1031 144 l 1603 144 l 1603 0 l 638 0 m 282 486 q 305 351 282 414 q 374 242 328 289 q 488 170 421 196 q 642 144 554 144 l 881 144 l 881 828 l 669 828 q 503 802 575 828 q 381 729 431 776 q 307 620 332 682 q 282 486 282 558 z "},"P":{"ha":1129,"x_min":201,"x_max":996,"o":"m 201 0 l 201 972 l 693 972 q 845 933 776 972 q 955 825 914 893 q 996 674 996 757 q 953 518 996 588 q 838 406 910 449 q 678 364 765 364 l 351 364 l 351 0 l 201 0 m 351 508 l 669 508 q 754 531 715 508 q 816 592 793 554 q 839 674 839 629 q 816 751 839 717 q 754 807 793 786 q 669 828 715 828 l 351 828 l 351 508 z "},"Þ":{"ha":1140,"x_min":201,"x_max":1008,"o":"m 201 0 l 201 972 l 351 972 l 351 796 l 692 796 q 856 759 785 796 q 967 656 926 722 q 1008 497 1008 589 q 967 345 1008 414 q 856 236 926 276 q 692 196 785 196 l 351 196 l 351 0 l 201 0 m 351 340 l 700 340 q 776 361 742 340 q 831 418 810 382 q 851 497 851 454 q 831 575 851 540 q 776 631 810 610 q 700 651 742 651 l 351 651 l 351 340 z "},"Q":{"ha":1335,"x_min":129,"x_max":1206,"o":"m 993 -153 l 625 329 l 749 403 l 1113 -75 l 993 -153 m 667 -14 q 452 24 550 -14 q 281 131 354 63 q 169 290 208 199 q 129 486 129 381 q 169 683 129 592 q 281 842 208 774 q 452 948 354 910 q 667 986 550 986 q 883 949 785 986 q 1053 842 981 911 q 1166 683 1126 774 q 1206 486 1206 592 q 1166 290 1206 381 q 1053 130 1126 199 q 883 24 981 61 q 667 -14 785 -14 m 668 132 q 823 159 753 132 q 944 234 893 186 q 1024 347 996 282 q 1053 486 1053 411 q 1024 626 1053 561 q 944 738 996 690 q 822 813 893 786 q 668 840 751 840 q 513 813 583 840 q 390 739 442 786 q 310 627 338 692 q 282 486 282 563 q 310 346 282 411 q 390 233 338 281 q 513 159 442 186 q 668 132 583 132 z "},"R":{"ha":1211,"x_min":201,"x_max":1063,"o":"m 201 0 l 201 972 l 701 972 q 857 932 786 972 q 971 823 928 892 q 1014 668 1014 754 q 969 515 1014 585 q 849 403 924 444 q 686 361 775 361 l 351 361 l 351 0 l 201 0 m 878 0 l 583 439 l 740 474 l 1063 -1 l 878 0 m 351 506 l 685 506 q 771 528 732 506 q 833 588 810 550 q 857 669 857 625 q 831 751 857 715 q 763 807 806 786 q 667 828 719 828 l 351 828 l 351 506 z "},"Ŕ":{"ha":1211,"x_min":201,"x_max":1063,"o":"m 201 0 l 201 972 l 701 972 q 857 932 786 972 q 971 823 928 892 q 1014 668 1014 754 q 969 515 1014 585 q 849 403 924 444 q 686 361 775 361 l 351 361 l 351 0 l 201 0 m 878 0 l 583 439 l 740 474 l 1063 -1 l 878 0 m 351 506 l 685 506 q 771 528 732 506 q 833 588 810 550 q 857 669 857 625 q 831 751 857 715 q 763 807 806 786 q 667 828 719 828 l 351 828 l 351 506 m 456 1040 l 417 1113 l 671 1269 l 736 1144 l 456 1040 z "},"Ř":{"ha":1211,"x_min":201,"x_max":1063,"o":"m 201 0 l 201 972 l 701 972 q 857 932 786 972 q 971 823 928 892 q 1014 668 1014 754 q 969 515 1014 585 q 849 403 924 444 q 686 361 775 361 l 351 361 l 351 0 l 201 0 m 878 0 l 583 439 l 740 474 l 1063 -1 l 878 0 m 351 506 l 685 506 q 771 528 732 506 q 833 588 810 550 q 857 669 857 625 q 831 751 857 715 q 763 807 806 786 q 667 828 719 828 l 351 828 l 351 506 m 497 1043 l 331 1186 l 383 1232 l 578 1144 l 536 1144 l 731 1232 l 783 1186 l 617 1043 l 497 1043 z "},"Ŗ":{"ha":1211,"x_min":201,"x_max":1063,"o":"m 201 0 l 201 972 l 701 972 q 857 932 786 972 q 971 823 928 892 q 1014 668 1014 754 q 969 515 1014 585 q 849 403 924 444 q 686 361 775 361 l 351 361 l 351 0 l 201 0 m 878 0 l 583 439 l 740 474 l 1063 -1 l 878 0 m 351 506 l 685 506 q 771 528 732 506 q 833 588 810 550 q 857 669 857 625 q 831 751 857 715 q 763 807 806 786 q 667 828 719 828 l 351 828 l 351 506 m 529 -337 l 496 -279 q 532 -263 515 -275 q 560 -236 549 -251 q 571 -207 571 -221 q 564 -191 571 -196 q 543 -182 557 -186 q 514 -167 525 -178 q 503 -131 503 -156 q 528 -81 503 -99 q 593 -62 554 -62 q 668 -90 635 -62 q 701 -169 701 -117 q 685 -228 701 -201 q 642 -276 668 -256 q 587 -312 617 -297 q 529 -337 557 -328 z "},"Ȑ":{"ha":1211,"x_min":196,"x_max":1063,"o":"m 201 0 l 201 972 l 701 972 q 857 932 786 972 q 971 823 928 892 q 1014 668 1014 754 q 969 515 1014 585 q 849 403 924 444 q 686 361 775 361 l 351 361 l 351 0 l 201 0 m 878 0 l 583 439 l 740 474 l 1063 -1 l 878 0 m 351 506 l 685 506 q 771 528 732 506 q 833 588 810 550 q 857 669 857 625 q 831 751 857 715 q 763 807 806 786 q 667 828 719 828 l 351 828 l 351 506 m 701 1033 l 472 1185 l 572 1290 l 754 1100 l 701 1033 m 425 1033 l 196 1185 l 296 1290 l 478 1100 l 425 1033 z "},"Ṛ":{"ha":1211,"x_min":201,"x_max":1063,"o":"m 201 0 l 201 972 l 701 972 q 857 932 786 972 q 971 823 928 892 q 1014 668 1014 754 q 969 515 1014 585 q 849 403 924 444 q 686 361 775 361 l 351 361 l 351 0 l 201 0 m 878 0 l 583 439 l 740 474 l 1063 -1 l 878 0 m 351 506 l 685 506 q 771 528 732 506 q 833 588 810 550 q 857 669 857 625 q 831 751 857 715 q 763 807 806 786 q 667 828 719 828 l 351 828 l 351 506 m 599 -286 q 527 -262 551 -286 q 503 -196 503 -237 q 527 -132 503 -158 q 599 -106 551 -106 q 670 -130 646 -106 q 694 -196 694 -154 q 670 -260 694 -233 q 599 -286 646 -286 z "},"Ȓ":{"ha":1211,"x_min":201,"x_max":1063,"o":"m 201 0 l 201 972 l 701 972 q 857 932 786 972 q 971 823 928 892 q 1014 668 1014 754 q 969 515 1014 585 q 849 403 924 444 q 686 361 775 361 l 351 361 l 351 0 l 201 0 m 878 0 l 583 439 l 740 474 l 1063 -1 l 878 0 m 351 506 l 685 506 q 771 528 732 506 q 833 588 810 550 q 857 669 857 625 q 831 751 857 715 q 763 807 806 786 q 667 828 719 828 l 351 828 l 351 506 m 435 1035 l 332 1051 q 376 1144 344 1101 q 453 1212 407 1186 q 557 1238 500 1238 q 661 1212 615 1238 q 739 1144 707 1186 q 782 1051 771 1101 l 679 1035 q 632 1097 664 1069 q 557 1125 600 1125 q 482 1097 514 1125 q 435 1035 450 1069 z "},"Ṟ":{"ha":1211,"x_min":201,"x_max":1063,"o":"m 201 0 l 201 972 l 701 972 q 857 932 786 972 q 971 823 928 892 q 1014 668 1014 754 q 969 515 1014 585 q 849 403 924 444 q 686 361 775 361 l 351 361 l 351 0 l 201 0 m 878 0 l 583 439 l 740 474 l 1063 -1 l 878 0 m 351 506 l 685 506 q 771 528 732 506 q 833 588 810 550 q 857 669 857 625 q 831 751 857 715 q 763 807 806 786 q 667 828 719 828 l 351 828 l 351 506 m 403 -247 l 403 -144 l 793 -144 l 793 -247 l 403 -247 z "},"S":{"ha":1108,"x_min":131,"x_max":975,"o":"m 564 -14 q 392 7 471 -14 q 247 69 313 28 q 131 175 182 111 l 228 297 q 388 161 308 201 q 571 121 468 121 q 691 138 635 121 q 783 188 747 156 q 818 267 818 221 q 801 319 818 297 q 755 358 783 342 q 690 385 726 374 q 614 403 653 396 q 538 417 575 411 q 386 453 453 431 q 273 512 319 476 q 203 595 226 547 q 179 706 179 643 q 208 822 179 769 q 290 910 238 874 q 414 967 343 947 q 568 986 485 986 q 728 967 656 986 q 857 909 800 947 q 951 815 914 871 l 849 708 q 771 786 815 754 q 674 835 726 818 q 564 851 622 851 q 447 835 497 851 q 366 788 396 818 q 336 717 336 758 q 353 658 336 683 q 403 614 371 632 q 482 583 435 596 q 590 561 529 571 q 741 528 671 549 q 864 478 811 508 q 946 403 917 447 q 975 294 975 358 q 924 132 975 201 q 782 24 874 63 q 564 -14 690 -14 z "},"Ś":{"ha":1108,"x_min":131,"x_max":975,"o":"m 564 -14 q 392 7 471 -14 q 247 69 313 28 q 131 175 182 111 l 228 297 q 388 161 308 201 q 571 121 468 121 q 691 138 635 121 q 783 188 747 156 q 818 267 818 221 q 801 319 818 297 q 755 358 783 342 q 690 385 726 374 q 614 403 653 396 q 538 417 575 411 q 386 453 453 431 q 273 512 319 476 q 203 595 226 547 q 179 706 179 643 q 208 822 179 769 q 290 910 238 874 q 414 967 343 947 q 568 986 485 986 q 728 967 656 986 q 857 909 800 947 q 951 815 914 871 l 849 708 q 771 786 815 754 q 674 835 726 818 q 564 851 622 851 q 447 835 497 851 q 366 788 396 818 q 336 717 336 758 q 353 658 336 683 q 403 614 371 632 q 482 583 435 596 q 590 561 529 571 q 741 528 671 549 q 864 478 811 508 q 946 403 917 447 q 975 294 975 358 q 924 132 975 201 q 782 24 874 63 q 564 -14 690 -14 m 474 1049 l 435 1121 l 689 1278 l 754 1153 l 474 1049 z "},"Ṥ":{"ha":1108,"x_min":131,"x_max":975,"o":"m 564 -14 q 392 7 471 -14 q 247 69 313 28 q 131 175 182 111 l 228 297 q 388 161 308 201 q 571 121 468 121 q 691 138 635 121 q 783 188 747 156 q 818 267 818 221 q 801 319 818 297 q 755 358 783 342 q 690 385 726 374 q 614 403 653 396 q 538 417 575 411 q 386 453 453 431 q 273 512 319 476 q 203 595 226 547 q 179 706 179 643 q 208 822 179 769 q 290 910 238 874 q 414 967 343 947 q 568 986 485 986 q 728 967 656 986 q 857 909 800 947 q 951 815 914 871 l 849 708 q 771 786 815 754 q 674 835 726 818 q 564 851 622 851 q 447 835 497 851 q 366 788 396 818 q 336 717 336 758 q 353 658 336 683 q 403 614 371 632 q 482 583 435 596 q 590 561 529 571 q 741 528 671 549 q 864 478 811 508 q 946 403 917 447 q 975 294 975 358 q 924 132 975 201 q 782 24 874 63 q 564 -14 690 -14 m 672 1043 l 600 1093 l 728 1289 l 835 1210 l 672 1043 m 458 1054 q 388 1078 413 1054 q 363 1144 363 1101 q 388 1210 363 1185 q 458 1235 414 1235 q 529 1211 504 1235 q 554 1144 554 1188 q 528 1079 554 1104 q 458 1054 503 1054 z "},"Š":{"ha":1108,"x_min":131,"x_max":975,"o":"m 564 -14 q 392 7 471 -14 q 247 69 313 28 q 131 175 182 111 l 228 297 q 388 161 308 201 q 571 121 468 121 q 691 138 635 121 q 783 188 747 156 q 818 267 818 221 q 801 319 818 297 q 755 358 783 342 q 690 385 726 374 q 614 403 653 396 q 538 417 575 411 q 386 453 453 431 q 273 512 319 476 q 203 595 226 547 q 179 706 179 643 q 208 822 179 769 q 290 910 238 874 q 414 967 343 947 q 568 986 485 986 q 728 967 656 986 q 857 909 800 947 q 951 815 914 871 l 849 708 q 771 786 815 754 q 674 835 726 818 q 564 851 622 851 q 447 835 497 851 q 366 788 396 818 q 336 717 336 758 q 353 658 336 683 q 403 614 371 632 q 482 583 435 596 q 590 561 529 571 q 741 528 671 549 q 864 478 811 508 q 946 403 917 447 q 975 294 975 358 q 924 132 975 201 q 782 24 874 63 q 564 -14 690 -14 m 517 1051 l 350 1194 l 403 1240 l 597 1153 l 556 1153 l 750 1240 l 803 1194 l 636 1051 l 517 1051 z "},"Ṧ":{"ha":1108,"x_min":131,"x_max":975,"o":"m 564 -14 q 392 7 471 -14 q 247 69 313 28 q 131 175 182 111 l 228 297 q 388 161 308 201 q 571 121 468 121 q 691 138 635 121 q 783 188 747 156 q 818 267 818 221 q 801 319 818 297 q 755 358 783 342 q 690 385 726 374 q 614 403 653 396 q 538 417 575 411 q 386 453 453 431 q 273 512 319 476 q 203 595 226 547 q 179 706 179 643 q 208 822 179 769 q 290 910 238 874 q 414 967 343 947 q 568 986 485 986 q 728 967 656 986 q 857 909 800 947 q 951 815 914 871 l 849 708 q 771 786 815 754 q 674 835 726 818 q 564 851 622 851 q 447 835 497 851 q 366 788 396 818 q 336 717 336 758 q 353 658 336 683 q 403 614 371 632 q 482 583 435 596 q 590 561 529 571 q 741 528 671 549 q 864 478 811 508 q 946 403 917 447 q 975 294 975 358 q 924 132 975 201 q 782 24 874 63 q 564 -14 690 -14 m 517 1051 l 350 1194 l 403 1240 l 597 1153 l 556 1153 l 750 1240 l 803 1194 l 636 1051 l 517 1051 m 576 1263 q 504 1288 528 1263 q 481 1353 481 1313 q 504 1415 481 1388 q 576 1443 528 1443 q 649 1418 625 1443 q 672 1353 672 1393 q 649 1290 672 1318 q 576 1263 625 1263 z "},"Ş":{"ha":1108,"x_min":131,"x_max":975,"o":"m 564 -14 q 392 7 471 -14 q 247 69 313 28 q 131 175 182 111 l 228 297 q 388 161 308 201 q 571 121 468 121 q 691 138 635 121 q 783 188 747 156 q 818 267 818 221 q 801 319 818 297 q 755 358 783 342 q 690 385 726 374 q 614 403 653 396 q 538 417 575 411 q 386 453 453 431 q 273 512 319 476 q 203 595 226 547 q 179 706 179 643 q 208 822 179 769 q 290 910 238 874 q 414 967 343 947 q 568 986 485 986 q 728 967 656 986 q 857 909 800 947 q 951 815 914 871 l 849 708 q 771 786 815 754 q 674 835 726 818 q 564 851 622 851 q 447 835 497 851 q 366 788 396 818 q 336 717 336 758 q 353 658 336 683 q 403 614 371 632 q 482 583 435 596 q 590 561 529 571 q 741 528 671 549 q 864 478 811 508 q 946 403 917 447 q 975 294 975 358 q 924 132 975 201 q 782 24 874 63 q 564 -14 690 -14 m 472 -339 l 463 -269 q 538 -260 500 -268 q 600 -235 575 -251 q 625 -197 625 -218 q 601 -164 625 -176 q 545 -145 576 -151 q 493 -139 514 -139 l 476 -117 l 575 33 l 657 33 l 597 -64 q 697 -108 657 -76 q 736 -193 736 -139 q 712 -258 736 -231 q 648 -305 688 -286 q 562 -332 608 -324 q 472 -339 515 -340 z "},"Ŝ":{"ha":1108,"x_min":131,"x_max":975,"o":"m 564 -14 q 392 7 471 -14 q 247 69 313 28 q 131 175 182 111 l 228 297 q 388 161 308 201 q 571 121 468 121 q 691 138 635 121 q 783 188 747 156 q 818 267 818 221 q 801 319 818 297 q 755 358 783 342 q 690 385 726 374 q 614 403 653 396 q 538 417 575 411 q 386 453 453 431 q 273 512 319 476 q 203 595 226 547 q 179 706 179 643 q 208 822 179 769 q 290 910 238 874 q 414 967 343 947 q 568 986 485 986 q 728 967 656 986 q 857 909 800 947 q 951 815 914 871 l 849 708 q 771 786 815 754 q 674 835 726 818 q 564 851 622 851 q 447 835 497 851 q 366 788 396 818 q 336 717 336 758 q 353 658 336 683 q 403 614 371 632 q 482 583 435 596 q 590 561 529 571 q 741 528 671 549 q 864 478 811 508 q 946 403 917 447 q 975 294 975 358 q 924 132 975 201 q 782 24 874 63 q 564 -14 690 -14 m 404 1049 l 353 1097 l 525 1238 l 626 1238 l 799 1097 l 747 1049 l 556 1139 l 596 1139 l 404 1049 z "},"Ș":{"ha":1108,"x_min":131,"x_max":975,"o":"m 564 -14 q 392 7 471 -14 q 247 69 313 28 q 131 175 182 111 l 228 297 q 388 161 308 201 q 571 121 468 121 q 691 138 635 121 q 783 188 747 156 q 818 267 818 221 q 801 319 818 297 q 755 358 783 342 q 690 385 726 374 q 614 403 653 396 q 538 417 575 411 q 386 453 453 431 q 273 512 319 476 q 203 595 226 547 q 179 706 179 643 q 208 822 179 769 q 290 910 238 874 q 414 967 343 947 q 568 986 485 986 q 728 967 656 986 q 857 909 800 947 q 951 815 914 871 l 849 708 q 771 786 815 754 q 674 835 726 818 q 564 851 622 851 q 447 835 497 851 q 366 788 396 818 q 336 717 336 758 q 353 658 336 683 q 403 614 371 632 q 482 583 435 596 q 590 561 529 571 q 741 528 671 549 q 864 478 811 508 q 946 403 917 447 q 975 294 975 358 q 924 132 975 201 q 782 24 874 63 q 564 -14 690 -14 m 531 -337 l 497 -279 q 533 -263 517 -275 q 561 -236 550 -251 q 572 -207 572 -221 q 565 -191 572 -196 q 544 -182 558 -186 q 515 -167 526 -178 q 504 -131 504 -156 q 530 -81 504 -99 q 594 -62 556 -62 q 669 -90 636 -62 q 703 -169 703 -117 q 686 -228 703 -201 q 644 -276 669 -256 q 588 -312 618 -297 q 531 -337 558 -328 z "},"Ṡ":{"ha":1108,"x_min":131,"x_max":975,"o":"m 564 -14 q 392 7 471 -14 q 247 69 313 28 q 131 175 182 111 l 228 297 q 388 161 308 201 q 571 121 468 121 q 691 138 635 121 q 783 188 747 156 q 818 267 818 221 q 801 319 818 297 q 755 358 783 342 q 690 385 726 374 q 614 403 653 396 q 538 417 575 411 q 386 453 453 431 q 273 512 319 476 q 203 595 226 547 q 179 706 179 643 q 208 822 179 769 q 290 910 238 874 q 414 967 343 947 q 568 986 485 986 q 728 967 656 986 q 857 909 800 947 q 951 815 914 871 l 849 708 q 771 786 815 754 q 674 835 726 818 q 564 851 622 851 q 447 835 497 851 q 366 788 396 818 q 336 717 336 758 q 353 658 336 683 q 403 614 371 632 q 482 583 435 596 q 590 561 529 571 q 741 528 671 549 q 864 478 811 508 q 946 403 917 447 q 975 294 975 358 q 924 132 975 201 q 782 24 874 63 q 564 -14 690 -14 m 576 1054 q 504 1079 528 1054 q 481 1144 481 1104 q 504 1207 481 1179 q 576 1235 528 1235 q 649 1210 625 1235 q 672 1144 672 1185 q 649 1082 672 1110 q 576 1054 625 1054 z "},"Ṣ":{"ha":1108,"x_min":131,"x_max":975,"o":"m 564 -14 q 392 7 471 -14 q 247 69 313 28 q 131 175 182 111 l 228 297 q 388 161 308 201 q 571 121 468 121 q 691 138 635 121 q 783 188 747 156 q 818 267 818 221 q 801 319 818 297 q 755 358 783 342 q 690 385 726 374 q 614 403 653 396 q 538 417 575 411 q 386 453 453 431 q 273 512 319 476 q 203 595 226 547 q 179 706 179 643 q 208 822 179 769 q 290 910 238 874 q 414 967 343 947 q 568 986 485 986 q 728 967 656 986 q 857 909 800 947 q 951 815 914 871 l 849 708 q 771 786 815 754 q 674 835 726 818 q 564 851 622 851 q 447 835 497 851 q 366 788 396 818 q 336 717 336 758 q 353 658 336 683 q 403 614 371 632 q 482 583 435 596 q 590 561 529 571 q 741 528 671 549 q 864 478 811 508 q 946 403 917 447 q 975 294 975 358 q 924 132 975 201 q 782 24 874 63 q 564 -14 690 -14 m 600 -286 q 528 -262 553 -286 q 504 -196 504 -237 q 528 -132 504 -158 q 600 -106 553 -106 q 672 -130 647 -106 q 696 -196 696 -154 q 672 -260 696 -233 q 600 -286 647 -286 z "},"Ṩ":{"ha":1108,"x_min":131,"x_max":975,"o":"m 564 -14 q 392 7 471 -14 q 247 69 313 28 q 131 175 182 111 l 228 297 q 388 161 308 201 q 571 121 468 121 q 691 138 635 121 q 783 188 747 156 q 818 267 818 221 q 801 319 818 297 q 755 358 783 342 q 690 385 726 374 q 614 403 653 396 q 538 417 575 411 q 386 453 453 431 q 273 512 319 476 q 203 595 226 547 q 179 706 179 643 q 208 822 179 769 q 290 910 238 874 q 414 967 343 947 q 568 986 485 986 q 728 967 656 986 q 857 909 800 947 q 951 815 914 871 l 849 708 q 771 786 815 754 q 674 835 726 818 q 564 851 622 851 q 447 835 497 851 q 366 788 396 818 q 336 717 336 758 q 353 658 336 683 q 403 614 371 632 q 482 583 435 596 q 590 561 529 571 q 741 528 671 549 q 864 478 811 508 q 946 403 917 447 q 975 294 975 358 q 924 132 975 201 q 782 24 874 63 q 564 -14 690 -14 m 600 -286 q 528 -262 553 -286 q 504 -196 504 -237 q 528 -132 504 -158 q 600 -106 553 -106 q 672 -130 647 -106 q 696 -196 696 -154 q 672 -260 696 -233 q 600 -286 647 -286 m 576 1054 q 504 1079 528 1054 q 481 1144 481 1104 q 504 1207 481 1179 q 576 1235 528 1235 q 649 1210 625 1235 q 672 1144 672 1185 q 649 1082 672 1110 q 576 1054 625 1054 z "},"ẞ":{"ha":1313,"x_min":201,"x_max":1179,"o":"m 860 -14 q 738 1 796 -14 q 629 44 679 17 q 538 110 579 72 l 631 221 q 734 151 676 182 q 860 121 792 121 q 985 151 936 121 q 1035 239 1035 182 q 1012 299 1035 275 q 942 347 989 324 q 825 399 896 369 q 709 460 758 426 q 632 540 660 494 q 604 646 604 586 q 631 755 604 707 q 705 835 658 803 q 813 885 751 868 q 942 901 874 901 l 972 846 q 866 871 933 860 q 725 882 799 882 q 583 854 650 882 q 465 768 515 826 q 385 622 414 710 q 354 414 356 535 l 351 0 l 201 0 l 203 414 q 267 738 204 606 q 446 940 331 871 q 719 1008 561 1008 q 898 994 814 1008 q 1069 950 982 981 l 1081 846 q 910 813 983 833 q 794 758 836 792 q 753 675 753 725 q 774 617 753 643 q 835 569 796 590 q 931 525 875 547 q 1064 464 1008 496 q 1149 384 1119 432 q 1179 256 1179 336 q 1138 120 1179 182 q 1024 22 1096 58 q 860 -14 953 -14 z "},"Ə":{"ha":1229,"x_min":129,"x_max":1100,"o":"m 615 -14 q 437 19 522 -14 q 284 111 351 51 q 175 253 217 171 q 129 435 133 336 l 129 546 l 1015 546 l 1028 411 l 279 411 q 321 297 290 350 q 397 205 351 244 q 498 143 442 165 q 615 121 554 121 q 747 147 686 121 q 854 221 808 172 q 926 337 900 269 q 951 488 951 404 q 926 643 951 575 q 854 758 900 711 q 747 828 808 804 q 611 851 685 851 q 501 840 553 851 q 405 804 450 829 q 318 739 360 779 l 224 828 q 335 919 276 883 q 463 970 394 954 q 611 986 531 986 q 800 947 711 986 q 956 840 889 908 q 1062 681 1024 771 q 1100 486 1100 590 q 1063 292 1100 382 q 958 133 1025 201 q 803 25 890 64 q 615 -14 715 -14 z "},"T":{"ha":1010,"x_min":99,"x_max":911,"o":"m 426 0 l 426 828 l 99 828 l 99 972 l 911 972 l 911 828 l 576 828 l 576 0 l 426 0 z "},"Ŧ":{"ha":1010,"x_min":99,"x_max":911,"o":"m 264 428 l 264 549 l 746 549 l 746 428 l 264 428 m 426 0 l 426 828 l 99 828 l 99 972 l 911 972 l 911 828 l 576 828 l 576 0 l 426 0 z "},"Ť":{"ha":1010,"x_min":99,"x_max":911,"o":"m 426 0 l 426 828 l 99 828 l 99 972 l 911 972 l 911 828 l 576 828 l 576 0 l 426 0 m 446 1051 l 279 1194 l 332 1240 l 526 1153 l 485 1153 l 679 1240 l 732 1194 l 565 1051 l 446 1051 z "},"Ţ":{"ha":1010,"x_min":99,"x_max":911,"o":"m 426 0 l 426 828 l 99 828 l 99 972 l 911 972 l 911 828 l 576 828 l 576 0 l 426 0 m 378 -339 l 368 -269 q 443 -260 406 -268 q 506 -235 481 -251 q 531 -197 531 -218 q 506 -164 531 -176 q 451 -145 482 -151 q 399 -139 419 -139 l 382 -117 l 481 33 l 563 33 l 503 -64 q 602 -108 563 -76 q 642 -193 642 -139 q 617 -258 642 -231 q 553 -305 593 -286 q 467 -332 514 -324 q 378 -339 421 -340 z "},"Ț":{"ha":1010,"x_min":99,"x_max":911,"o":"m 426 0 l 426 828 l 99 828 l 99 972 l 911 972 l 911 828 l 576 828 l 576 0 l 426 0 m 436 -337 l 403 -279 q 439 -263 422 -275 q 467 -236 456 -251 q 478 -207 478 -221 q 471 -191 478 -196 q 450 -182 464 -186 q 421 -167 432 -178 q 410 -131 410 -156 q 435 -81 410 -99 q 500 -62 461 -62 q 575 -90 542 -62 q 608 -169 608 -117 q 592 -228 608 -201 q 549 -276 575 -256 q 494 -312 524 -297 q 436 -337 464 -328 z "},"Ṭ":{"ha":1010,"x_min":99,"x_max":911,"o":"m 426 0 l 426 828 l 99 828 l 99 972 l 911 972 l 911 828 l 576 828 l 576 0 l 426 0 m 506 -286 q 434 -262 458 -286 q 410 -196 410 -237 q 434 -132 410 -158 q 506 -106 458 -106 q 577 -130 553 -106 q 601 -196 601 -154 q 577 -260 601 -233 q 506 -286 553 -286 z "},"Ṯ":{"ha":1010,"x_min":99,"x_max":911,"o":"m 426 0 l 426 828 l 99 828 l 99 972 l 911 972 l 911 828 l 576 828 l 576 0 l 426 0 m 310 -247 l 310 -144 l 700 -144 l 700 -247 l 310 -247 z "},"U":{"ha":1264,"x_min":186,"x_max":1078,"o":"m 632 -8 q 399 48 500 -8 q 242 203 299 104 q 186 425 186 301 l 186 974 l 336 974 l 336 433 q 376 281 336 349 q 483 176 415 214 q 632 138 550 138 q 787 176 718 138 q 895 281 856 214 q 935 433 935 349 l 935 974 l 1078 974 l 1078 425 q 1022 203 1078 301 q 865 48 965 104 q 632 -8 764 -8 z "},"Ú":{"ha":1264,"x_min":186,"x_max":1078,"o":"m 632 -8 q 399 48 500 -8 q 242 203 299 104 q 186 425 186 301 l 186 974 l 336 974 l 336 433 q 376 281 336 349 q 483 176 415 214 q 632 138 550 138 q 787 176 718 138 q 895 281 856 214 q 935 433 935 349 l 935 974 l 1078 974 l 1078 425 q 1022 203 1078 301 q 865 48 965 104 q 632 -8 764 -8 m 531 1049 l 492 1121 l 746 1278 l 811 1153 l 531 1049 z "},"Ŭ":{"ha":1264,"x_min":186,"x_max":1078,"o":"m 632 -8 q 399 48 500 -8 q 242 203 299 104 q 186 425 186 301 l 186 974 l 336 974 l 336 433 q 376 281 336 349 q 483 176 415 214 q 632 138 550 138 q 787 176 718 138 q 895 281 856 214 q 935 433 935 349 l 935 974 l 1078 974 l 1078 425 q 1022 203 1078 301 q 865 48 965 104 q 632 -8 764 -8 m 632 1043 q 528 1069 575 1043 q 451 1137 482 1094 q 407 1229 419 1179 l 510 1246 q 557 1183 525 1211 q 632 1156 589 1156 q 707 1183 675 1156 q 754 1246 739 1211 l 857 1229 q 814 1137 846 1179 q 736 1069 782 1094 q 632 1043 690 1043 z "},"Ǔ":{"ha":1264,"x_min":186,"x_max":1078,"o":"m 632 -8 q 399 48 500 -8 q 242 203 299 104 q 186 425 186 301 l 186 974 l 336 974 l 336 433 q 376 281 336 349 q 483 176 415 214 q 632 138 550 138 q 787 176 718 138 q 895 281 856 214 q 935 433 935 349 l 935 974 l 1078 974 l 1078 425 q 1022 203 1078 301 q 865 48 965 104 q 632 -8 764 -8 m 572 1051 l 406 1194 l 458 1240 l 653 1153 l 611 1153 l 806 1240 l 858 1194 l 692 1051 l 572 1051 z "},"Û":{"ha":1264,"x_min":186,"x_max":1078,"o":"m 632 -8 q 399 48 500 -8 q 242 203 299 104 q 186 425 186 301 l 186 974 l 336 974 l 336 433 q 376 281 336 349 q 483 176 415 214 q 632 138 550 138 q 787 176 718 138 q 895 281 856 214 q 935 433 935 349 l 935 974 l 1078 974 l 1078 425 q 1022 203 1078 301 q 865 48 965 104 q 632 -8 764 -8 m 460 1049 l 408 1097 l 581 1238 l 682 1238 l 854 1097 l 803 1049 l 611 1139 l 651 1139 l 460 1049 z "},"Ȕ":{"ha":1264,"x_min":186,"x_max":1078,"o":"m 632 -8 q 399 48 500 -8 q 242 203 299 104 q 186 425 186 301 l 186 974 l 336 974 l 336 433 q 376 281 336 349 q 483 176 415 214 q 632 138 550 138 q 787 176 718 138 q 895 281 856 214 q 935 433 935 349 l 935 974 l 1078 974 l 1078 425 q 1022 203 1078 301 q 865 48 965 104 q 632 -8 764 -8 m 776 1042 l 547 1193 l 647 1299 l 829 1108 l 776 1042 m 500 1042 l 271 1193 l 371 1299 l 553 1108 l 500 1042 z "},"Ü":{"ha":1264,"x_min":186,"x_max":1078,"o":"m 632 -8 q 399 48 500 -8 q 242 203 299 104 q 186 425 186 301 l 186 974 l 336 974 l 336 433 q 376 281 336 349 q 483 176 415 214 q 632 138 550 138 q 787 176 718 138 q 895 281 856 214 q 935 433 935 349 l 935 974 l 1078 974 l 1078 425 q 1022 203 1078 301 q 865 48 965 104 q 632 -8 764 -8 m 775 1054 q 703 1079 726 1054 q 679 1144 679 1104 q 703 1207 679 1179 q 775 1235 726 1235 q 847 1210 824 1235 q 871 1144 871 1185 q 847 1082 871 1110 q 775 1054 824 1054 m 489 1054 q 417 1079 440 1054 q 393 1144 393 1104 q 417 1207 393 1179 q 489 1235 440 1235 q 561 1210 538 1235 q 585 1144 585 1185 q 561 1082 585 1110 q 489 1054 538 1054 z "},"Ụ":{"ha":1264,"x_min":186,"x_max":1078,"o":"m 632 -8 q 399 48 500 -8 q 242 203 299 104 q 186 425 186 301 l 186 974 l 336 974 l 336 433 q 376 281 336 349 q 483 176 415 214 q 632 138 550 138 q 787 176 718 138 q 895 281 856 214 q 935 433 935 349 l 935 974 l 1078 974 l 1078 425 q 1022 203 1078 301 q 865 48 965 104 q 632 -8 764 -8 m 632 -286 q 560 -262 585 -286 q 536 -196 536 -237 q 560 -132 536 -158 q 632 -106 585 -106 q 703 -130 679 -106 q 728 -196 728 -154 q 703 -260 728 -233 q 632 -286 679 -286 z "},"Ù":{"ha":1264,"x_min":186,"x_max":1078,"o":"m 632 -8 q 399 48 500 -8 q 242 203 299 104 q 186 425 186 301 l 186 974 l 336 974 l 336 433 q 376 281 336 349 q 483 176 415 214 q 632 138 550 138 q 787 176 718 138 q 895 281 856 214 q 935 433 935 349 l 935 974 l 1078 974 l 1078 425 q 1022 203 1078 301 q 865 48 965 104 q 632 -8 764 -8 m 746 1049 l 465 1153 l 533 1278 l 788 1121 l 746 1049 z "},"Ủ":{"ha":1264,"x_min":186,"x_max":1078,"o":"m 632 -8 q 399 48 500 -8 q 242 203 299 104 q 186 425 186 301 l 186 974 l 336 974 l 336 433 q 376 281 336 349 q 483 176 415 214 q 632 138 550 138 q 787 176 718 138 q 895 281 856 214 q 935 433 935 349 l 935 974 l 1078 974 l 1078 425 q 1022 203 1078 301 q 865 48 965 104 q 632 -8 764 -8 m 600 1053 q 585 1080 590 1067 q 579 1106 579 1093 q 587 1133 579 1118 q 617 1164 594 1149 q 649 1188 640 1179 q 658 1206 658 1196 q 647 1224 658 1218 q 617 1229 635 1229 q 568 1222 594 1229 q 518 1204 542 1215 l 496 1292 q 558 1317 525 1308 q 619 1325 592 1325 q 730 1294 693 1325 q 767 1218 767 1263 q 751 1163 767 1183 q 715 1133 735 1143 q 678 1112 690 1121 q 667 1089 667 1103 q 668 1079 667 1083 q 671 1071 669 1075 l 600 1053 z "},"Ư":{"ha":1264,"x_min":186,"x_max":1233,"o":"m 632 -8 q 399 48 500 -8 q 242 203 299 104 q 186 425 186 301 l 186 974 l 336 974 l 336 433 q 376 281 336 349 q 483 176 415 214 q 632 138 550 138 q 787 176 718 138 q 895 281 856 214 q 935 433 935 349 l 935 974 l 975 974 q 1078 1015 1050 974 q 1106 1131 1106 1056 l 1233 1131 q 1211 1006 1233 1061 q 1145 918 1189 951 q 1036 881 1101 885 l 1078 942 l 1078 425 q 1022 203 1078 301 q 865 48 965 104 q 632 -8 764 -8 z "},"Ứ":{"ha":1264,"x_min":186,"x_max":1233,"o":"m 632 -8 q 399 48 500 -8 q 242 203 299 104 q 186 425 186 301 l 186 974 l 336 974 l 336 433 q 376 281 336 349 q 483 176 415 214 q 632 138 550 138 q 787 176 718 138 q 895 281 856 214 q 935 433 935 349 l 935 974 l 975 974 q 1078 1015 1050 974 q 1106 1131 1106 1056 l 1233 1131 q 1211 1006 1233 1061 q 1145 918 1189 951 q 1036 881 1101 885 l 1078 942 l 1078 425 q 1022 203 1078 301 q 865 48 965 104 q 632 -8 764 -8 m 531 1049 l 492 1121 l 746 1278 l 811 1153 l 531 1049 z "},"Ự":{"ha":1264,"x_min":186,"x_max":1233,"o":"m 632 -8 q 399 48 500 -8 q 242 203 299 104 q 186 425 186 301 l 186 974 l 336 974 l 336 433 q 376 281 336 349 q 483 176 415 214 q 632 138 550 138 q 787 176 718 138 q 895 281 856 214 q 935 433 935 349 l 935 974 l 975 974 q 1078 1015 1050 974 q 1106 1131 1106 1056 l 1233 1131 q 1211 1006 1233 1061 q 1145 918 1189 951 q 1036 881 1101 885 l 1078 942 l 1078 425 q 1022 203 1078 301 q 865 48 965 104 q 632 -8 764 -8 m 632 -286 q 560 -262 585 -286 q 536 -196 536 -237 q 560 -132 536 -158 q 632 -106 585 -106 q 703 -130 679 -106 q 728 -196 728 -154 q 703 -260 728 -233 q 632 -286 679 -286 z "},"Ừ":{"ha":1264,"x_min":186,"x_max":1233,"o":"m 632 -8 q 399 48 500 -8 q 242 203 299 104 q 186 425 186 301 l 186 974 l 336 974 l 336 433 q 376 281 336 349 q 483 176 415 214 q 632 138 550 138 q 787 176 718 138 q 895 281 856 214 q 935 433 935 349 l 935 974 l 975 974 q 1078 1015 1050 974 q 1106 1131 1106 1056 l 1233 1131 q 1211 1006 1233 1061 q 1145 918 1189 951 q 1036 881 1101 885 l 1078 942 l 1078 425 q 1022 203 1078 301 q 865 48 965 104 q 632 -8 764 -8 m 746 1049 l 465 1153 l 533 1278 l 788 1121 l 746 1049 z "},"Ử":{"ha":1264,"x_min":186,"x_max":1233,"o":"m 632 -8 q 399 48 500 -8 q 242 203 299 104 q 186 425 186 301 l 186 974 l 336 974 l 336 433 q 376 281 336 349 q 483 176 415 214 q 632 138 550 138 q 787 176 718 138 q 895 281 856 214 q 935 433 935 349 l 935 974 l 975 974 q 1078 1015 1050 974 q 1106 1131 1106 1056 l 1233 1131 q 1211 1006 1233 1061 q 1145 918 1189 951 q 1036 881 1101 885 l 1078 942 l 1078 425 q 1022 203 1078 301 q 865 48 965 104 q 632 -8 764 -8 m 600 1053 q 585 1080 590 1067 q 579 1106 579 1093 q 587 1133 579 1118 q 617 1164 594 1149 q 649 1188 640 1179 q 658 1206 658 1196 q 647 1224 658 1218 q 617 1229 635 1229 q 568 1222 594 1229 q 518 1204 542 1215 l 496 1292 q 558 1317 525 1308 q 619 1325 592 1325 q 730 1294 693 1325 q 767 1218 767 1263 q 751 1163 767 1183 q 715 1133 735 1143 q 678 1112 690 1121 q 667 1089 667 1103 q 668 1079 667 1083 q 671 1071 669 1075 l 600 1053 z "},"Ữ":{"ha":1264,"x_min":186,"x_max":1233,"o":"m 632 -8 q 399 48 500 -8 q 242 203 299 104 q 186 425 186 301 l 186 974 l 336 974 l 336 433 q 376 281 336 349 q 483 176 415 214 q 632 138 550 138 q 787 176 718 138 q 895 281 856 214 q 935 433 935 349 l 935 974 l 975 974 q 1078 1015 1050 974 q 1106 1131 1106 1056 l 1233 1131 q 1211 1006 1233 1061 q 1145 918 1189 951 q 1036 881 1101 885 l 1078 942 l 1078 425 q 1022 203 1078 301 q 865 48 965 104 q 632 -8 764 -8 m 735 1067 q 670 1077 703 1067 q 608 1099 638 1088 q 568 1114 585 1108 q 538 1119 551 1119 q 508 1106 519 1119 q 496 1067 496 1092 l 389 1067 q 438 1183 389 1142 q 547 1224 486 1224 q 604 1214 576 1224 q 658 1193 632 1204 q 697 1179 678 1185 q 728 1174 715 1174 q 758 1188 747 1174 q 768 1224 769 1201 l 874 1224 q 857 1147 874 1183 q 809 1089 840 1111 q 735 1067 778 1067 z "},"Ű":{"ha":1264,"x_min":186,"x_max":1078,"o":"m 632 -8 q 399 48 500 -8 q 242 203 299 104 q 186 425 186 301 l 186 974 l 336 974 l 336 433 q 376 281 336 349 q 483 176 415 214 q 632 138 550 138 q 787 176 718 138 q 895 281 856 214 q 935 433 935 349 l 935 974 l 1078 974 l 1078 425 q 1022 203 1078 301 q 865 48 965 104 q 632 -8 764 -8 m 479 1042 l 426 1108 l 608 1299 l 708 1193 l 479 1042 m 756 1042 l 703 1108 l 885 1299 l 985 1193 l 756 1042 z "},"Ȗ":{"ha":1264,"x_min":186,"x_max":1078,"o":"m 632 -8 q 399 48 500 -8 q 242 203 299 104 q 186 425 186 301 l 186 974 l 336 974 l 336 433 q 376 281 336 349 q 483 176 415 214 q 632 138 550 138 q 787 176 718 138 q 895 281 856 214 q 935 433 935 349 l 935 974 l 1078 974 l 1078 425 q 1022 203 1078 301 q 865 48 965 104 q 632 -8 764 -8 m 510 1043 l 407 1060 q 451 1152 419 1110 q 528 1220 482 1194 q 632 1246 575 1246 q 736 1220 690 1246 q 814 1152 782 1194 q 857 1060 846 1110 l 754 1043 q 707 1106 739 1078 q 632 1133 675 1133 q 557 1106 589 1133 q 510 1043 525 1078 z "},"Ū":{"ha":1264,"x_min":186,"x_max":1078,"o":"m 632 -8 q 399 48 500 -8 q 242 203 299 104 q 186 425 186 301 l 186 974 l 336 974 l 336 433 q 376 281 336 349 q 483 176 415 214 q 632 138 550 138 q 787 176 718 138 q 895 281 856 214 q 935 433 935 349 l 935 974 l 1078 974 l 1078 425 q 1022 203 1078 301 q 865 48 965 104 q 632 -8 764 -8 m 401 1093 l 401 1197 l 861 1197 l 861 1093 l 401 1093 z "},"Ṻ":{"ha":1264,"x_min":186,"x_max":1078,"o":"m 632 -8 q 399 48 500 -8 q 242 203 299 104 q 186 425 186 301 l 186 974 l 336 974 l 336 433 q 376 281 336 349 q 483 176 415 214 q 632 138 550 138 q 787 176 718 138 q 895 281 856 214 q 935 433 935 349 l 935 974 l 1078 974 l 1078 425 q 1022 203 1078 301 q 865 48 965 104 q 632 -8 764 -8 m 401 1093 l 401 1197 l 861 1197 l 861 1093 l 401 1093 m 775 1263 q 703 1288 726 1263 q 679 1353 679 1313 q 703 1415 679 1388 q 775 1443 726 1443 q 847 1418 824 1443 q 871 1353 871 1393 q 847 1290 871 1318 q 775 1263 824 1263 m 489 1263 q 417 1288 440 1263 q 393 1353 393 1313 q 417 1415 393 1388 q 489 1443 440 1443 q 561 1418 538 1443 q 585 1353 585 1393 q 561 1290 585 1318 q 489 1263 538 1263 z "},"Ų":{"ha":1264,"x_min":186,"x_max":1078,"o":"m 743 -278 q 637 -240 682 -278 q 592 -136 592 -201 q 617 -50 592 -89 q 680 21 642 -11 q 759 78 718 53 q 832 122 800 103 l 872 53 q 819 21 846 39 q 770 -18 793 3 q 733 -63 747 -39 q 718 -114 718 -87 q 731 -156 718 -140 q 765 -171 743 -171 q 794 -161 782 -171 q 817 -136 807 -151 l 894 -192 q 840 -251 882 -224 q 743 -278 797 -278 m 632 -8 q 399 48 500 -8 q 242 202 299 104 q 186 425 186 300 l 186 974 l 336 974 l 336 433 q 376 281 336 349 q 483 176 415 214 q 632 138 550 138 q 787 176 718 138 q 895 281 856 214 q 935 433 935 349 l 935 974 l 1078 974 l 1078 425 q 1022 202 1078 300 q 865 48 965 104 q 632 -8 764 -8 z "},"Ů":{"ha":1264,"x_min":186,"x_max":1078,"o":"m 632 -8 q 399 48 500 -8 q 242 203 299 104 q 186 425 186 301 l 186 974 l 336 974 l 336 433 q 376 281 336 349 q 483 176 415 214 q 632 138 550 138 q 787 176 718 138 q 895 281 856 214 q 935 433 935 349 l 935 974 l 1078 974 l 1078 425 q 1022 203 1078 301 q 865 48 965 104 q 632 -8 764 -8 m 631 1006 q 557 1026 592 1006 q 501 1079 522 1046 q 479 1151 479 1113 q 501 1226 479 1193 q 557 1279 522 1260 q 631 1299 592 1299 q 706 1279 671 1299 q 762 1226 740 1260 q 783 1151 783 1193 q 762 1079 783 1113 q 706 1026 740 1046 q 631 1006 671 1006 m 631 1088 q 680 1106 660 1088 q 700 1151 700 1125 q 679 1200 700 1183 q 631 1217 658 1217 q 583 1199 603 1217 q 563 1151 563 1181 q 583 1106 563 1125 q 631 1088 603 1088 z "},"Ũ":{"ha":1264,"x_min":186,"x_max":1078,"o":"m 632 -8 q 399 48 500 -8 q 242 203 299 104 q 186 425 186 301 l 186 974 l 336 974 l 336 433 q 376 281 336 349 q 483 176 415 214 q 632 138 550 138 q 787 176 718 138 q 895 281 856 214 q 935 433 935 349 l 935 974 l 1078 974 l 1078 425 q 1022 203 1078 301 q 865 48 965 104 q 632 -8 764 -8 m 735 1067 q 670 1077 703 1067 q 608 1099 638 1088 q 568 1114 585 1108 q 538 1119 551 1119 q 508 1106 519 1119 q 496 1067 496 1092 l 389 1067 q 438 1183 389 1142 q 547 1224 486 1224 q 604 1214 576 1224 q 658 1193 632 1204 q 697 1179 678 1185 q 728 1174 715 1174 q 758 1188 747 1174 q 768 1224 769 1201 l 874 1224 q 857 1147 874 1183 q 809 1089 840 1111 q 735 1067 778 1067 z "},"Ṹ":{"ha":1264,"x_min":186,"x_max":1078,"o":"m 632 -8 q 399 48 500 -8 q 242 203 299 104 q 186 425 186 301 l 186 974 l 336 974 l 336 433 q 376 281 336 349 q 483 176 415 214 q 632 138 550 138 q 787 176 718 138 q 895 281 856 214 q 935 433 935 349 l 935 974 l 1078 974 l 1078 425 q 1022 203 1078 301 q 865 48 965 104 q 632 -8 764 -8 m 735 1067 q 670 1077 703 1067 q 608 1099 638 1088 q 568 1114 585 1108 q 538 1119 551 1119 q 508 1106 519 1119 q 496 1067 496 1092 l 389 1067 q 438 1183 389 1142 q 547 1224 486 1224 q 604 1214 576 1224 q 658 1193 632 1204 q 697 1179 678 1185 q 728 1174 715 1174 q 758 1188 747 1174 q 768 1224 769 1201 l 874 1224 q 857 1147 874 1183 q 809 1089 840 1111 q 735 1067 778 1067 m 531 1257 l 492 1329 l 746 1486 l 811 1361 l 531 1257 z "},"V":{"ha":1178,"x_min":86,"x_max":1092,"o":"m 508 0 l 86 972 l 257 972 l 504 388 q 531 322 515 358 q 563 248 547 286 q 594 174 579 210 q 618 108 608 139 l 578 107 q 609 192 590 144 q 648 290 628 239 q 686 386 668 340 l 915 972 l 1092 972 l 674 0 l 508 0 z "},"W":{"ha":1601,"x_min":86,"x_max":1515,"o":"m 424 0 l 86 972 l 249 972 l 447 385 q 466 326 457 358 q 484 260 475 293 q 500 197 493 226 q 514 143 507 167 l 463 144 q 494 242 479 199 q 523 320 508 285 q 550 386 538 356 l 726 804 l 867 804 l 1039 388 q 1070 310 1056 350 q 1099 232 1085 271 q 1121 157 1113 193 l 1074 147 q 1086 201 1081 178 q 1098 247 1092 225 q 1111 291 1104 269 q 1126 338 1118 313 q 1144 392 1135 363 l 1354 972 l 1515 972 l 1154 0 l 1050 0 l 779 633 l 800 628 l 532 0 l 424 0 z "},"Ẃ":{"ha":1601,"x_min":86,"x_max":1515,"o":"m 424 0 l 86 972 l 249 972 l 447 385 q 466 326 457 358 q 484 260 475 293 q 500 197 493 226 q 514 143 507 167 l 463 144 q 494 242 479 199 q 523 320 508 285 q 550 386 538 356 l 726 804 l 867 804 l 1039 388 q 1070 310 1056 350 q 1099 232 1085 271 q 1121 157 1113 193 l 1074 147 q 1086 201 1081 178 q 1098 247 1092 225 q 1111 291 1104 269 q 1126 338 1118 313 q 1144 392 1135 363 l 1354 972 l 1515 972 l 1154 0 l 1050 0 l 779 633 l 800 628 l 532 0 l 424 0 m 699 1049 l 660 1121 l 914 1278 l 979 1153 l 699 1049 z "},"Ŵ":{"ha":1601,"x_min":86,"x_max":1515,"o":"m 424 0 l 86 972 l 249 972 l 447 385 q 466 326 457 358 q 484 260 475 293 q 500 197 493 226 q 514 143 507 167 l 463 144 q 494 242 479 199 q 523 320 508 285 q 550 386 538 356 l 726 804 l 867 804 l 1039 388 q 1070 310 1056 350 q 1099 232 1085 271 q 1121 157 1113 193 l 1074 147 q 1086 201 1081 178 q 1098 247 1092 225 q 1111 291 1104 269 q 1126 338 1118 313 q 1144 392 1135 363 l 1354 972 l 1515 972 l 1154 0 l 1050 0 l 779 633 l 800 628 l 532 0 l 424 0 m 628 1049 l 576 1097 l 749 1238 l 850 1238 l 1022 1097 l 971 1049 l 779 1139 l 819 1139 l 628 1049 z "},"Ẅ":{"ha":1601,"x_min":86,"x_max":1515,"o":"m 424 0 l 86 972 l 249 972 l 447 385 q 466 326 457 358 q 484 260 475 293 q 500 197 493 226 q 514 143 507 167 l 463 144 q 494 242 479 199 q 523 320 508 285 q 550 386 538 356 l 726 804 l 867 804 l 1039 388 q 1070 310 1056 350 q 1099 232 1085 271 q 1121 157 1113 193 l 1074 147 q 1086 201 1081 178 q 1098 247 1092 225 q 1111 291 1104 269 q 1126 338 1118 313 q 1144 392 1135 363 l 1354 972 l 1515 972 l 1154 0 l 1050 0 l 779 633 l 800 628 l 532 0 l 424 0 m 943 1054 q 871 1079 894 1054 q 847 1144 847 1104 q 871 1207 847 1179 q 943 1235 894 1235 q 1015 1210 992 1235 q 1039 1144 1039 1185 q 1015 1082 1039 1110 q 943 1054 992 1054 m 657 1054 q 585 1079 608 1054 q 561 1144 561 1104 q 585 1207 561 1179 q 657 1235 608 1235 q 729 1210 706 1235 q 753 1144 753 1185 q 729 1082 753 1110 q 657 1054 706 1054 z "},"Ẁ":{"ha":1601,"x_min":86,"x_max":1515,"o":"m 424 0 l 86 972 l 249 972 l 447 385 q 466 326 457 358 q 484 260 475 293 q 500 197 493 226 q 514 143 507 167 l 463 144 q 494 242 479 199 q 523 320 508 285 q 550 386 538 356 l 726 804 l 867 804 l 1039 388 q 1070 310 1056 350 q 1099 232 1085 271 q 1121 157 1113 193 l 1074 147 q 1086 201 1081 178 q 1098 247 1092 225 q 1111 291 1104 269 q 1126 338 1118 313 q 1144 392 1135 363 l 1354 972 l 1515 972 l 1154 0 l 1050 0 l 779 633 l 800 628 l 532 0 l 424 0 m 914 1049 l 633 1153 l 701 1278 l 956 1121 l 914 1049 z "},"X":{"ha":1167,"x_min":86,"x_max":1081,"o":"m 882 0 l 533 438 l 93 972 l 292 972 l 628 547 l 1081 0 l 882 0 m 86 0 l 508 529 l 597 419 l 274 0 l 86 0 m 657 451 l 571 557 l 878 972 l 1065 972 l 657 451 z "},"Y":{"ha":1150,"x_min":68,"x_max":1082,"o":"m 514 0 l 514 457 l 533 367 l 68 972 l 264 972 l 608 508 l 575 510 l 901 972 l 1082 972 l 651 381 l 664 468 l 664 0 l 514 0 z "},"Ý":{"ha":1150,"x_min":68,"x_max":1082,"o":"m 514 0 l 514 457 l 533 367 l 68 972 l 264 972 l 608 508 l 575 510 l 901 972 l 1082 972 l 651 381 l 664 468 l 664 0 l 514 0 m 472 1049 l 433 1121 l 688 1278 l 753 1153 l 472 1049 z "},"Ŷ":{"ha":1150,"x_min":68,"x_max":1082,"o":"m 514 0 l 514 457 l 533 367 l 68 972 l 264 972 l 608 508 l 575 510 l 901 972 l 1082 972 l 651 381 l 664 468 l 664 0 l 514 0 m 403 1049 l 351 1097 l 524 1238 l 625 1238 l 797 1097 l 746 1049 l 554 1139 l 594 1139 l 403 1049 z "},"Ÿ":{"ha":1150,"x_min":68,"x_max":1082,"o":"m 514 0 l 514 457 l 533 367 l 68 972 l 264 972 l 608 508 l 575 510 l 901 972 l 1082 972 l 651 381 l 664 468 l 664 0 l 514 0 m 718 1054 q 646 1079 669 1054 q 622 1144 622 1104 q 646 1207 622 1179 q 718 1235 669 1235 q 790 1210 767 1235 q 814 1144 814 1185 q 790 1082 814 1110 q 718 1054 767 1054 m 432 1054 q 360 1079 383 1054 q 336 1144 336 1104 q 360 1207 336 1179 q 432 1235 383 1235 q 504 1210 481 1235 q 528 1144 528 1185 q 504 1082 528 1110 q 432 1054 481 1054 z "},"Ẏ":{"ha":1150,"x_min":68,"x_max":1082,"o":"m 514 0 l 514 457 l 533 367 l 68 972 l 264 972 l 608 508 l 575 510 l 901 972 l 1082 972 l 651 381 l 664 468 l 664 0 l 514 0 m 575 1054 q 503 1079 526 1054 q 479 1144 479 1104 q 503 1207 479 1179 q 575 1235 526 1235 q 647 1210 624 1235 q 671 1144 671 1185 q 647 1082 671 1110 q 575 1054 624 1054 z "},"Ỵ":{"ha":1150,"x_min":68,"x_max":1082,"o":"m 514 0 l 514 457 l 533 367 l 68 972 l 264 972 l 608 508 l 575 510 l 901 972 l 1082 972 l 651 381 l 664 468 l 664 0 l 514 0 m 575 -286 q 503 -262 528 -286 q 479 -196 479 -237 q 503 -132 479 -158 q 575 -106 528 -106 q 647 -130 622 -106 q 671 -196 671 -154 q 647 -260 671 -233 q 575 -286 622 -286 z "},"Ỳ":{"ha":1150,"x_min":68,"x_max":1082,"o":"m 514 0 l 514 457 l 533 367 l 68 972 l 264 972 l 608 508 l 575 510 l 901 972 l 1082 972 l 651 381 l 664 468 l 664 0 l 514 0 m 689 1049 l 408 1153 l 476 1278 l 731 1121 l 689 1049 z "},"Ỷ":{"ha":1150,"x_min":68,"x_max":1082,"o":"m 514 0 l 514 457 l 533 367 l 68 972 l 264 972 l 608 508 l 575 510 l 901 972 l 1082 972 l 651 381 l 664 468 l 664 0 l 514 0 m 543 1053 q 528 1080 533 1067 q 522 1106 522 1093 q 530 1133 522 1118 q 560 1164 538 1149 q 592 1188 583 1179 q 601 1206 601 1196 q 590 1224 601 1218 q 560 1229 578 1229 q 511 1222 538 1229 q 461 1204 485 1215 l 439 1292 q 501 1317 468 1308 q 563 1325 535 1325 q 673 1294 636 1325 q 710 1218 710 1263 q 694 1163 710 1183 q 658 1133 678 1143 q 622 1112 633 1121 q 610 1089 610 1103 q 611 1079 610 1083 q 614 1071 613 1075 l 543 1053 z "},"Ȳ":{"ha":1150,"x_min":68,"x_max":1082,"o":"m 514 0 l 514 457 l 533 367 l 68 972 l 264 972 l 608 508 l 575 510 l 901 972 l 1082 972 l 651 381 l 664 468 l 664 0 l 514 0 m 344 1093 l 344 1197 l 804 1197 l 804 1093 l 344 1093 z "},"Ỹ":{"ha":1150,"x_min":68,"x_max":1082,"o":"m 514 0 l 514 457 l 533 367 l 68 972 l 264 972 l 608 508 l 575 510 l 901 972 l 1082 972 l 651 381 l 664 468 l 664 0 l 514 0 m 678 1067 q 613 1077 646 1067 q 551 1099 581 1088 q 511 1114 528 1108 q 481 1119 494 1119 q 451 1106 463 1119 q 439 1067 439 1092 l 332 1067 q 381 1183 332 1142 q 490 1224 429 1224 q 547 1214 519 1224 q 601 1193 575 1204 q 640 1179 621 1185 q 671 1174 658 1174 q 701 1188 690 1174 q 711 1224 713 1201 l 817 1224 q 800 1147 817 1183 q 752 1089 783 1111 q 678 1067 721 1067 z "},"Z":{"ha":1090,"x_min":114,"x_max":979,"o":"m 114 0 l 114 110 l 758 851 l 799 826 l 150 826 l 150 972 l 964 972 l 964 864 l 321 121 l 281 146 l 979 146 l 979 0 l 114 0 z "},"Ź":{"ha":1090,"x_min":114,"x_max":979,"o":"m 114 0 l 114 110 l 758 851 l 799 826 l 150 826 l 150 972 l 964 972 l 964 864 l 321 121 l 281 146 l 979 146 l 979 0 l 114 0 m 442 1049 l 403 1121 l 657 1278 l 722 1153 l 442 1049 z "},"Ž":{"ha":1090,"x_min":114,"x_max":979,"o":"m 114 0 l 114 110 l 758 851 l 799 826 l 150 826 l 150 972 l 964 972 l 964 864 l 321 121 l 281 146 l 979 146 l 979 0 l 114 0 m 485 1051 l 318 1194 l 371 1240 l 565 1153 l 524 1153 l 718 1240 l 771 1194 l 604 1051 l 485 1051 z "},"Ż":{"ha":1090,"x_min":114,"x_max":979,"o":"m 114 0 l 114 110 l 758 851 l 799 826 l 150 826 l 150 972 l 964 972 l 964 864 l 321 121 l 281 146 l 979 146 l 979 0 l 114 0 m 544 1054 q 472 1079 496 1054 q 449 1144 449 1104 q 472 1207 449 1179 q 544 1235 496 1235 q 617 1210 593 1235 q 640 1144 640 1185 q 617 1082 640 1110 q 544 1054 593 1054 z "},"Ẓ":{"ha":1090,"x_min":114,"x_max":979,"o":"m 114 0 l 114 110 l 758 851 l 799 826 l 150 826 l 150 972 l 964 972 l 964 864 l 321 121 l 281 146 l 979 146 l 979 0 l 114 0 m 544 -286 q 473 -262 497 -286 q 449 -196 449 -237 q 473 -132 449 -158 q 544 -106 497 -106 q 616 -130 592 -106 q 640 -196 640 -154 q 616 -260 640 -233 q 544 -286 592 -286 z "},"a":{"ha":1153,"x_min":117,"x_max":953,"o":"m 503 -14 q 303 35 390 -14 q 166 171 215 85 q 117 365 117 257 q 168 562 117 476 q 309 696 219 647 q 514 744 399 744 q 643 726 583 744 q 747 678 703 708 q 818 612 792 649 q 846 538 844 575 l 808 540 l 808 729 l 953 729 l 953 0 l 808 0 l 808 189 l 839 188 q 808 117 836 153 q 733 52 779 82 q 627 4 686 22 q 503 -14 568 -14 m 538 118 q 682 151 619 118 q 779 240 744 183 q 814 365 814 296 q 779 492 814 436 q 682 579 744 547 q 538 611 619 611 q 395 579 457 611 q 298 492 333 547 q 263 365 263 436 q 298 240 263 296 q 395 151 333 183 q 538 118 457 118 z "},"á":{"ha":1153,"x_min":117,"x_max":953,"o":"m 503 -14 q 303 35 390 -14 q 166 171 215 85 q 117 365 117 257 q 168 562 117 476 q 309 696 219 647 q 514 744 399 744 q 643 726 583 744 q 747 678 703 708 q 818 612 792 649 q 846 538 844 575 l 808 540 l 808 729 l 953 729 l 953 0 l 808 0 l 808 189 l 839 188 q 808 117 836 153 q 733 52 779 82 q 627 4 686 22 q 503 -14 568 -14 m 538 118 q 682 151 619 118 q 779 240 744 183 q 814 365 814 296 q 779 492 814 436 q 682 579 744 547 q 538 611 619 611 q 395 579 457 611 q 298 492 333 547 q 263 365 263 436 q 298 240 263 296 q 395 151 333 183 q 538 118 457 118 m 469 842 l 422 913 l 621 1086 l 711 972 l 469 842 z "},"ă":{"ha":1153,"x_min":117,"x_max":953,"o":"m 503 -14 q 303 35 390 -14 q 166 171 215 85 q 117 365 117 257 q 168 562 117 476 q 309 696 219 647 q 514 744 399 744 q 643 726 583 744 q 747 678 703 708 q 818 612 792 649 q 846 538 844 575 l 808 540 l 808 729 l 953 729 l 953 0 l 808 0 l 808 189 l 839 188 q 808 117 836 153 q 733 52 779 82 q 627 4 686 22 q 503 -14 568 -14 m 538 118 q 682 151 619 118 q 779 240 744 183 q 814 365 814 296 q 779 492 814 436 q 682 579 744 547 q 538 611 619 611 q 395 579 457 611 q 298 492 333 547 q 263 365 263 436 q 298 240 263 296 q 395 151 333 183 q 538 118 457 118 m 558 818 q 411 876 469 818 q 333 1032 353 933 l 436 1049 q 485 963 454 994 q 558 931 517 931 q 631 963 600 931 q 681 1049 663 994 l 783 1032 q 706 876 764 933 q 558 818 647 818 z "},"ắ":{"ha":1153,"x_min":117,"x_max":953,"o":"m 503 -14 q 303 35 390 -14 q 166 171 215 85 q 117 365 117 257 q 168 562 117 476 q 309 696 219 647 q 514 744 399 744 q 643 726 583 744 q 747 678 703 708 q 818 612 792 649 q 846 538 844 575 l 808 540 l 808 729 l 953 729 l 953 0 l 808 0 l 808 189 l 839 188 q 808 117 836 153 q 733 52 779 82 q 627 4 686 22 q 503 -14 568 -14 m 538 118 q 682 151 619 118 q 779 240 744 183 q 814 365 814 296 q 779 492 814 436 q 682 579 744 547 q 538 611 619 611 q 395 579 457 611 q 298 492 333 547 q 263 365 263 436 q 298 240 263 296 q 395 151 333 183 q 538 118 457 118 m 558 818 q 411 868 469 818 q 333 1004 353 918 l 436 1021 q 485 955 454 979 q 558 931 517 931 q 631 955 600 931 q 681 1021 663 979 l 783 1004 q 706 868 764 918 q 558 818 647 818 m 568 1049 l 496 1099 l 610 1301 l 731 1215 l 568 1049 z "},"ặ":{"ha":1153,"x_min":117,"x_max":953,"o":"m 503 -14 q 303 35 390 -14 q 166 171 215 85 q 117 365 117 257 q 168 562 117 476 q 309 696 219 647 q 514 744 399 744 q 643 726 583 744 q 747 678 703 708 q 818 612 792 649 q 846 538 844 575 l 808 540 l 808 729 l 953 729 l 953 0 l 808 0 l 808 189 l 839 188 q 808 117 836 153 q 733 52 779 82 q 627 4 686 22 q 503 -14 568 -14 m 538 118 q 682 151 619 118 q 779 240 744 183 q 814 365 814 296 q 779 492 814 436 q 682 579 744 547 q 538 611 619 611 q 395 579 457 611 q 298 492 333 547 q 263 365 263 436 q 298 240 263 296 q 395 151 333 183 q 538 118 457 118 m 558 -286 q 487 -262 511 -286 q 463 -196 463 -237 q 487 -132 463 -158 q 558 -106 511 -106 q 630 -130 606 -106 q 654 -196 654 -154 q 630 -260 654 -233 q 558 -286 606 -286 m 558 818 q 411 876 469 818 q 333 1032 353 933 l 436 1049 q 485 963 454 994 q 558 931 517 931 q 631 963 600 931 q 681 1049 663 994 l 783 1032 q 706 876 764 933 q 558 818 647 818 z "},"ằ":{"ha":1153,"x_min":117,"x_max":953,"o":"m 503 -14 q 303 35 390 -14 q 166 171 215 85 q 117 365 117 257 q 168 562 117 476 q 309 696 219 647 q 514 744 399 744 q 643 726 583 744 q 747 678 703 708 q 818 612 792 649 q 846 538 844 575 l 808 540 l 808 729 l 953 729 l 953 0 l 808 0 l 808 189 l 839 188 q 808 117 836 153 q 733 52 779 82 q 627 4 686 22 q 503 -14 568 -14 m 538 118 q 682 151 619 118 q 779 240 744 183 q 814 365 814 296 q 779 492 814 436 q 682 579 744 547 q 538 611 619 611 q 395 579 457 611 q 298 492 333 547 q 263 365 263 436 q 298 240 263 296 q 395 151 333 183 q 538 118 457 118 m 558 818 q 411 872 469 818 q 333 1018 353 925 l 436 1035 q 485 959 454 988 q 558 931 517 931 q 631 959 600 931 q 681 1035 663 988 l 783 1018 q 706 872 764 925 q 558 818 647 818 m 563 1046 l 394 1214 l 514 1301 l 629 1099 l 563 1046 z "},"ẳ":{"ha":1153,"x_min":117,"x_max":953,"o":"m 503 -14 q 303 35 390 -14 q 166 171 215 85 q 117 365 117 257 q 168 562 117 476 q 309 696 219 647 q 514 744 399 744 q 643 726 583 744 q 747 678 703 708 q 818 612 792 649 q 846 538 844 575 l 808 540 l 808 729 l 953 729 l 953 0 l 808 0 l 808 189 l 839 188 q 808 117 836 153 q 733 52 779 82 q 627 4 686 22 q 503 -14 568 -14 m 538 118 q 682 151 619 118 q 779 240 744 183 q 814 365 814 296 q 779 492 814 436 q 682 579 744 547 q 538 611 619 611 q 395 579 457 611 q 298 492 333 547 q 263 365 263 436 q 298 240 263 296 q 395 151 333 183 q 538 118 457 118 m 558 818 q 411 872 469 818 q 333 1018 353 925 l 436 1035 q 485 959 454 988 q 558 931 517 931 q 631 959 600 931 q 681 1035 663 988 l 783 1018 q 706 872 764 925 q 558 818 647 818 m 526 1050 q 511 1077 517 1064 q 506 1103 506 1090 q 513 1131 506 1115 q 543 1161 521 1146 q 576 1185 567 1176 q 585 1203 585 1193 q 573 1221 585 1215 q 543 1226 561 1226 q 494 1219 521 1226 q 444 1201 468 1213 l 422 1289 q 484 1315 450 1307 q 546 1322 518 1322 q 656 1291 619 1322 q 693 1215 693 1260 q 677 1160 693 1181 q 642 1131 661 1140 q 605 1109 617 1118 q 593 1086 593 1100 q 594 1076 593 1081 q 597 1068 596 1072 l 526 1050 z "},"ẵ":{"ha":1153,"x_min":117,"x_max":953,"o":"m 503 -14 q 303 35 390 -14 q 166 171 215 85 q 117 365 117 257 q 168 562 117 476 q 309 696 219 647 q 514 744 399 744 q 643 726 583 744 q 747 678 703 708 q 818 612 792 649 q 846 538 844 575 l 808 540 l 808 729 l 953 729 l 953 0 l 808 0 l 808 189 l 839 188 q 808 117 836 153 q 733 52 779 82 q 627 4 686 22 q 503 -14 568 -14 m 538 118 q 682 151 619 118 q 779 240 744 183 q 814 365 814 296 q 779 492 814 436 q 682 579 744 547 q 538 611 619 611 q 395 579 457 611 q 298 492 333 547 q 263 365 263 436 q 298 240 263 296 q 395 151 333 183 q 538 118 457 118 m 558 818 q 411 872 469 818 q 333 1018 353 925 l 436 1035 q 485 959 454 988 q 558 931 517 931 q 631 959 600 931 q 681 1035 663 988 l 783 1018 q 706 872 764 925 q 558 818 647 818 m 664 1135 q 597 1148 624 1135 q 546 1171 571 1161 q 514 1185 529 1178 q 481 1192 499 1192 q 449 1178 463 1192 q 429 1140 435 1164 l 335 1154 q 376 1256 338 1213 q 467 1300 415 1300 q 524 1287 499 1300 q 574 1263 549 1274 q 608 1248 592 1254 q 638 1242 624 1242 q 670 1255 657 1242 q 689 1294 683 1268 l 783 1281 q 767 1208 782 1242 q 727 1155 753 1175 q 664 1135 701 1135 z "},"ǎ":{"ha":1153,"x_min":117,"x_max":953,"o":"m 503 -14 q 303 35 390 -14 q 166 171 215 85 q 117 365 117 257 q 168 562 117 476 q 309 696 219 647 q 514 744 399 744 q 643 726 583 744 q 747 678 703 708 q 818 612 792 649 q 846 538 844 575 l 808 540 l 808 729 l 953 729 l 953 0 l 808 0 l 808 189 l 839 188 q 808 117 836 153 q 733 52 779 82 q 627 4 686 22 q 503 -14 568 -14 m 538 118 q 682 151 619 118 q 779 240 744 183 q 814 365 814 296 q 779 492 814 436 q 682 579 744 547 q 538 611 619 611 q 395 579 457 611 q 298 492 333 547 q 263 365 263 436 q 298 240 263 296 q 395 151 333 183 q 538 118 457 118 m 499 843 l 353 1000 l 406 1046 l 579 944 l 538 944 l 711 1046 l 764 1000 l 618 843 l 499 843 z "},"â":{"ha":1153,"x_min":117,"x_max":953,"o":"m 503 -14 q 303 35 390 -14 q 166 171 215 85 q 117 365 117 257 q 168 562 117 476 q 309 696 219 647 q 514 744 399 744 q 643 726 583 744 q 747 678 703 708 q 818 612 792 649 q 846 538 844 575 l 808 540 l 808 729 l 953 729 l 953 0 l 808 0 l 808 189 l 839 188 q 808 117 836 153 q 733 52 779 82 q 627 4 686 22 q 503 -14 568 -14 m 538 118 q 682 151 619 118 q 779 240 744 183 q 814 365 814 296 q 779 492 814 436 q 682 579 744 547 q 538 611 619 611 q 395 579 457 611 q 298 492 333 547 q 263 365 263 436 q 298 240 263 296 q 395 151 333 183 q 538 118 457 118 m 392 843 l 339 889 l 499 1046 l 618 1046 l 778 889 l 725 843 l 538 944 l 579 944 l 392 843 z "},"ấ":{"ha":1153,"x_min":117,"x_max":953,"o":"m 503 -14 q 303 35 390 -14 q 166 171 215 85 q 117 365 117 257 q 168 562 117 476 q 309 696 219 647 q 514 744 399 744 q 643 726 583 744 q 747 678 703 708 q 818 612 792 649 q 846 538 844 575 l 808 540 l 808 729 l 953 729 l 953 0 l 808 0 l 808 189 l 839 188 q 808 117 836 153 q 733 52 779 82 q 627 4 686 22 q 503 -14 568 -14 m 538 118 q 682 151 619 118 q 779 240 744 183 q 814 365 814 296 q 779 492 814 436 q 682 579 744 547 q 538 611 619 611 q 395 579 457 611 q 298 492 333 547 q 263 365 263 436 q 298 240 263 296 q 395 151 333 183 q 538 118 457 118 m 392 843 l 339 889 l 499 1046 l 618 1046 l 778 889 l 725 843 l 538 944 l 579 944 l 392 843 m 790 1035 l 718 1085 l 832 1288 l 953 1201 l 790 1035 z "},"ậ":{"ha":1153,"x_min":117,"x_max":953,"o":"m 503 -14 q 303 35 390 -14 q 166 171 215 85 q 117 365 117 257 q 168 562 117 476 q 309 696 219 647 q 514 744 399 744 q 643 726 583 744 q 747 678 703 708 q 818 612 792 649 q 846 538 844 575 l 808 540 l 808 729 l 953 729 l 953 0 l 808 0 l 808 189 l 839 188 q 808 117 836 153 q 733 52 779 82 q 627 4 686 22 q 503 -14 568 -14 m 538 118 q 682 151 619 118 q 779 240 744 183 q 814 365 814 296 q 779 492 814 436 q 682 579 744 547 q 538 611 619 611 q 395 579 457 611 q 298 492 333 547 q 263 365 263 436 q 298 240 263 296 q 395 151 333 183 q 538 118 457 118 m 558 -286 q 487 -262 511 -286 q 463 -196 463 -237 q 487 -132 463 -158 q 558 -106 511 -106 q 630 -130 606 -106 q 654 -196 654 -154 q 630 -260 654 -233 q 558 -286 606 -286 m 392 843 l 339 889 l 499 1046 l 618 1046 l 778 889 l 725 843 l 538 944 l 579 944 l 392 843 z "},"ầ":{"ha":1153,"x_min":117,"x_max":953,"o":"m 503 -14 q 303 35 390 -14 q 166 171 215 85 q 117 365 117 257 q 168 562 117 476 q 309 696 219 647 q 514 744 399 744 q 643 726 583 744 q 747 678 703 708 q 818 612 792 649 q 846 538 844 575 l 808 540 l 808 729 l 953 729 l 953 0 l 808 0 l 808 189 l 839 188 q 808 117 836 153 q 733 52 779 82 q 627 4 686 22 q 503 -14 568 -14 m 538 118 q 682 151 619 118 q 779 240 744 183 q 814 365 814 296 q 779 492 814 436 q 682 579 744 547 q 538 611 619 611 q 395 579 457 611 q 298 492 333 547 q 263 365 263 436 q 298 240 263 296 q 395 151 333 183 q 538 118 457 118 m 392 843 l 339 889 l 499 1046 l 618 1046 l 778 889 l 725 843 l 538 944 l 579 944 l 392 843 m 771 1032 l 603 1200 l 722 1288 l 838 1085 l 771 1032 z "},"ẩ":{"ha":1153,"x_min":117,"x_max":953,"o":"m 503 -14 q 303 35 390 -14 q 166 171 215 85 q 117 365 117 257 q 168 562 117 476 q 309 696 219 647 q 514 744 399 744 q 643 726 583 744 q 747 678 703 708 q 818 612 792 649 q 846 538 844 575 l 808 540 l 808 729 l 953 729 l 953 0 l 808 0 l 808 189 l 839 188 q 808 117 836 153 q 733 52 779 82 q 627 4 686 22 q 503 -14 568 -14 m 538 118 q 682 151 619 118 q 779 240 744 183 q 814 365 814 296 q 779 492 814 436 q 682 579 744 547 q 538 611 619 611 q 395 579 457 611 q 298 492 333 547 q 263 365 263 436 q 298 240 263 296 q 395 151 333 183 q 538 118 457 118 m 392 843 l 339 889 l 499 1046 l 618 1046 l 778 889 l 725 843 l 538 944 l 579 944 l 392 843 m 758 1017 q 743 1044 749 1031 q 738 1069 738 1057 q 745 1097 738 1082 q 775 1128 753 1113 q 808 1151 799 1143 q 817 1169 817 1160 q 805 1188 817 1182 q 775 1193 793 1193 q 726 1188 753 1193 q 676 1168 700 1183 l 654 1256 q 717 1281 683 1272 q 778 1289 750 1289 q 888 1258 851 1289 q 925 1182 925 1226 q 909 1127 925 1147 q 874 1097 893 1107 q 837 1076 849 1085 q 825 1053 825 1067 q 826 1043 825 1047 q 829 1035 828 1039 l 758 1017 z "},"ẫ":{"ha":1153,"x_min":117,"x_max":953,"o":"m 503 -14 q 303 35 390 -14 q 166 171 215 85 q 117 365 117 257 q 168 562 117 476 q 309 696 219 647 q 514 744 399 744 q 643 726 583 744 q 747 678 703 708 q 818 612 792 649 q 846 538 844 575 l 808 540 l 808 729 l 953 729 l 953 0 l 808 0 l 808 189 l 839 188 q 808 117 836 153 q 733 52 779 82 q 627 4 686 22 q 503 -14 568 -14 m 538 118 q 682 151 619 118 q 779 240 744 183 q 814 365 814 296 q 779 492 814 436 q 682 579 744 547 q 538 611 619 611 q 395 579 457 611 q 298 492 333 547 q 263 365 263 436 q 298 240 263 296 q 395 151 333 183 q 538 118 457 118 m 390 843 l 338 889 l 497 1046 l 617 1046 l 776 889 l 724 843 l 536 944 l 578 944 l 390 843 m 663 1121 q 596 1134 622 1121 q 544 1157 569 1147 q 513 1171 528 1164 q 479 1178 497 1178 q 447 1164 461 1178 q 428 1126 433 1150 l 333 1140 q 375 1242 336 1199 q 465 1286 414 1286 q 522 1273 497 1286 q 572 1249 547 1260 q 606 1234 590 1240 q 636 1228 622 1228 q 669 1241 656 1228 q 688 1281 682 1254 l 782 1267 q 766 1194 781 1228 q 726 1141 751 1161 q 663 1121 700 1121 z "},"ȁ":{"ha":1153,"x_min":117,"x_max":953,"o":"m 503 -14 q 303 35 390 -14 q 166 171 215 85 q 117 365 117 257 q 168 562 117 476 q 309 696 219 647 q 514 744 399 744 q 643 726 583 744 q 747 678 703 708 q 818 612 792 649 q 846 538 844 575 l 808 540 l 808 729 l 953 729 l 953 0 l 808 0 l 808 189 l 839 188 q 808 117 836 153 q 733 52 779 82 q 627 4 686 22 q 503 -14 568 -14 m 538 118 q 682 151 619 118 q 779 240 744 183 q 814 365 814 296 q 779 492 814 436 q 682 579 744 547 q 538 611 619 611 q 395 579 457 611 q 298 492 333 547 q 263 365 263 436 q 298 240 263 296 q 395 151 333 183 q 538 118 457 118 m 706 842 l 464 972 l 554 1086 l 753 913 l 706 842 m 429 842 l 188 972 l 278 1086 l 476 913 l 429 842 z "},"ä":{"ha":1153,"x_min":117,"x_max":953,"o":"m 503 -14 q 303 35 390 -14 q 166 171 215 85 q 117 365 117 257 q 168 562 117 476 q 309 696 219 647 q 514 744 399 744 q 643 726 583 744 q 747 678 703 708 q 818 612 792 649 q 846 538 844 575 l 808 540 l 808 729 l 953 729 l 953 0 l 808 0 l 808 189 l 839 188 q 808 117 836 153 q 733 52 779 82 q 627 4 686 22 q 503 -14 568 -14 m 538 118 q 682 151 619 118 q 779 240 744 183 q 814 365 814 296 q 779 492 814 436 q 682 579 744 547 q 538 611 619 611 q 395 579 457 611 q 298 492 333 547 q 263 365 263 436 q 298 240 263 296 q 395 151 333 183 q 538 118 457 118 m 697 900 q 626 924 651 900 q 601 990 601 947 q 627 1056 601 1031 q 697 1081 653 1081 q 768 1057 743 1081 q 793 990 793 1033 q 767 925 793 950 q 697 900 742 900 m 419 900 q 349 924 374 900 q 324 990 324 947 q 349 1056 324 1031 q 419 1081 375 1081 q 490 1057 465 1081 q 515 990 515 1033 q 490 925 515 950 q 419 900 464 900 z "},"ạ":{"ha":1153,"x_min":117,"x_max":953,"o":"m 503 -14 q 303 35 390 -14 q 166 171 215 85 q 117 365 117 257 q 168 562 117 476 q 309 696 219 647 q 514 744 399 744 q 643 726 583 744 q 747 678 703 708 q 818 612 792 649 q 846 538 844 575 l 808 540 l 808 729 l 953 729 l 953 0 l 808 0 l 808 189 l 839 188 q 808 117 836 153 q 733 52 779 82 q 627 4 686 22 q 503 -14 568 -14 m 538 118 q 682 151 619 118 q 779 240 744 183 q 814 365 814 296 q 779 492 814 436 q 682 579 744 547 q 538 611 619 611 q 395 579 457 611 q 298 492 333 547 q 263 365 263 436 q 298 240 263 296 q 395 151 333 183 q 538 118 457 118 m 558 -286 q 487 -262 511 -286 q 463 -196 463 -237 q 487 -132 463 -158 q 558 -106 511 -106 q 630 -130 606 -106 q 654 -196 654 -154 q 630 -260 654 -233 q 558 -286 606 -286 z "},"à":{"ha":1153,"x_min":117,"x_max":953,"o":"m 503 -14 q 303 35 390 -14 q 166 171 215 85 q 117 365 117 257 q 168 562 117 476 q 309 696 219 647 q 514 744 399 744 q 643 726 583 744 q 747 678 703 708 q 818 612 792 649 q 846 538 844 575 l 808 540 l 808 729 l 953 729 l 953 0 l 808 0 l 808 189 l 839 188 q 808 117 836 153 q 733 52 779 82 q 627 4 686 22 q 503 -14 568 -14 m 538 118 q 682 151 619 118 q 779 240 744 183 q 814 365 814 296 q 779 492 814 436 q 682 579 744 547 q 538 611 619 611 q 395 579 457 611 q 298 492 333 547 q 263 365 263 436 q 298 240 263 296 q 395 151 333 183 q 538 118 457 118 m 636 842 l 394 972 l 485 1086 l 683 913 l 636 842 z "},"ả":{"ha":1153,"x_min":117,"x_max":953,"o":"m 503 -14 q 303 35 390 -14 q 166 171 215 85 q 117 365 117 257 q 168 562 117 476 q 309 696 219 647 q 514 744 399 744 q 643 726 583 744 q 747 678 703 708 q 818 612 792 649 q 846 538 844 575 l 808 540 l 808 729 l 953 729 l 953 0 l 808 0 l 808 189 l 839 188 q 808 117 836 153 q 733 52 779 82 q 627 4 686 22 q 503 -14 568 -14 m 538 118 q 682 151 619 118 q 779 240 744 183 q 814 365 814 296 q 779 492 814 436 q 682 579 744 547 q 538 611 619 611 q 395 579 457 611 q 298 492 333 547 q 263 365 263 436 q 298 240 263 296 q 395 151 333 183 q 538 118 457 118 m 526 824 q 511 851 517 838 q 506 876 506 864 q 513 904 506 889 q 543 935 521 919 q 576 958 567 950 q 585 976 585 967 q 573 994 585 989 q 543 1000 561 1000 q 494 993 521 1000 q 444 975 468 986 l 422 1063 q 485 1088 451 1079 q 546 1096 518 1096 q 656 1065 619 1096 q 693 989 693 1033 q 677 934 693 954 q 642 904 661 914 q 605 883 617 892 q 593 860 593 874 q 594 850 593 854 q 597 842 596 846 l 526 824 z "},"ȃ":{"ha":1153,"x_min":117,"x_max":953,"o":"m 503 -14 q 303 35 390 -14 q 166 171 215 85 q 117 365 117 257 q 168 562 117 476 q 309 696 219 647 q 514 744 399 744 q 643 726 583 744 q 747 678 703 708 q 818 612 792 649 q 846 538 844 575 l 808 540 l 808 729 l 953 729 l 953 0 l 808 0 l 808 189 l 839 188 q 808 117 836 153 q 733 52 779 82 q 627 4 686 22 q 503 -14 568 -14 m 538 118 q 682 151 619 118 q 779 240 744 183 q 814 365 814 296 q 779 492 814 436 q 682 579 744 547 q 538 611 619 611 q 395 579 457 611 q 298 492 333 547 q 263 365 263 436 q 298 240 263 296 q 395 151 333 183 q 538 118 457 118 m 436 832 l 333 849 q 411 1005 353 947 q 558 1063 469 1063 q 706 1005 647 1063 q 783 849 764 947 l 681 832 q 631 918 663 886 q 558 950 600 950 q 485 918 517 950 q 436 832 454 886 z "},"ā":{"ha":1153,"x_min":117,"x_max":953,"o":"m 503 -14 q 303 35 390 -14 q 166 171 215 85 q 117 365 117 257 q 168 562 117 476 q 309 696 219 647 q 514 744 399 744 q 643 726 583 744 q 747 678 703 708 q 818 612 792 649 q 846 538 844 575 l 808 540 l 808 729 l 953 729 l 953 0 l 808 0 l 808 189 l 839 188 q 808 117 836 153 q 733 52 779 82 q 627 4 686 22 q 503 -14 568 -14 m 538 118 q 682 151 619 118 q 779 240 744 183 q 814 365 814 296 q 779 492 814 436 q 682 579 744 547 q 538 611 619 611 q 395 579 457 611 q 298 492 333 547 q 263 365 263 436 q 298 240 263 296 q 395 151 333 183 q 538 118 457 118 m 353 892 l 353 996 l 764 996 l 764 892 l 353 892 z "},"ą":{"ha":1153,"x_min":117,"x_max":979,"o":"m 503 -14 q 303 35 390 -14 q 166 171 215 85 q 117 365 117 257 q 168 562 117 476 q 309 696 219 647 q 514 744 399 744 q 643 726 583 744 q 747 678 703 708 q 818 612 792 649 q 846 538 844 575 l 808 540 l 808 729 l 953 729 l 953 0 l 808 0 l 808 189 l 839 188 q 808 117 836 153 q 733 52 779 82 q 627 4 686 22 q 503 -14 568 -14 m 538 118 q 682 151 619 118 q 779 240 744 183 q 814 365 814 296 q 779 492 814 436 q 682 579 744 547 q 538 611 619 611 q 395 579 457 611 q 298 492 333 547 q 263 365 263 436 q 298 240 263 296 q 395 151 333 183 q 538 118 457 118 m 828 -278 q 754 -259 789 -278 q 698 -208 719 -240 q 676 -135 676 -175 q 694 -64 676 -96 q 743 -8 713 -32 q 814 35 774 17 q 899 65 854 53 l 953 0 q 881 -27 915 -8 q 824 -70 846 -46 q 803 -121 803 -94 q 815 -157 803 -143 q 850 -171 828 -171 q 879 -161 867 -171 q 901 -136 892 -151 l 979 -192 q 949 -233 971 -212 q 897 -265 928 -253 q 828 -278 867 -278 z "},"å":{"ha":1153,"x_min":117,"x_max":953,"o":"m 503 -14 q 303 35 390 -14 q 166 171 215 85 q 117 365 117 257 q 168 562 117 476 q 309 696 219 647 q 514 744 399 744 q 643 726 583 744 q 747 678 703 708 q 818 612 792 649 q 846 538 844 575 l 808 540 l 808 729 l 953 729 l 953 0 l 808 0 l 808 189 l 839 188 q 808 117 836 153 q 733 52 779 82 q 627 4 686 22 q 503 -14 568 -14 m 538 118 q 682 151 619 118 q 779 240 744 183 q 814 365 814 296 q 779 492 814 436 q 682 579 744 547 q 538 611 619 611 q 395 579 457 611 q 298 492 333 547 q 263 365 263 436 q 298 240 263 296 q 395 151 333 183 q 538 118 457 118 m 557 839 q 483 859 518 839 q 427 913 449 879 q 406 985 406 946 q 426 1058 406 1025 q 482 1112 447 1092 q 557 1132 517 1132 q 633 1112 599 1132 q 689 1058 668 1092 q 710 985 710 1025 q 689 913 710 946 q 633 859 668 879 q 557 839 599 839 m 557 921 q 606 940 586 921 q 626 985 626 958 q 606 1032 626 1014 q 557 1050 586 1050 q 508 1031 528 1050 q 489 985 489 1013 q 509 940 489 958 q 557 921 529 921 z "},"ǻ":{"ha":1153,"x_min":117,"x_max":953,"o":"m 503 -14 q 303 35 390 -14 q 166 171 215 85 q 117 365 117 257 q 168 562 117 476 q 309 696 219 647 q 514 744 399 744 q 643 726 583 744 q 747 678 703 708 q 818 612 792 649 q 846 538 844 575 l 808 540 l 808 729 l 953 729 l 953 0 l 808 0 l 808 189 l 839 188 q 808 117 836 153 q 733 52 779 82 q 627 4 686 22 q 503 -14 568 -14 m 538 118 q 682 151 619 118 q 779 240 744 183 q 814 365 814 296 q 779 492 814 436 q 682 579 744 547 q 538 611 619 611 q 395 579 457 611 q 298 492 333 547 q 263 365 263 436 q 298 240 263 296 q 395 151 333 183 q 538 118 457 118 m 557 839 q 483 859 518 839 q 427 913 449 879 q 406 985 406 946 q 426 1058 406 1025 q 482 1112 447 1092 q 557 1132 517 1132 q 633 1112 599 1132 q 689 1058 668 1092 q 710 985 710 1025 q 689 913 710 946 q 633 859 668 879 q 557 839 599 839 m 557 921 q 606 940 586 921 q 626 985 626 958 q 606 1032 626 1014 q 557 1050 586 1050 q 508 1031 528 1050 q 489 985 489 1013 q 509 940 489 958 q 557 921 529 921 m 469 1165 l 422 1236 l 621 1410 l 711 1296 l 469 1165 z "},"ã":{"ha":1153,"x_min":117,"x_max":953,"o":"m 503 -14 q 303 35 390 -14 q 166 171 215 85 q 117 365 117 257 q 168 562 117 476 q 309 696 219 647 q 514 744 399 744 q 643 726 583 744 q 747 678 703 708 q 818 612 792 649 q 846 538 844 575 l 808 540 l 808 729 l 953 729 l 953 0 l 808 0 l 808 189 l 839 188 q 808 117 836 153 q 733 52 779 82 q 627 4 686 22 q 503 -14 568 -14 m 538 118 q 682 151 619 118 q 779 240 744 183 q 814 365 814 296 q 779 492 814 436 q 682 579 744 547 q 538 611 619 611 q 395 579 457 611 q 298 492 333 547 q 263 365 263 436 q 298 240 263 296 q 395 151 333 183 q 538 118 457 118 m 629 854 q 583 865 601 854 q 543 893 564 876 q 503 926 517 917 q 479 935 490 935 q 447 915 461 935 q 428 854 433 894 l 333 868 q 377 986 336 936 q 486 1036 418 1036 q 533 1025 514 1036 q 572 997 551 1014 q 613 965 600 975 q 636 956 625 956 q 669 976 656 956 q 688 1036 682 997 l 782 1022 q 761 939 781 978 q 708 877 742 900 q 629 854 675 854 z "},"æ":{"ha":1613,"x_min":117,"x_max":1475,"o":"m 418 -14 q 263 12 331 -14 q 156 87 194 38 q 117 207 117 136 q 146 324 117 278 q 227 396 175 369 q 349 433 279 422 q 499 443 418 443 l 1350 443 l 1329 419 l 1329 453 q 1288 538 1324 501 q 1201 596 1253 575 q 1090 617 1149 617 q 945 592 1010 617 q 842 513 881 568 q 804 367 804 458 q 850 228 804 285 q 972 143 896 172 q 1136 114 1047 114 q 1283 135 1222 114 q 1392 197 1344 157 l 1461 89 q 1374 39 1429 63 q 1252 1 1318 15 q 1122 -14 1186 -14 q 887 33 988 -14 q 731 165 786 81 q 675 357 675 249 q 708 517 675 446 q 799 639 742 588 q 932 717 857 690 q 1090 744 1007 744 q 1285 699 1199 744 q 1424 574 1372 653 q 1475 390 1475 494 l 1474 329 l 481 329 q 398 324 439 329 q 324 305 357 318 q 271 270 290 292 q 251 214 251 249 q 274 156 251 179 q 337 120 297 132 q 424 108 376 108 q 548 131 490 108 q 647 186 606 153 q 707 250 688 219 l 765 156 q 685 78 736 117 q 567 13 635 39 q 418 -14 500 -14 m 675 357 l 675 479 q 658 533 675 508 q 611 576 640 558 q 548 603 582 593 q 482 614 514 614 q 347 590 413 614 q 228 515 282 567 l 143 613 q 240 682 188 653 q 354 728 293 711 q 485 744 415 744 q 603 733 546 744 q 706 696 660 721 q 778 632 751 671 q 804 539 804 593 l 804 365 l 675 357 z "},"ǽ":{"ha":1613,"x_min":117,"x_max":1475,"o":"m 418 -14 q 263 12 331 -14 q 156 87 194 38 q 117 207 117 136 q 146 324 117 278 q 227 396 175 369 q 349 433 279 422 q 499 443 418 443 l 1350 443 l 1329 419 l 1329 453 q 1288 538 1324 501 q 1201 596 1253 575 q 1090 617 1149 617 q 945 592 1010 617 q 842 513 881 568 q 804 367 804 458 q 850 228 804 285 q 972 143 896 172 q 1136 114 1047 114 q 1283 135 1222 114 q 1392 197 1344 157 l 1461 89 q 1374 39 1429 63 q 1252 1 1318 15 q 1122 -14 1186 -14 q 887 33 988 -14 q 731 165 786 81 q 675 357 675 249 q 708 517 675 446 q 799 639 742 588 q 932 717 857 690 q 1090 744 1007 744 q 1285 699 1199 744 q 1424 574 1372 653 q 1475 390 1475 494 l 1474 329 l 481 329 q 398 324 439 329 q 324 305 357 318 q 271 270 290 292 q 251 214 251 249 q 274 156 251 179 q 337 120 297 132 q 424 108 376 108 q 548 131 490 108 q 647 186 606 153 q 707 250 688 219 l 765 156 q 685 78 736 117 q 567 13 635 39 q 418 -14 500 -14 m 675 357 l 675 479 q 658 533 675 508 q 611 576 640 558 q 548 603 582 593 q 482 614 514 614 q 347 590 413 614 q 228 515 282 567 l 143 613 q 240 682 188 653 q 354 728 293 711 q 485 744 415 744 q 603 733 546 744 q 706 696 660 721 q 778 632 751 671 q 804 539 804 593 l 804 365 l 675 357 m 708 842 l 661 913 l 860 1086 l 950 972 l 708 842 z "},"b":{"ha":1161,"x_min":215,"x_max":1036,"o":"m 638 -14 q 519 3 576 -14 q 418 49 463 21 q 344 109 374 76 q 307 171 315 142 l 358 182 l 358 4 l 215 4 l 215 1028 l 358 1028 l 358 563 l 321 567 q 356 628 328 597 q 427 685 383 658 q 526 728 471 711 q 640 744 581 744 q 842 696 753 744 q 983 563 931 647 q 1036 367 1036 478 q 984 171 1036 257 q 842 35 932 85 q 638 -14 753 -14 m 621 118 q 764 151 701 118 q 862 240 826 183 q 897 367 897 296 q 862 493 897 438 q 765 581 826 549 q 621 613 703 613 q 478 581 540 613 q 379 493 415 549 q 343 367 343 438 q 379 240 343 296 q 478 151 415 183 q 621 118 540 118 z "},"c":{"ha":1011,"x_min":125,"x_max":894,"o":"m 535 -14 q 326 36 418 -14 q 179 172 233 86 q 125 365 125 258 q 179 559 125 474 q 326 694 233 644 q 535 744 418 744 q 745 706 649 744 q 894 600 842 668 l 815 492 q 738 554 785 526 q 641 599 692 582 q 540 615 590 615 q 400 583 461 615 q 304 494 339 550 q 269 365 269 438 q 306 237 269 293 q 405 148 343 181 q 542 115 467 115 q 649 130 600 115 q 740 169 699 144 q 817 221 782 193 l 894 115 q 739 24 832 63 q 535 -14 646 -14 z "},"ć":{"ha":1011,"x_min":125,"x_max":894,"o":"m 535 -14 q 326 36 418 -14 q 179 172 233 86 q 125 365 125 258 q 179 559 125 474 q 326 694 233 644 q 535 744 418 744 q 745 706 649 744 q 894 600 842 668 l 815 492 q 738 554 785 526 q 641 599 692 582 q 540 615 590 615 q 400 583 461 615 q 304 494 339 550 q 269 365 269 438 q 306 237 269 293 q 405 148 343 181 q 542 115 467 115 q 649 130 600 115 q 740 169 699 144 q 817 221 782 193 l 894 115 q 739 24 832 63 q 535 -14 646 -14 m 444 842 l 397 913 l 596 1086 l 686 972 l 444 842 z "},"č":{"ha":1011,"x_min":125,"x_max":894,"o":"m 535 -14 q 326 36 418 -14 q 179 172 233 86 q 125 365 125 258 q 179 559 125 474 q 326 694 233 644 q 535 744 418 744 q 745 706 649 744 q 894 600 842 668 l 815 492 q 738 554 785 526 q 641 599 692 582 q 540 615 590 615 q 400 583 461 615 q 304 494 339 550 q 269 365 269 438 q 306 237 269 293 q 405 148 343 181 q 542 115 467 115 q 649 130 600 115 q 740 169 699 144 q 817 221 782 193 l 894 115 q 739 24 832 63 q 535 -14 646 -14 m 474 843 l 328 1000 l 381 1046 l 554 944 l 513 944 l 686 1046 l 739 1000 l 593 843 l 474 843 z "},"ç":{"ha":1011,"x_min":125,"x_max":894,"o":"m 535 -14 q 326 36 418 -14 q 179 172 233 86 q 125 365 125 258 q 179 559 125 474 q 326 694 233 644 q 535 744 418 744 q 745 706 649 744 q 894 600 842 668 l 815 492 q 738 554 785 526 q 641 599 692 582 q 540 615 590 615 q 400 583 461 615 q 304 494 339 550 q 269 365 269 438 q 306 237 269 293 q 405 148 343 181 q 542 115 467 115 q 649 130 600 115 q 740 169 699 144 q 817 221 782 193 l 894 115 q 739 24 832 63 q 535 -14 646 -14 m 401 -339 l 392 -269 q 467 -260 429 -268 q 529 -235 504 -251 q 554 -197 554 -218 q 530 -164 554 -176 q 475 -145 506 -151 q 422 -139 444 -139 l 407 -117 l 504 33 l 586 33 l 526 -64 q 626 -108 588 -76 q 665 -193 665 -139 q 640 -258 665 -231 q 576 -305 615 -286 q 491 -332 538 -324 q 401 -339 444 -340 z "},"ḉ":{"ha":1011,"x_min":125,"x_max":894,"o":"m 535 -14 q 326 36 418 -14 q 179 172 233 86 q 125 365 125 258 q 179 559 125 474 q 326 694 233 644 q 535 744 418 744 q 745 706 649 744 q 894 600 842 668 l 815 492 q 738 554 785 526 q 641 599 692 582 q 540 615 590 615 q 400 583 461 615 q 304 494 339 550 q 269 365 269 438 q 306 237 269 293 q 405 148 343 181 q 542 115 467 115 q 649 130 600 115 q 740 169 699 144 q 817 221 782 193 l 894 115 q 739 24 832 63 q 535 -14 646 -14 m 401 -339 l 392 -269 q 467 -260 429 -268 q 529 -235 504 -251 q 554 -197 554 -218 q 530 -164 554 -176 q 475 -145 506 -151 q 422 -139 444 -139 l 407 -117 l 504 33 l 586 33 l 526 -64 q 626 -108 588 -76 q 665 -193 665 -139 q 640 -258 665 -231 q 576 -305 615 -286 q 491 -332 538 -324 q 401 -339 444 -340 m 444 842 l 397 913 l 596 1086 l 686 972 l 444 842 z "},"ĉ":{"ha":1011,"x_min":125,"x_max":894,"o":"m 535 -14 q 326 36 418 -14 q 179 172 233 86 q 125 365 125 258 q 179 559 125 474 q 326 694 233 644 q 535 744 418 744 q 745 706 649 744 q 894 600 842 668 l 815 492 q 738 554 785 526 q 641 599 692 582 q 540 615 590 615 q 400 583 461 615 q 304 494 339 550 q 269 365 269 438 q 306 237 269 293 q 405 148 343 181 q 542 115 467 115 q 649 130 600 115 q 740 169 699 144 q 817 221 782 193 l 894 115 q 739 24 832 63 q 535 -14 646 -14 m 367 843 l 314 889 l 474 1046 l 593 1046 l 753 889 l 700 843 l 513 944 l 554 944 l 367 843 z "},"ċ":{"ha":1011,"x_min":125,"x_max":894,"o":"m 535 -14 q 326 36 418 -14 q 179 172 233 86 q 125 365 125 258 q 179 559 125 474 q 326 694 233 644 q 535 744 418 744 q 745 706 649 744 q 894 600 842 668 l 815 492 q 738 554 785 526 q 641 599 692 582 q 540 615 590 615 q 400 583 461 615 q 304 494 339 550 q 269 365 269 438 q 306 237 269 293 q 405 148 343 181 q 542 115 467 115 q 649 130 600 115 q 740 169 699 144 q 817 221 782 193 l 894 115 q 739 24 832 63 q 535 -14 646 -14 m 533 899 q 463 922 488 899 q 438 989 438 946 q 463 1054 438 1029 q 533 1079 489 1079 q 604 1056 579 1079 q 629 989 629 1032 q 603 924 629 949 q 533 899 578 899 z "},"d":{"ha":1138,"x_min":118,"x_max":954,"o":"m 514 -14 q 306 35 396 -14 q 167 169 217 83 q 118 365 118 256 q 169 562 118 476 q 311 696 221 647 q 517 744 401 744 q 647 726 586 744 q 755 678 708 708 q 827 613 801 647 q 853 543 853 578 l 811 540 l 811 1028 l 954 1028 l 954 0 l 811 0 l 811 189 l 839 183 q 812 116 839 150 q 740 52 785 82 q 635 4 694 22 q 514 -14 576 -14 m 540 114 q 685 147 622 114 q 782 238 747 181 q 817 365 817 294 q 782 493 817 436 q 685 583 747 550 q 540 615 622 615 q 397 583 460 615 q 299 493 335 550 q 264 365 264 436 q 299 238 264 294 q 397 147 335 181 q 540 114 460 114 z "},"ð":{"ha":1054,"x_min":125,"x_max":928,"o":"m 524 -10 q 315 40 404 -10 q 176 176 226 90 q 125 364 125 261 q 155 507 125 440 q 238 625 185 574 q 360 705 290 676 q 507 733 429 733 q 661 701 594 733 q 770 612 728 668 q 829 483 813 556 l 772 492 q 754 600 771 549 q 708 698 738 651 q 638 785 679 744 q 544 861 596 826 q 429 928 492 896 l 496 1028 q 620 962 558 1006 q 738 858 682 918 q 836 724 793 799 q 903 566 879 650 q 928 392 928 482 q 874 179 928 269 q 729 40 821 89 q 524 -10 638 -10 m 524 115 q 656 149 597 115 q 751 238 715 182 q 786 364 786 294 q 751 485 786 431 q 653 574 715 540 q 515 608 592 608 q 390 576 446 608 q 300 488 333 543 q 267 364 267 433 q 301 238 267 294 q 394 149 335 182 q 524 115 453 115 m 396 749 l 378 839 l 579 875 l 656 903 l 858 933 l 883 842 l 726 821 l 669 797 l 396 749 z "},"ď":{"ha":1149,"x_min":118,"x_max":1244,"o":"m 514 -14 q 306 35 396 -14 q 167 169 217 83 q 118 365 118 256 q 169 562 118 476 q 311 696 221 647 q 517 744 401 744 q 647 726 586 744 q 755 678 708 708 q 827 613 801 647 q 853 543 853 578 l 811 540 l 811 1028 l 954 1028 l 954 0 l 811 0 l 811 189 l 839 183 q 812 116 839 150 q 740 52 785 82 q 635 4 694 22 q 514 -14 576 -14 m 540 114 q 685 147 622 114 q 782 238 747 181 q 817 365 817 294 q 782 493 817 436 q 685 583 747 550 q 540 615 622 615 q 397 583 460 615 q 299 493 335 550 q 264 365 264 436 q 299 238 264 294 q 397 147 335 181 q 540 114 460 114 m 1072 753 l 1039 811 q 1075 828 1058 817 q 1103 854 1092 839 q 1114 883 1114 869 q 1107 899 1114 894 q 1086 908 1100 904 q 1057 924 1068 914 q 1046 960 1046 935 q 1072 1010 1046 993 q 1136 1028 1097 1028 q 1211 1001 1178 1028 q 1244 921 1244 974 q 1228 863 1244 890 q 1185 815 1211 836 q 1130 778 1160 793 q 1072 753 1100 763 z "},"đ":{"ha":1138,"x_min":118,"x_max":1060,"o":"m 579 819 l 579 942 l 1060 942 l 1060 819 l 579 819 m 514 -14 q 306 35 396 -14 q 167 169 217 83 q 118 365 118 256 q 169 562 118 476 q 311 696 221 647 q 517 744 401 744 q 647 726 586 744 q 755 678 708 708 q 827 613 801 647 q 853 543 853 578 l 811 540 l 811 1028 l 954 1028 l 954 0 l 811 0 l 811 189 l 839 183 q 812 116 839 150 q 740 52 785 82 q 635 4 694 22 q 514 -14 576 -14 m 540 114 q 685 147 622 114 q 782 238 747 181 q 817 365 817 294 q 782 493 817 436 q 685 583 747 550 q 540 615 622 615 q 397 583 460 615 q 299 493 335 550 q 264 365 264 436 q 299 238 264 294 q 397 147 335 181 q 540 114 460 114 z "},"ḍ":{"ha":1138,"x_min":118,"x_max":954,"o":"m 514 -14 q 306 35 396 -14 q 167 169 217 83 q 118 365 118 256 q 169 562 118 476 q 311 696 221 647 q 517 744 401 744 q 647 726 586 744 q 755 678 708 708 q 827 613 801 647 q 853 543 853 578 l 811 540 l 811 1028 l 954 1028 l 954 0 l 811 0 l 811 189 l 839 183 q 812 116 839 150 q 740 52 785 82 q 635 4 694 22 q 514 -14 576 -14 m 540 114 q 685 147 622 114 q 782 238 747 181 q 817 365 817 294 q 782 493 817 436 q 685 583 747 550 q 540 615 622 615 q 397 583 460 615 q 299 493 335 550 q 264 365 264 436 q 299 238 264 294 q 397 147 335 181 q 540 114 460 114 m 557 -286 q 485 -262 510 -286 q 461 -196 461 -237 q 485 -132 461 -158 q 557 -106 510 -106 q 628 -130 604 -106 q 653 -196 653 -154 q 628 -260 653 -233 q 557 -286 604 -286 z "},"ḏ":{"ha":1138,"x_min":118,"x_max":954,"o":"m 514 -14 q 306 35 396 -14 q 167 169 217 83 q 118 365 118 256 q 169 562 118 476 q 311 696 221 647 q 517 744 401 744 q 647 726 586 744 q 755 678 708 708 q 827 613 801 647 q 853 543 853 578 l 811 540 l 811 1028 l 954 1028 l 954 0 l 811 0 l 811 189 l 839 183 q 812 116 839 150 q 740 52 785 82 q 635 4 694 22 q 514 -14 576 -14 m 540 114 q 685 147 622 114 q 782 238 747 181 q 817 365 817 294 q 782 493 817 436 q 685 583 747 550 q 540 615 622 615 q 397 583 460 615 q 299 493 335 550 q 264 365 264 436 q 299 238 264 294 q 397 147 335 181 q 540 114 460 114 m 361 -247 l 361 -144 l 751 -144 l 751 -247 l 361 -247 z "},"ǆ":{"ha":2000,"x_min":118,"x_max":1894,"o":"m 514 -14 q 306 35 396 -14 q 167 169 217 83 q 118 365 118 256 q 169 562 118 476 q 311 696 221 647 q 517 744 401 744 q 647 726 586 744 q 755 678 708 708 q 827 613 801 647 q 853 543 853 578 l 811 540 l 811 1028 l 954 1028 l 954 0 l 811 0 l 811 189 l 839 183 q 812 116 839 150 q 740 52 785 82 q 635 4 694 22 q 514 -14 576 -14 m 540 114 q 685 147 622 114 q 782 238 747 181 q 817 365 817 294 q 782 493 817 436 q 685 583 747 550 q 540 615 622 615 q 397 583 460 615 q 299 493 335 550 q 264 365 264 436 q 299 238 264 294 q 397 147 335 181 q 540 114 460 114 m 1246 0 l 1246 119 l 1725 622 l 1739 608 l 1246 608 l 1246 729 l 1886 729 l 1886 613 l 1411 117 l 1393 121 l 1894 121 l 1894 0 l 1246 0 m 1507 843 l 1361 1000 l 1414 1046 l 1588 944 l 1546 944 l 1719 1046 l 1772 1000 l 1626 843 l 1507 843 z "},"e":{"ha":1082,"x_min":118,"x_max":946,"o":"m 565 -14 q 333 34 435 -14 q 175 166 232 82 q 118 357 118 250 q 151 517 118 446 q 244 640 185 589 q 383 718 304 690 q 553 746 463 746 q 707 719 635 746 q 833 646 779 693 q 917 534 888 599 q 944 392 946 469 l 943 322 l 239 322 l 207 436 l 819 436 l 799 421 l 799 454 q 757 538 793 501 q 667 594 721 574 q 553 614 614 614 q 400 588 467 614 q 297 508 333 563 q 260 367 260 453 q 301 235 260 292 q 416 149 342 179 q 586 118 490 118 q 735 142 674 118 q 846 203 797 167 l 913 97 q 819 42 875 67 q 697 1 763 17 q 565 -14 631 -14 z "},"é":{"ha":1082,"x_min":118,"x_max":946,"o":"m 565 -14 q 333 34 435 -14 q 175 166 232 82 q 118 357 118 250 q 151 517 118 446 q 244 640 185 589 q 383 718 304 690 q 553 746 463 746 q 707 719 635 746 q 833 646 779 693 q 917 534 888 599 q 944 392 946 469 l 943 322 l 239 322 l 207 436 l 819 436 l 799 421 l 799 454 q 757 538 793 501 q 667 594 721 574 q 553 614 614 614 q 400 588 467 614 q 297 508 333 563 q 260 367 260 453 q 301 235 260 292 q 416 149 342 179 q 586 118 490 118 q 735 142 674 118 q 846 203 797 167 l 913 97 q 819 42 875 67 q 697 1 763 17 q 565 -14 631 -14 m 463 842 l 415 913 l 614 1086 l 704 972 l 463 842 z "},"ĕ":{"ha":1082,"x_min":118,"x_max":946,"o":"m 565 -14 q 333 34 435 -14 q 175 166 232 82 q 118 357 118 250 q 151 517 118 446 q 244 640 185 589 q 383 718 304 690 q 553 746 463 746 q 707 719 635 746 q 833 646 779 693 q 917 534 888 599 q 944 392 946 469 l 943 322 l 239 322 l 207 436 l 819 436 l 799 421 l 799 454 q 757 538 793 501 q 667 594 721 574 q 553 614 614 614 q 400 588 467 614 q 297 508 333 563 q 260 367 260 453 q 301 235 260 292 q 416 149 342 179 q 586 118 490 118 q 735 142 674 118 q 846 203 797 167 l 913 97 q 819 42 875 67 q 697 1 763 17 q 565 -14 631 -14 m 553 818 q 406 876 464 818 q 328 1032 347 933 l 431 1049 q 480 963 449 994 q 553 931 511 931 q 626 963 594 931 q 675 1049 657 994 l 778 1032 q 700 876 758 933 q 553 818 642 818 z "},"ě":{"ha":1082,"x_min":118,"x_max":946,"o":"m 565 -14 q 333 34 435 -14 q 175 166 232 82 q 118 357 118 250 q 151 517 118 446 q 244 640 185 589 q 383 718 304 690 q 553 746 463 746 q 707 719 635 746 q 833 646 779 693 q 917 534 888 599 q 944 392 946 469 l 943 322 l 239 322 l 207 436 l 819 436 l 799 421 l 799 454 q 757 538 793 501 q 667 594 721 574 q 553 614 614 614 q 400 588 467 614 q 297 508 333 563 q 260 367 260 453 q 301 235 260 292 q 416 149 342 179 q 586 118 490 118 q 735 142 674 118 q 846 203 797 167 l 913 97 q 819 42 875 67 q 697 1 763 17 q 565 -14 631 -14 m 493 843 l 347 1000 l 400 1046 l 574 944 l 532 944 l 706 1046 l 758 1000 l 613 843 l 493 843 z "},"ḝ":{"ha":1082,"x_min":118,"x_max":946,"o":"m 565 -14 q 333 34 435 -14 q 175 166 232 82 q 118 357 118 250 q 151 517 118 446 q 244 640 185 589 q 383 718 304 690 q 553 746 463 746 q 707 719 635 746 q 833 646 779 693 q 917 534 888 599 q 944 392 946 469 l 943 322 l 239 322 l 207 436 l 819 436 l 799 421 l 799 454 q 757 538 793 501 q 667 594 721 574 q 553 614 614 614 q 400 588 467 614 q 297 508 333 563 q 260 367 260 453 q 301 235 260 292 q 416 149 342 179 q 586 118 490 118 q 735 142 674 118 q 846 203 797 167 l 913 97 q 819 42 875 67 q 697 1 763 17 q 565 -14 631 -14 m 429 -339 l 419 -269 q 494 -260 457 -268 q 557 -235 532 -251 q 582 -197 582 -218 q 558 -164 582 -176 q 503 -145 533 -151 q 450 -139 472 -139 l 435 -117 l 532 33 l 614 33 l 554 -64 q 654 -108 615 -76 q 693 -193 693 -139 q 668 -258 693 -231 q 604 -305 643 -286 q 519 -332 565 -324 q 429 -339 472 -340 m 553 818 q 406 876 464 818 q 328 1032 347 933 l 431 1049 q 480 963 449 994 q 553 931 511 931 q 626 963 594 931 q 675 1049 657 994 l 778 1032 q 700 876 758 933 q 553 818 642 818 z "},"ê":{"ha":1082,"x_min":118,"x_max":946,"o":"m 565 -14 q 333 34 435 -14 q 175 166 232 82 q 118 357 118 250 q 151 517 118 446 q 244 640 185 589 q 383 718 304 690 q 553 746 463 746 q 707 719 635 746 q 833 646 779 693 q 917 534 888 599 q 944 392 946 469 l 943 322 l 239 322 l 207 436 l 819 436 l 799 421 l 799 454 q 757 538 793 501 q 667 594 721 574 q 553 614 614 614 q 400 588 467 614 q 297 508 333 563 q 260 367 260 453 q 301 235 260 292 q 416 149 342 179 q 586 118 490 118 q 735 142 674 118 q 846 203 797 167 l 913 97 q 819 42 875 67 q 697 1 763 17 q 565 -14 631 -14 m 386 843 l 333 889 l 493 1046 l 613 1046 l 772 889 l 719 843 l 532 944 l 574 944 l 386 843 z "},"ế":{"ha":1082,"x_min":118,"x_max":947,"o":"m 565 -14 q 333 34 435 -14 q 175 166 232 82 q 118 357 118 250 q 151 517 118 446 q 244 640 185 589 q 383 718 304 690 q 553 746 463 746 q 707 719 635 746 q 833 646 779 693 q 917 534 888 599 q 944 392 946 469 l 943 322 l 239 322 l 207 436 l 819 436 l 799 421 l 799 454 q 757 538 793 501 q 667 594 721 574 q 553 614 614 614 q 400 588 467 614 q 297 508 333 563 q 260 367 260 453 q 301 235 260 292 q 416 149 342 179 q 586 118 490 118 q 735 142 674 118 q 846 203 797 167 l 913 97 q 819 42 875 67 q 697 1 763 17 q 565 -14 631 -14 m 386 843 l 333 889 l 493 1046 l 613 1046 l 772 889 l 719 843 l 532 944 l 574 944 l 386 843 m 785 1035 l 713 1085 l 826 1288 l 947 1201 l 785 1035 z "},"ệ":{"ha":1082,"x_min":118,"x_max":946,"o":"m 565 -14 q 333 34 435 -14 q 175 166 232 82 q 118 357 118 250 q 151 517 118 446 q 244 640 185 589 q 383 718 304 690 q 553 746 463 746 q 707 719 635 746 q 833 646 779 693 q 917 534 888 599 q 944 392 946 469 l 943 322 l 239 322 l 207 436 l 819 436 l 799 421 l 799 454 q 757 538 793 501 q 667 594 721 574 q 553 614 614 614 q 400 588 467 614 q 297 508 333 563 q 260 367 260 453 q 301 235 260 292 q 416 149 342 179 q 586 118 490 118 q 735 142 674 118 q 846 203 797 167 l 913 97 q 819 42 875 67 q 697 1 763 17 q 565 -14 631 -14 m 564 -286 q 492 -262 517 -286 q 468 -196 468 -237 q 492 -132 468 -158 q 564 -106 517 -106 q 635 -130 611 -106 q 660 -196 660 -154 q 635 -260 660 -233 q 564 -286 611 -286 m 386 843 l 333 889 l 493 1046 l 613 1046 l 772 889 l 719 843 l 532 944 l 574 944 l 386 843 z "},"ề":{"ha":1082,"x_min":118,"x_max":946,"o":"m 565 -14 q 333 34 435 -14 q 175 166 232 82 q 118 357 118 250 q 151 517 118 446 q 244 640 185 589 q 383 718 304 690 q 553 746 463 746 q 707 719 635 746 q 833 646 779 693 q 917 534 888 599 q 944 392 946 469 l 943 322 l 239 322 l 207 436 l 819 436 l 799 421 l 799 454 q 757 538 793 501 q 667 594 721 574 q 553 614 614 614 q 400 588 467 614 q 297 508 333 563 q 260 367 260 453 q 301 235 260 292 q 416 149 342 179 q 586 118 490 118 q 735 142 674 118 q 846 203 797 167 l 913 97 q 819 42 875 67 q 697 1 763 17 q 565 -14 631 -14 m 386 843 l 333 889 l 493 1046 l 613 1046 l 772 889 l 719 843 l 532 944 l 574 944 l 386 843 m 765 1032 l 597 1200 l 717 1288 l 832 1085 l 765 1032 z "},"ể":{"ha":1082,"x_min":118,"x_max":946,"o":"m 565 -14 q 333 34 435 -14 q 175 166 232 82 q 118 357 118 250 q 151 517 118 446 q 244 640 185 589 q 383 718 304 690 q 553 746 463 746 q 707 719 635 746 q 833 646 779 693 q 917 534 888 599 q 944 392 946 469 l 943 322 l 239 322 l 207 436 l 819 436 l 799 421 l 799 454 q 757 538 793 501 q 667 594 721 574 q 553 614 614 614 q 400 588 467 614 q 297 508 333 563 q 260 367 260 453 q 301 235 260 292 q 416 149 342 179 q 586 118 490 118 q 735 142 674 118 q 846 203 797 167 l 913 97 q 819 42 875 67 q 697 1 763 17 q 565 -14 631 -14 m 386 843 l 333 889 l 493 1046 l 613 1046 l 772 889 l 719 843 l 532 944 l 574 944 l 386 843 m 753 1017 q 738 1044 743 1031 q 732 1069 732 1057 q 740 1097 732 1082 q 769 1128 747 1113 q 802 1151 793 1143 q 811 1169 811 1160 q 799 1188 811 1182 q 769 1193 788 1193 q 721 1188 747 1193 q 671 1168 694 1183 l 649 1256 q 711 1281 678 1272 q 772 1289 744 1289 q 883 1258 846 1289 q 919 1182 919 1226 q 903 1127 919 1147 q 868 1097 888 1107 q 831 1076 843 1085 q 819 1053 819 1067 q 821 1043 819 1047 q 824 1035 822 1039 l 753 1017 z "},"ễ":{"ha":1082,"x_min":118,"x_max":946,"o":"m 565 -14 q 333 34 435 -14 q 175 166 232 82 q 118 357 118 250 q 151 517 118 446 q 244 640 185 589 q 383 718 304 690 q 553 746 463 746 q 707 719 635 746 q 833 646 779 693 q 917 534 888 599 q 944 392 946 469 l 943 322 l 239 322 l 207 436 l 819 436 l 799 421 l 799 454 q 757 538 793 501 q 667 594 721 574 q 553 614 614 614 q 400 588 467 614 q 297 508 333 563 q 260 367 260 453 q 301 235 260 292 q 416 149 342 179 q 586 118 490 118 q 735 142 674 118 q 846 203 797 167 l 913 97 q 819 42 875 67 q 697 1 763 17 q 565 -14 631 -14 m 385 843 l 332 889 l 492 1046 l 611 1046 l 771 889 l 718 843 l 531 944 l 572 944 l 385 843 m 657 1121 q 590 1134 617 1121 q 539 1157 564 1147 q 507 1171 522 1164 q 474 1178 492 1178 q 442 1164 456 1178 q 422 1126 428 1150 l 328 1140 q 369 1242 331 1199 q 460 1286 408 1286 q 517 1273 492 1286 q 567 1249 542 1260 q 601 1234 585 1240 q 631 1228 617 1228 q 663 1241 650 1228 q 682 1281 676 1254 l 776 1267 q 760 1194 775 1228 q 720 1141 746 1161 q 657 1121 694 1121 z "},"ȅ":{"ha":1082,"x_min":118,"x_max":946,"o":"m 565 -14 q 333 34 435 -14 q 175 166 232 82 q 118 357 118 250 q 151 517 118 446 q 244 640 185 589 q 383 718 304 690 q 553 746 463 746 q 707 719 635 746 q 833 646 779 693 q 917 534 888 599 q 944 392 946 469 l 943 322 l 239 322 l 207 436 l 819 436 l 799 421 l 799 454 q 757 538 793 501 q 667 594 721 574 q 553 614 614 614 q 400 588 467 614 q 297 508 333 563 q 260 367 260 453 q 301 235 260 292 q 416 149 342 179 q 586 118 490 118 q 735 142 674 118 q 846 203 797 167 l 913 97 q 819 42 875 67 q 697 1 763 17 q 565 -14 631 -14 m 700 842 l 458 972 l 549 1086 l 747 913 l 700 842 m 424 842 l 182 972 l 272 1086 l 471 913 l 424 842 z "},"ë":{"ha":1082,"x_min":118,"x_max":946,"o":"m 565 -14 q 333 34 435 -14 q 175 166 232 82 q 118 357 118 250 q 151 517 118 446 q 244 640 185 589 q 383 718 304 690 q 553 746 463 746 q 707 719 635 746 q 833 646 779 693 q 917 534 888 599 q 944 392 946 469 l 943 322 l 239 322 l 207 436 l 819 436 l 799 421 l 799 454 q 757 538 793 501 q 667 594 721 574 q 553 614 614 614 q 400 588 467 614 q 297 508 333 563 q 260 367 260 453 q 301 235 260 292 q 416 149 342 179 q 586 118 490 118 q 735 142 674 118 q 846 203 797 167 l 913 97 q 819 42 875 67 q 697 1 763 17 q 565 -14 631 -14 m 692 900 q 621 924 646 900 q 596 990 596 947 q 622 1056 596 1031 q 692 1081 647 1081 q 763 1057 738 1081 q 788 990 788 1033 q 762 925 788 950 q 692 900 736 900 m 414 900 q 343 924 368 900 q 318 990 318 947 q 344 1056 318 1031 q 414 1081 369 1081 q 485 1057 460 1081 q 510 990 510 1033 q 484 925 510 950 q 414 900 458 900 z "},"ė":{"ha":1082,"x_min":118,"x_max":946,"o":"m 565 -14 q 333 34 435 -14 q 175 166 232 82 q 118 357 118 250 q 151 517 118 446 q 244 640 185 589 q 383 718 304 690 q 553 746 463 746 q 707 719 635 746 q 833 646 779 693 q 917 534 888 599 q 944 392 946 469 l 943 322 l 239 322 l 207 436 l 819 436 l 799 421 l 799 454 q 757 538 793 501 q 667 594 721 574 q 553 614 614 614 q 400 588 467 614 q 297 508 333 563 q 260 367 260 453 q 301 235 260 292 q 416 149 342 179 q 586 118 490 118 q 735 142 674 118 q 846 203 797 167 l 913 97 q 819 42 875 67 q 697 1 763 17 q 565 -14 631 -14 m 553 899 q 482 922 507 899 q 457 989 457 946 q 483 1054 457 1029 q 553 1079 508 1079 q 624 1056 599 1079 q 649 989 649 1032 q 623 924 649 949 q 553 899 597 899 z "},"ẹ":{"ha":1082,"x_min":118,"x_max":946,"o":"m 565 -14 q 333 34 435 -14 q 175 166 232 82 q 118 357 118 250 q 151 517 118 446 q 244 640 185 589 q 383 718 304 690 q 553 746 463 746 q 707 719 635 746 q 833 646 779 693 q 917 534 888 599 q 944 392 946 469 l 943 322 l 239 322 l 207 436 l 819 436 l 799 421 l 799 454 q 757 538 793 501 q 667 594 721 574 q 553 614 614 614 q 400 588 467 614 q 297 508 333 563 q 260 367 260 453 q 301 235 260 292 q 416 149 342 179 q 586 118 490 118 q 735 142 674 118 q 846 203 797 167 l 913 97 q 819 42 875 67 q 697 1 763 17 q 565 -14 631 -14 m 564 -286 q 492 -262 517 -286 q 468 -196 468 -237 q 492 -132 468 -158 q 564 -106 517 -106 q 635 -130 611 -106 q 660 -196 660 -154 q 635 -260 660 -233 q 564 -286 611 -286 z "},"è":{"ha":1082,"x_min":118,"x_max":946,"o":"m 565 -14 q 333 34 435 -14 q 175 166 232 82 q 118 357 118 250 q 151 517 118 446 q 244 640 185 589 q 383 718 304 690 q 553 746 463 746 q 707 719 635 746 q 833 646 779 693 q 917 534 888 599 q 944 392 946 469 l 943 322 l 239 322 l 207 436 l 819 436 l 799 421 l 799 454 q 757 538 793 501 q 667 594 721 574 q 553 614 614 614 q 400 588 467 614 q 297 508 333 563 q 260 367 260 453 q 301 235 260 292 q 416 149 342 179 q 586 118 490 118 q 735 142 674 118 q 846 203 797 167 l 913 97 q 819 42 875 67 q 697 1 763 17 q 565 -14 631 -14 m 629 842 l 388 972 l 478 1086 l 676 913 l 629 842 z "},"ẻ":{"ha":1082,"x_min":118,"x_max":946,"o":"m 565 -14 q 333 34 435 -14 q 175 166 232 82 q 118 357 118 250 q 151 517 118 446 q 244 640 185 589 q 383 718 304 690 q 553 746 463 746 q 707 719 635 746 q 833 646 779 693 q 917 534 888 599 q 944 392 946 469 l 943 322 l 239 322 l 207 436 l 819 436 l 799 421 l 799 454 q 757 538 793 501 q 667 594 721 574 q 553 614 614 614 q 400 588 467 614 q 297 508 333 563 q 260 367 260 453 q 301 235 260 292 q 416 149 342 179 q 586 118 490 118 q 735 142 674 118 q 846 203 797 167 l 913 97 q 819 42 875 67 q 697 1 763 17 q 565 -14 631 -14 m 521 824 q 506 851 511 838 q 500 876 500 864 q 508 904 500 889 q 538 935 515 919 q 570 958 561 950 q 579 976 579 967 q 567 994 579 989 q 538 1000 556 1000 q 489 993 515 1000 q 439 975 463 986 l 417 1063 q 479 1088 446 1079 q 540 1096 513 1096 q 651 1065 614 1096 q 688 989 688 1033 q 672 934 688 954 q 636 904 656 914 q 599 883 611 892 q 588 860 588 874 q 589 850 588 854 q 592 842 590 846 l 521 824 z "},"ȇ":{"ha":1082,"x_min":118,"x_max":946,"o":"m 565 -14 q 333 34 435 -14 q 175 166 232 82 q 118 357 118 250 q 151 517 118 446 q 244 640 185 589 q 383 718 304 690 q 553 746 463 746 q 707 719 635 746 q 833 646 779 693 q 917 534 888 599 q 944 392 946 469 l 943 322 l 239 322 l 207 436 l 819 436 l 799 421 l 799 454 q 757 538 793 501 q 667 594 721 574 q 553 614 614 614 q 400 588 467 614 q 297 508 333 563 q 260 367 260 453 q 301 235 260 292 q 416 149 342 179 q 586 118 490 118 q 735 142 674 118 q 846 203 797 167 l 913 97 q 819 42 875 67 q 697 1 763 17 q 565 -14 631 -14 m 431 832 l 328 849 q 406 1005 347 947 q 553 1063 464 1063 q 700 1005 642 1063 q 778 849 758 947 l 675 832 q 626 918 657 886 q 553 950 594 950 q 480 918 511 950 q 431 832 449 886 z "},"ē":{"ha":1082,"x_min":118,"x_max":946,"o":"m 565 -14 q 333 34 435 -14 q 175 166 232 82 q 118 357 118 250 q 151 517 118 446 q 244 640 185 589 q 383 718 304 690 q 553 746 463 746 q 707 719 635 746 q 833 646 779 693 q 917 534 888 599 q 944 392 946 469 l 943 322 l 239 322 l 207 436 l 819 436 l 799 421 l 799 454 q 757 538 793 501 q 667 594 721 574 q 553 614 614 614 q 400 588 467 614 q 297 508 333 563 q 260 367 260 453 q 301 235 260 292 q 416 149 342 179 q 586 118 490 118 q 735 142 674 118 q 846 203 797 167 l 913 97 q 819 42 875 67 q 697 1 763 17 q 565 -14 631 -14 m 347 892 l 347 996 l 758 996 l 758 892 l 347 892 z "},"ḗ":{"ha":1082,"x_min":118,"x_max":946,"o":"m 565 -14 q 333 34 435 -14 q 175 166 232 82 q 118 357 118 250 q 151 517 118 446 q 244 640 185 589 q 383 718 304 690 q 553 746 463 746 q 707 719 635 746 q 833 646 779 693 q 917 534 888 599 q 944 392 946 469 l 943 322 l 239 322 l 207 436 l 819 436 l 799 421 l 799 454 q 757 538 793 501 q 667 594 721 574 q 553 614 614 614 q 400 588 467 614 q 297 508 333 563 q 260 367 260 453 q 301 235 260 292 q 416 149 342 179 q 586 118 490 118 q 735 142 674 118 q 846 203 797 167 l 913 97 q 819 42 875 67 q 697 1 763 17 q 565 -14 631 -14 m 356 878 l 356 982 l 750 982 l 750 878 l 356 878 m 553 1038 l 481 1088 l 608 1283 l 715 1204 l 553 1038 z "},"ḕ":{"ha":1082,"x_min":118,"x_max":946,"o":"m 565 -14 q 333 34 435 -14 q 175 166 232 82 q 118 357 118 250 q 151 517 118 446 q 244 640 185 589 q 383 718 304 690 q 553 746 463 746 q 707 719 635 746 q 833 646 779 693 q 917 534 888 599 q 944 392 946 469 l 943 322 l 239 322 l 207 436 l 819 436 l 799 421 l 799 454 q 757 538 793 501 q 667 594 721 574 q 553 614 614 614 q 400 588 467 614 q 297 508 333 563 q 260 367 260 453 q 301 235 260 292 q 416 149 342 179 q 586 118 490 118 q 735 142 674 118 q 846 203 797 167 l 913 97 q 819 42 875 67 q 697 1 763 17 q 565 -14 631 -14 m 574 1038 l 411 1204 l 518 1283 l 646 1088 l 574 1038 m 356 878 l 356 982 l 750 982 l 750 878 l 356 878 z "},"ę":{"ha":1082,"x_min":118,"x_max":946,"o":"m 715 -278 q 599 -237 640 -278 q 557 -142 557 -197 q 595 -31 557 -76 q 697 49 633 14 q 838 115 761 85 l 868 67 q 729 -24 775 18 q 683 -115 683 -65 q 697 -156 683 -140 q 735 -171 711 -171 q 770 -162 757 -171 q 794 -136 783 -153 l 872 -192 q 837 -234 860 -214 q 783 -266 814 -254 q 715 -278 751 -278 m 565 -14 q 333 34 435 -14 q 175 166 232 82 q 118 357 118 250 q 151 517 118 446 q 244 640 185 589 q 383 718 304 690 q 553 746 463 746 q 707 719 635 746 q 833 646 779 693 q 917 534 888 599 q 944 392 946 469 l 943 322 l 239 322 l 207 436 l 819 436 l 799 421 l 799 454 q 757 538 793 501 q 667 594 721 574 q 553 614 614 614 q 400 588 467 614 q 297 508 333 563 q 260 367 260 453 q 301 235 260 292 q 416 149 342 179 q 586 118 490 118 q 735 142 674 118 q 846 203 797 167 l 913 97 q 819 42 875 67 q 697 1 763 17 q 565 -14 631 -14 z "},"ẽ":{"ha":1082,"x_min":118,"x_max":946,"o":"m 565 -14 q 333 34 435 -14 q 175 166 232 82 q 118 357 118 250 q 151 517 118 446 q 244 640 185 589 q 383 718 304 690 q 553 746 463 746 q 707 719 635 746 q 833 646 779 693 q 917 534 888 599 q 944 392 946 469 l 943 322 l 239 322 l 207 436 l 819 436 l 799 421 l 799 454 q 757 538 793 501 q 667 594 721 574 q 553 614 614 614 q 400 588 467 614 q 297 508 333 563 q 260 367 260 453 q 301 235 260 292 q 416 149 342 179 q 586 118 490 118 q 735 142 674 118 q 846 203 797 167 l 913 97 q 819 42 875 67 q 697 1 763 17 q 565 -14 631 -14 m 624 854 q 577 865 596 854 q 538 893 558 876 q 498 926 511 917 q 474 935 485 935 q 442 915 456 935 q 422 854 428 894 l 328 868 q 372 986 331 936 q 481 1036 413 1036 q 527 1025 508 1036 q 567 997 546 1014 q 607 965 594 975 q 631 956 619 956 q 663 976 650 956 q 682 1036 676 997 l 776 1022 q 756 939 775 978 q 703 877 736 900 q 624 854 669 854 z "},"ə":{"ha":1082,"x_min":138,"x_max":964,"o":"m 531 -17 q 331 30 421 -15 q 190 155 242 75 q 138 338 138 235 l 139 407 l 843 407 l 875 293 l 263 293 l 283 308 l 283 275 q 326 192 290 229 q 415 135 361 156 q 531 115 469 115 q 683 141 617 115 q 785 222 749 167 q 822 363 822 276 q 781 493 822 438 q 667 580 740 549 q 496 611 594 611 q 347 587 408 611 q 236 526 286 563 l 169 632 q 265 688 208 663 q 386 728 321 713 q 518 743 451 743 q 749 695 649 743 q 907 564 850 647 q 964 372 964 481 q 931 212 964 283 q 838 90 897 140 q 699 11 778 39 q 531 -17 621 -17 z "},"f":{"ha":808,"x_min":140,"x_max":728,"o":"m 288 0 l 288 764 q 322 900 288 840 q 415 993 356 960 q 551 1026 474 1026 q 659 1008 613 1026 q 728 965 706 989 l 679 847 q 628 879 658 865 q 568 893 597 893 q 485 876 517 893 q 439 829 453 858 q 425 764 425 800 l 425 0 l 357 0 q 325 0 342 0 q 288 0 308 0 m 140 576 l 140 708 l 682 708 l 682 576 l 140 576 z "},"g":{"ha":1175,"x_min":125,"x_max":975,"o":"m 576 -319 q 387 -294 471 -319 q 251 -232 303 -268 l 303 -117 q 374 -151 332 -133 q 467 -180 415 -168 q 576 -192 518 -192 q 712 -162 654 -192 q 801 -78 769 -133 q 832 58 832 -22 l 832 168 l 847 158 q 792 78 840 118 q 673 12 744 38 q 521 -14 601 -14 q 316 35 406 -14 q 176 169 226 83 q 125 365 125 256 q 178 562 125 476 q 322 696 231 647 q 532 744 414 744 q 612 735 568 744 q 699 709 656 726 q 778 669 742 692 q 838 622 815 647 q 863 569 861 596 l 832 558 l 832 729 l 975 729 l 975 75 q 944 -97 975 -22 q 859 -220 914 -171 q 731 -294 804 -269 q 576 -319 658 -319 m 560 118 q 705 150 642 118 q 803 238 768 182 q 838 365 838 294 q 803 493 838 438 q 705 581 768 549 q 560 614 642 614 q 411 581 476 614 q 308 492 346 549 q 271 365 271 436 q 308 240 271 296 q 411 151 346 183 q 560 118 476 118 z "},"ğ":{"ha":1175,"x_min":125,"x_max":975,"o":"m 576 -319 q 387 -294 471 -319 q 251 -232 303 -268 l 303 -117 q 374 -151 332 -133 q 467 -180 415 -168 q 576 -192 518 -192 q 712 -162 654 -192 q 801 -78 769 -133 q 832 58 832 -22 l 832 168 l 847 158 q 792 78 840 118 q 673 12 744 38 q 521 -14 601 -14 q 316 35 406 -14 q 176 169 226 83 q 125 365 125 256 q 178 562 125 476 q 322 696 231 647 q 532 744 414 744 q 612 735 568 744 q 699 709 656 726 q 778 669 742 692 q 838 622 815 647 q 863 569 861 596 l 832 558 l 832 729 l 975 729 l 975 75 q 944 -97 975 -22 q 859 -220 914 -171 q 731 -294 804 -269 q 576 -319 658 -319 m 560 118 q 705 150 642 118 q 803 238 768 182 q 838 365 838 294 q 803 493 838 438 q 705 581 768 549 q 560 614 642 614 q 411 581 476 614 q 308 492 346 549 q 271 365 271 436 q 308 240 271 296 q 411 151 346 183 q 560 118 476 118 m 574 818 q 426 876 485 818 q 349 1032 368 933 l 451 1049 q 501 963 469 994 q 574 931 532 931 q 647 963 615 931 q 696 1049 678 994 l 799 1032 q 721 876 779 933 q 574 818 663 818 z "},"ǧ":{"ha":1175,"x_min":125,"x_max":975,"o":"m 576 -319 q 387 -294 471 -319 q 251 -232 303 -268 l 303 -117 q 374 -151 332 -133 q 467 -180 415 -168 q 576 -192 518 -192 q 712 -162 654 -192 q 801 -78 769 -133 q 832 58 832 -22 l 832 168 l 847 158 q 792 78 840 118 q 673 12 744 38 q 521 -14 601 -14 q 316 35 406 -14 q 176 169 226 83 q 125 365 125 256 q 178 562 125 476 q 322 696 231 647 q 532 744 414 744 q 612 735 568 744 q 699 709 656 726 q 778 669 742 692 q 838 622 815 647 q 863 569 861 596 l 832 558 l 832 729 l 975 729 l 975 75 q 944 -97 975 -22 q 859 -220 914 -171 q 731 -294 804 -269 q 576 -319 658 -319 m 560 118 q 705 150 642 118 q 803 238 768 182 q 838 365 838 294 q 803 493 838 438 q 705 581 768 549 q 560 614 642 614 q 411 581 476 614 q 308 492 346 549 q 271 365 271 436 q 308 240 271 296 q 411 151 346 183 q 560 118 476 118 m 514 843 l 368 1000 l 421 1046 l 594 944 l 553 944 l 726 1046 l 779 1000 l 633 843 l 514 843 z "}}}
